STARTFONT 2.1
COMMENT
COMMENT Converted from OpenType font "TimesB.otf" by "otf2bdf 3.0".
COMMENT
FONT -FreeType-Times New Roman-Bold-R-Normal--36-260-100-100-P-180-ISO10646-1
SIZE 26 100 100
FONTBOUNDINGBOX 60 48 -20 -11
STARTPROPERTIES 19
FOUNDRY "FreeType"
FAMILY_NAME "Times New Roman"
WEIGHT_NAME "Bold"
SLANT "R"
SETWIDTH_NAME "Normal"
ADD_STYLE_NAME ""
PIXEL_SIZE 36
POINT_SIZE 260
RESOLUTION_X 100
RESOLUTION_Y 100
SPACING "P"
AVERAGE_WIDTH 180
CHARSET_REGISTRY "ISO10646"
CHARSET_ENCODING "1"
FONT_ASCENT 32
FONT_DESCENT 7
COPYRIGHT "© 2006 The Monotype Corporation. All Rights Reserved."
_OTF_FONTFILE "TimesB.otf"
_OTF_PSNAME "TimesNewRomanPS-BoldMT"
ENDPROPERTIES
CHARS 1425
STARTCHAR 0020
ENCODING 32
SWIDTH 249 0
DWIDTH 9 0
BBX 0 0 0 0
BITMAP
ENDCHAR
STARTCHAR 0021
ENCODING 33
SWIDTH 332 0
DWIDTH 12 0
BBX 6 24 3 0
BITMAP
78
FC
FC
FC
FC
FC
78
78
78
78
30
30
30
30
30
10
00
00
00
78
FC
FC
FC
78
ENDCHAR
STARTCHAR 0022
ENCODING 34
SWIDTH 553 0
DWIDTH 20 0
BBX 14 11 3 13
BITMAP
7878
F87C
F87C
F87C
F878
7878
7038
7038
3030
3030
2010
ENDCHAR
STARTCHAR 0023
ENCODING 35
SWIDTH 498 0
DWIDTH 18 0
BBX 16 24 1 0
BITMAP
0706
0706
060E
060E
060C
0E0C
0E0C
FFFF
FFFF
FFFF
1C18
1C18
1818
1838
1830
FFFF
FFFF
3070
3070
3060
7060
6060
60E0
60E0
ENDCHAR
STARTCHAR 0024
ENCODING 36
SWIDTH 498 0
DWIDTH 18 0
BBX 16 27 1 -2
BITMAP
0180
03E0
0FFC
399E
718E
7186
7182
F982
FD80
7F80
7F80
3FE0
1FF0
0FFC
03FE
01FE
01FF
01BF
419F
418F
418F
618E
618E
799C
3FF0
0180
0180
ENDCHAR
STARTCHAR 0025
ENCODING 37
SWIDTH 996 0
DWIDTH 36 0
BBX 31 25 3 -1
BITMAP
3F800300
71C00600
F1E00E00
F1E00C00
F1E01800
F1E03800
F1E03000
F1E06000
F1E0E000
F1C0C000
71C18000
3F038000
000301C0
00060770
000E0E38
000C1E3C
00181E3C
00381E3E
00301E3E
00601E3E
00E01E3C
00C01E3C
01800E38
03800738
030003E0
ENDCHAR
STARTCHAR 0026
ENCODING 38
SWIDTH 830 0
DWIDTH 30 0
BBX 27 25 1 -1
BITMAP
003FC000
0073E000
00E1E000
01E1E000
01E0E000
01E0E000
01F1C000
01F18000
01FF0000
01FC0000
00FC0FC0
03FC0780
0E7E0300
1C7F0600
3C3F8600
7C1F8C00
7C1FC800
7C0FF800
FE07F000
7E03F800
7F01FE20
7FC7FFC0
3FFE7FC0
1FF83F80
01000400
ENDCHAR
STARTCHAR 0027
ENCODING 39
SWIDTH 276 0
DWIDTH 10 0
BBX 6 11 2 13
BITMAP
78
7C
FC
7C
78
78
78
30
30
30
30
ENDCHAR
STARTCHAR 0028
ENCODING 40
SWIDTH 332 0
DWIDTH 12 0
BBX 11 31 1 -7
BITMAP
00C0
0180
0300
0600
0E00
1C00
1C00
3C00
3C00
7C00
7800
7800
7800
7800
F800
F800
F800
7800
7800
7800
7800
7C00
3C00
3C00
1C00
1E00
0E00
0700
0300
0180
0060
ENDCHAR
STARTCHAR 0029
ENCODING 41
SWIDTH 332 0
DWIDTH 12 0
BBX 11 31 0 -7
BITMAP
6000
3000
1800
0C00
0E00
0700
0700
0780
0780
03C0
03C0
03C0
03C0
03E0
03E0
03E0
03E0
03E0
03C0
03C0
03C0
03C0
0780
0780
0700
0700
0E00
0C00
1800
3000
C000
ENDCHAR
STARTCHAR 002A
ENCODING 42
SWIDTH 498 0
DWIDTH 18 0
BBX 14 13 2 11
BITMAP
0380
0780
0780
0308
F33C
F97C
7FF8
0300
0480
1CE0
3CF0
3CF0
3870
ENDCHAR
STARTCHAR 002B
ENCODING 43
SWIDTH 581 0
DWIDTH 21 0
BBX 19 20 1 2
BITMAP
00E000
00E000
00E000
00E000
00E000
00E000
00E000
00E000
00E000
FFFFE0
FFFFE0
00E000
00E000
00E000
00E000
00E000
00E000
00E000
00E000
00E000
ENDCHAR
STARTCHAR 002C
ENCODING 44
SWIDTH 249 0
DWIDTH 9 0
BBX 7 11 1 -6
BITMAP
7C
FC
FE
FE
7E
06
04
0C
08
10
60
ENDCHAR
STARTCHAR 002D
ENCODING 45
SWIDTH 332 0
DWIDTH 12 0
BBX 10 4 1 6
BITMAP
FFC0
FFC0
FFC0
FFC0
ENDCHAR
STARTCHAR 002E
ENCODING 46
SWIDTH 249 0
DWIDTH 9 0
BBX 5 5 2 0
BITMAP
F8
F8
F8
F8
F8
ENDCHAR
STARTCHAR 002F
ENCODING 47
SWIDTH 276 0
DWIDTH 10 0
BBX 10 25 0 -1
BITMAP
00C0
01C0
0180
0180
0380
0300
0300
0700
0600
0600
0E00
0C00
0C00
0C00
1800
1800
1800
3000
3000
3000
7000
6000
6000
E000
C000
ENDCHAR
STARTCHAR 0030
ENCODING 48
SWIDTH 498 0
DWIDTH 18 0
BBX 16 24 1 0
BITMAP
07E0
0E70
1C38
3C3C
3C3C
7C3E
7C3E
7C3E
7C3F
FC3F
FC3F
FC3F
FC3F
FC3F
FC3F
7C3E
7C3E
7C3E
7C3E
3C3C
3C3C
1C38
0E78
07E0
ENDCHAR
STARTCHAR 0031
ENCODING 49
SWIDTH 498 0
DWIDTH 18 0
BBX 12 24 3 0
BITMAP
0380
0F80
3F80
FF80
1F80
0F80
0F80
0F80
0F80
0F80
0F80
0F80
0F80
0F80
0F80
0F80
0F80
0F80
0F80
0F80
0F80
0F80
1F80
FFF0
ENDCHAR
STARTCHAR 0032
ENCODING 50
SWIDTH 498 0
DWIDTH 18 0
BBX 15 24 1 0
BITMAP
0FE0
1FF0
3FF8
7FFC
61FC
C0FC
007C
007C
007C
0078
0078
0070
00E0
00E0
01C0
0380
0300
0602
0C02
1FFE
1FFE
3FFC
7FFC
FFFC
ENDCHAR
STARTCHAR 0033
ENCODING 51
SWIDTH 498 0
DWIDTH 18 0
BBX 15 24 1 -1
BITMAP
07E0
1FF8
3FF8
31FC
40FC
807C
0078
0078
0070
00E0
01F8
0FFC
03FC
00FE
007E
003E
003E
001E
001E
001C
E018
F838
FC70
7FC0
ENDCHAR
STARTCHAR 0034
ENCODING 52
SWIDTH 498 0
DWIDTH 18 0
BBX 16 24 1 0
BITMAP
0018
0038
0078
00F8
00F8
01F8
0378
0678
0478
0C78
1878
3078
2078
6078
C078
FFFF
FFFF
FFFF
FFFF
0078
0078
0078
0078
0078
ENDCHAR
STARTCHAR 0035
ENCODING 53
SWIDTH 498 0
DWIDTH 18 0
BBX 16 24 1 0
BITMAP
0FFF
0FFE
0FFE
1FFC
1FFC
1000
3000
3F00
3FE0
7FF0
7FF8
FFFC
07FE
00FE
003F
001F
000F
000E
0006
0006
780C
FC08
7F30
3FE0
ENDCHAR
STARTCHAR 0036
ENCODING 54
SWIDTH 498 0
DWIDTH 18 0
BBX 16 24 1 0
BITMAP
003E
00F0
01C0
0780
0F00
1F00
1E00
3E00
3C00
7DF8
7FFC
7C7E
7C3E
FC3F
FC1F
FC1F
FC1F
7C1F
7C1F
7C1E
3C1E
3E1C
1E38
07F0
ENDCHAR
STARTCHAR 0037
ENCODING 55
SWIDTH 498 0
DWIDTH 18 0
BBX 16 24 1 0
BITMAP
3FFF
3FFF
7FFE
7FFE
7FFE
600C
801C
801C
0018
0038
0038
0030
0070
0070
0060
00E0
00E0
00C0
01C0
01C0
0180
0380
0380
0380
ENDCHAR
STARTCHAR 0038
ENCODING 56
SWIDTH 498 0
DWIDTH 18 0
BBX 16 24 1 0
BITMAP
0FF0
1C3C
3C1E
781E
781E
7C1E
7C1E
7E1E
7F1C
3FF8
1FE0
0FF8
07FC
1DFE
3CFE
787F
783F
F83F
F81F
F81F
781E
781E
3C3C
1FF0
ENDCHAR
STARTCHAR 0039
ENCODING 57
SWIDTH 498 0
DWIDTH 18 0
BBX 16 24 1 0
BITMAP
0FE0
1C78
3C7C
783C
783E
783E
F83E
F83F
F83F
FC3F
FC3F
7C3F
7E3E
3FFE
1FFE
003E
007C
007C
00F8
00F0
01E0
03C0
0F00
7C00
ENDCHAR
STARTCHAR 003A
ENCODING 58
SWIDTH 332 0
DWIDTH 12 0
BBX 6 17 3 0
BITMAP
38
7C
FC
FC
7C
30
00
00
00
00
00
00
78
FC
FC
FC
78
ENDCHAR
STARTCHAR 003B
ENCODING 59
SWIDTH 332 0
DWIDTH 12 0
BBX 6 23 3 -6
BITMAP
78
FC
FC
FC
78
30
00
00
00
00
00
00
78
FC
FC
FC
7C
0C
0C
08
18
30
C0
ENDCHAR
STARTCHAR 003C
ENCODING 60
SWIDTH 581 0
DWIDTH 21 0
BBX 19 17 1 4
BITMAP
000060
0003E0
000FC0
007E00
01F800
0FC000
3F0000
FC0000
F80000
7E0000
0FC000
03F000
007E00
001F80
0007E0
0000E0
000020
ENDCHAR
STARTCHAR 003D
ENCODING 61
SWIDTH 581 0
DWIDTH 21 0
BBX 19 8 1 8
BITMAP
FFFFE0
FFFFE0
000000
000000
000000
000000
FFFFE0
FFFFE0
ENDCHAR
STARTCHAR 003E
ENCODING 62
SWIDTH 581 0
DWIDTH 21 0
BBX 19 16 1 4
BITMAP
C00000
F80000
7E0000
1FC000
03F000
00FC00
001F80
0007E0
0003E0
001F80
007E00
03F000
0FC000
3F0000
F80000
E00000
ENDCHAR
STARTCHAR 003F
ENCODING 63
SWIDTH 498 0
DWIDTH 18 0
BBX 14 24 2 0
BITMAP
1FE0
31F8
70F8
F07C
F87C
F87C
707C
007C
00F8
00F0
01E0
0180
0300
0200
0200
0200
0000
0000
0000
0700
0F80
0F80
0F80
0F00
ENDCHAR
STARTCHAR 0040
ENCODING 64
SWIDTH 941 0
DWIDTH 34 0
BBX 31 32 2 -8
BITMAP
001FFC00
00F00300
01C000C0
07000060
0E000020
1C000010
18000010
30038008
700EDE08
601C7E08
603C7C08
C0387C08
C0787C08
C0F07808
C0F07808
C1F0F808
C1E0F010
C1E1F010
C1E1F030
C1E3F020
C1F5E040
C1FDE082
41F8F304
60E07C04
30000008
30000010
18000030
0C000060
06000080
01800300
00F01C00
000FC000
ENDCHAR
STARTCHAR 0041
ENCODING 65
SWIDTH 720 0
DWIDTH 26 0
BBX 26 24 0 0
BITMAP
00040000
000C0000
000E0000
001E0000
001E0000
003F0000
003F0000
007F8000
005F8000
004FC000
00CFC000
0087E000
0187E000
0107E000
0303F000
0203F000
07FFF800
0401F800
0400FC00
0C00FC00
0800FE00
18007E00
38007F00
FF03FFC0
ENDCHAR
STARTCHAR 0042
ENCODING 66
SWIDTH 664 0
DWIDTH 24 0
BBX 22 24 1 0
BITMAP
FFFF00
1FBFC0
1F87E0
1F83F0
1F81F0
1F81F8
1F81F8
1F81F8
1F83F0
1F83E0
1F8F80
1FFF00
1F8FE0
1F83F0
1F81F8
1F81FC
1F80FC
1F80FC
1F80FC
1F81F8
1F81F8
1F83F0
1FCFE0
FFFF00
ENDCHAR
STARTCHAR 0043
ENCODING 67
SWIDTH 720 0
DWIDTH 26 0
BBX 23 25 1 -1
BITMAP
007FE2
01F07E
07E01E
0F800E
1F8006
1F0002
3F0002
7E0002
7E0000
7E0000
7E0000
FE0000
FE0000
FE0000
7E0000
7E0000
7E0000
7F0000
3F0000
1F0002
1F8006
0FC01C
03F070
00FFE0
000400
ENDCHAR
STARTCHAR 0044
ENCODING 68
SWIDTH 720 0
DWIDTH 26 0
BBX 25 24 0 0
BITMAP
FFFF0000
1FCFE000
0FC1F000
0FC0F800
0FC07C00
0FC07E00
0FC07E00
0FC03F00
0FC03F00
0FC03F00
0FC03F80
0FC03F80
0FC03F80
0FC03F80
0FC03F00
0FC03F00
0FC03F00
0FC03E00
0FC07E00
0FC07C00
0FC0F800
0FC1F000
1FE7E000
FFFF0000
ENDCHAR
STARTCHAR 0045
ENCODING 69
SWIDTH 664 0
DWIDTH 24 0
BBX 21 24 1 0
BITMAP
FFFFF0
1F8FF0
1F8070
1F8030
1F8030
1F8010
1F8210
1F8200
1F8600
1F8600
1F8E00
1FFE00
1FFE00
1F8E00
1F8600
1F8600
1F8200
1F8208
1F8008
1F8018
1F8018
1F8078
1FC3F8
FFFFF0
ENDCHAR
STARTCHAR 0046
ENCODING 70
SWIDTH 609 0
DWIDTH 22 0
BBX 20 24 1 0
BITMAP
FFFFF0
1F8FF0
1F8070
1F8030
1F8010
1F8010
1F8010
1F8200
1F8200
1F8200
1F8600
1FFE00
1FFE00
1F8600
1F8200
1F8200
1F8200
1F8200
1F8000
1F8000
1F8000
1F8000
1F8000
FFF000
ENDCHAR
STARTCHAR 0047
ENCODING 71
SWIDTH 775 0
DWIDTH 28 0
BBX 27 25 1 -1
BITMAP
00FFE100
01F03F00
07C01F00
0F800700
1F000700
3F000300
3F000100
7E000100
7E000000
7E000000
7E000000
7E000000
FE000000
7E000000
7E01FFE0
7E003F00
7E003F00
3E003F00
3F003F00
1F003F00
0F803F00
07C03F00
03E03F00
00FFF800
00060000
ENDCHAR
STARTCHAR 0048
ENCODING 72
SWIDTH 775 0
DWIDTH 28 0
BBX 26 24 1 0
BITMAP
FFF3FFC0
1F807F00
1F807E00
1F807E00
1F807E00
1F807E00
1F807E00
1F807E00
1F807E00
1F807E00
1F807E00
1FFFFE00
1F807E00
1F807E00
1F807E00
1F807E00
1F807E00
1F807E00
1F807E00
1F807E00
1F807E00
1F807E00
1F807F00
FFF3FFC0
ENDCHAR
STARTCHAR 0049
ENCODING 73
SWIDTH 387 0
DWIDTH 14 0
BBX 12 24 1 0
BITMAP
FFF0
1F80
1F80
1F80
1F80
1F80
1F80
1F80
1F80
1F80
1F80
1F80
1F80
1F80
1F80
1F80
1F80
1F80
1F80
1F80
1F80
1F80
1F80
FFF0
ENDCHAR
STARTCHAR 004A
ENCODING 74
SWIDTH 498 0
DWIDTH 18 0
BBX 18 25 0 -1
BITMAP
07FFC0
00FE00
007E00
007E00
007C00
007C00
007C00
007C00
007C00
007C00
007C00
007C00
007C00
007C00
007C00
007C00
007C00
787C00
787C00
FC7C00
787C00
707800
38F800
1FE000
010000
ENDCHAR
STARTCHAR 004B
ENCODING 75
SWIDTH 775 0
DWIDTH 28 0
BBX 28 24 1 0
BITMAP
FFF07FC0
1F801F00
1F800C00
1F801800
1F803000
1F80E000
1F818000
1F830000
1F860000
1F8C0000
1FBE0000
1FFF0000
1FFF8000
1FBF8000
1F9FC000
1F8FE000
1F87F000
1F83F800
1F83F800
1F81FC00
1F80FE00
1F807F00
1F807F80
FFF1FFF0
ENDCHAR
STARTCHAR 004C
ENCODING 76
SWIDTH 664 0
DWIDTH 24 0
BBX 22 24 1 0
BITMAP
FFF000
1F8000
1F8000
1F8000
1F8000
1F8000
1F8000
1F8000
1F8000
1F8000
1F8000
1F8000
1F8000
1F8000
1F8000
1F8000
1F8004
1F800C
1F8008
1F8008
1F8018
1F8038
1FC0F8
FFFFF8
ENDCHAR
STARTCHAR 004D
ENCODING 77
SWIDTH 941 0
DWIDTH 34 0
BBX 32 24 1 0
BITMAP
FFC001FF
1FC003FC
1FE003F8
17E007F8
17E005F8
13F00DF8
13F009F8
11F809F8
11F819F8
11FC11F8
10FC31F8
10FC21F8
107E21F8
107E61F8
103F41F8
103FC1F8
103F81F8
101F81F8
101F01F8
100F01F8
100F01F8
180601F8
380601FC
FF040FFF
ENDCHAR
STARTCHAR 004E
ENCODING 78
SWIDTH 720 0
DWIDTH 26 0
BBX 24 25 1 -1
BITMAP
FF00FF
3F801C
1FC008
1FE008
1FF008
17F008
13F808
11FC08
11FE08
10FE08
107F08
103F88
101FC8
100FE8
100FE8
1007F8
1003F8
1001F8
1000F8
1000F8
100078
180038
380018
FF0008
000008
ENDCHAR
STARTCHAR 004F
ENCODING 79
SWIDTH 775 0
DWIDTH 28 0
BBX 26 25 1 -1
BITMAP
00FFC000
03E0F000
07807C00
0F803E00
1F003F00
3F001F00
3E001F80
7E001F80
7E001F80
7E001FC0
7E001FC0
FE001FC0
FE001FC0
FE001FC0
7E001FC0
7E001F80
7E001F80
3E001F80
3F001F00
1F003E00
1F803E00
0F807C00
03C0F000
00FFE000
00040000
ENDCHAR
STARTCHAR 0050
ENCODING 80
SWIDTH 609 0
DWIDTH 22 0
BBX 20 24 1 0
BITMAP
FFFC00
1FBF80
1F87C0
1F87E0
1F83F0
1F83F0
1F83F0
1F83F0
1F83F0
1F83E0
1F87E0
1F8F80
1FFE00
1F8000
1F8000
1F8000
1F8000
1F8000
1F8000
1F8000
1F8000
1F8000
1F8000
FFF000
ENDCHAR
STARTCHAR 0051
ENCODING 81
SWIDTH 775 0
DWIDTH 28 0
BBX 26 30 1 -7
BITMAP
00FFC000
03E0F000
07807C00
0F803E00
1F003F00
3F001F00
3E001F80
7E001F80
7E001F80
7E001FC0
7E001FC0
FE001FC0
FE001FC0
FE001FC0
7E001FC0
7E001F80
7E001F80
3E001F80
3F001F00
1F003E00
0F803E00
07807C00
03C0F000
00FFE000
003F0000
001F8000
001FC000
000FE000
0007F000
0001FF80
ENDCHAR
STARTCHAR 0052
ENCODING 82
SWIDTH 720 0
DWIDTH 26 0
BBX 25 24 1 0
BITMAP
FFFF0000
3F9FE000
1F83F000
1F81F800
1F80F800
1F80FC00
1F80FC00
1F80FC00
1F80F800
1F81F800
1F81F000
1F87E000
1FFF8000
1FBF8000
1F9FC000
1F8FC000
1F87E000
1F87F000
1F83F800
1F81F800
1F81FC00
1F80FE00
1F807F00
FFF07F80
ENDCHAR
STARTCHAR 0053
ENCODING 83
SWIDTH 553 0
DWIDTH 20 0
BBX 17 25 2 -1
BITMAP
1FE200
383E00
700E00
700600
F00600
F00200
F80200
FC0200
FF0000
7FC000
7FF000
3FFC00
1FFE00
07FF00
01FF00
007F00
801F80
800F80
C00F80
C00700
E00700
F00E00
F81C00
8FF800
808000
ENDCHAR
STARTCHAR 0054
ENCODING 84
SWIDTH 664 0
DWIDTH 24 0
BBX 22 24 1 0
BITMAP
FFFFFC
FCFCFC
E0FC1C
C0FC0C
C0FC0C
80FC04
80FC04
00FC00
00FC00
00FC00
00FC00
00FC00
00FC00
00FC00
00FC00
00FC00
00FC00
00FC00
00FC00
00FC00
00FC00
00FC00
00FC00
07FF80
ENDCHAR
STARTCHAR 0055
ENCODING 85
SWIDTH 720 0
DWIDTH 26 0
BBX 24 25 1 -1
BITMAP
FFF0FF
3F801C
1F8018
1F8008
1F8008
1F8008
1F8008
1F8008
1F8008
1F8008
1F8008
1F8008
1F8008
1F8008
1F8008
1F8008
1F8008
1F8018
1F8018
1F8018
0F8030
0FC060
07F0C0
01FF80
001800
ENDCHAR
STARTCHAR 0056
ENCODING 86
SWIDTH 720 0
DWIDTH 26 0
BBX 26 25 0 -1
BITMAP
FFF03FC0
3F800700
1F800600
1F800600
0FC00400
0FC00C00
07E00800
07E01800
07E01000
03F03000
03F02000
01F86000
01F84000
00FC4000
00FC8000
00FC8000
007F8000
007F0000
003F0000
003E0000
001E0000
001C0000
001C0000
00080000
00080000
ENDCHAR
STARTCHAR 0057
ENCODING 87
SWIDTH 996 0
DWIDTH 36 0
BBX 36 25 0 -1
BITMAP
FFE7FF83F0
3F81FC00C0
3F80FC00C0
1F80FC0080
1F807E0080
0FC07E0100
0FC03F0100
07E03F0300
07E07F0200
07E05F8200
03F05F8600
03F0CFC400
01F88FCC00
01F98FC800
01F907E800
00FD07F800
00FF07F000
007E03F000
007E03F000
007C01E000
003C01E000
003801C000
001800C000
001800C000
0010000000
ENDCHAR
STARTCHAR 0058
ENCODING 88
SWIDTH 720 0
DWIDTH 26 0
BBX 26 24 0 0
BITMAP
7FF8FF80
1FC01E00
1FC01C00
0FE01800
07F03000
07F06000
03F8C000
01FC8000
01FD0000
00FF0000
007F0000
007F0000
003F8000
001FC000
002FC000
006FE000
00C7F000
0183F000
0103F800
0201FC00
0600FC00
0C00FE00
1E00FF00
FF83FFC0
ENDCHAR
STARTCHAR 0059
ENCODING 89
SWIDTH 720 0
DWIDTH 26 0
BBX 26 24 0 0
BITMAP
FFF03FC0
3F800700
1FC00600
0FC00400
0FE00C00
07E01800
07F01000
03F03000
03F82000
01F86000
00FC4000
00FC8000
007F8000
007F0000
003F0000
003F0000
003F0000
003F0000
003F0000
003F0000
003F0000
003F0000
003F0000
03FFF000
ENDCHAR
STARTCHAR 005A
ENCODING 90
SWIDTH 664 0
DWIDTH 24 0
BBX 22 24 1 0
BITMAP
3FFFF8
3F03F0
3807F0
300FE0
200FC0
201FC0
403F80
003F00
007F00
007E00
00FE00
01FC00
01F800
03F800
07F000
07E000
0FE004
0FC004
1FC004
3F800C
3F001C
7F003C
7E07FC
FFFFFC
ENDCHAR
STARTCHAR 005B
ENCODING 91
SWIDTH 332 0
DWIDTH 12 0
BBX 7 31 4 -7
BITMAP
FE
F0
F0
F0
F0
F0
F0
F0
F0
F0
F0
F0
F0
F0
F0
F0
F0
F0
F0
F0
F0
F0
F0
F0
F0
F0
F0
F0
F0
F0
FE
ENDCHAR
STARTCHAR 005C
ENCODING 92
SWIDTH 276 0
DWIDTH 10 0
BBX 10 25 0 -1
BITMAP
E000
6000
6000
7000
3000
3000
3000
1800
1800
1800
1C00
0C00
0C00
0E00
0600
0600
0700
0300
0300
0380
0180
0180
01C0
00C0
00C0
ENDCHAR
STARTCHAR 005D
ENCODING 93
SWIDTH 332 0
DWIDTH 12 0
BBX 7 31 1 -7
BITMAP
FE
1E
1E
1E
1E
1E
1E
1E
1E
1E
1E
1E
1E
1E
1E
1E
1E
1E
1E
1E
1E
1E
1E
1E
1E
1E
1E
1E
1E
1E
FE
ENDCHAR
STARTCHAR 005E
ENCODING 94
SWIDTH 581 0
DWIDTH 21 0
BBX 15 12 3 12
BITMAP
0380
0380
07C0
06C0
0EE0
1C70
1C70
3838
3038
701C
600C
E00E
ENDCHAR
STARTCHAR 005F
ENCODING 95
SWIDTH 498 0
DWIDTH 18 0
BBX 18 3 0 -8
BITMAP
FFFFC0
FFFFC0
FFFFC0
ENDCHAR
STARTCHAR 0060
ENCODING 96
SWIDTH 332 0
DWIDTH 12 0
BBX 7 6 1 19
BITMAP
F8
78
3C
1C
0C
06
ENDCHAR
STARTCHAR 0061
ENCODING 97
SWIDTH 498 0
DWIDTH 18 0
BBX 15 17 2 0
BITMAP
0FC0
39F0
70F8
F0F8
F8F8
F8F8
70F8
03F8
06F8
1CF8
78F8
F8F8
F0F8
F8F8
FFF8
FE7E
7C7C
ENDCHAR
STARTCHAR 0062
ENCODING 98
SWIDTH 553 0
DWIDTH 20 0
BBX 18 24 1 0
BITMAP
FE0000
7E0000
3E0000
3E0000
3E0000
3E0000
3E0000
3E7800
3FFE00
3F1F00
3E0F80
3E0F80
3E0F80
3E0F80
3E0FC0
3E0FC0
3E0F80
3E0F80
3E0F80
3E0F80
3E0F00
3E0F00
3E1E00
33F800
ENDCHAR
STARTCHAR 0063
ENCODING 99
SWIDTH 443 0
DWIDTH 16 0
BBX 14 17 1 0
BITMAP
07E0
0EF0
1C78
387C
787C
7838
7800
F800
F800
FC00
FC00
7C00
7E00
7E04
3F98
1FF0
0FE0
ENDCHAR
STARTCHAR 0064
ENCODING 100
SWIDTH 553 0
DWIDTH 20 0
BBX 18 24 1 0
BITMAP
007F00
001F00
001F00
001F00
001F00
001F00
001F00
079F00
1FFF00
3E3F00
3C1F00
7C1F00
7C1F00
7C1F00
7C1F00
FC1F00
FC1F00
FC1F00
7C1F00
7C1F00
7C1F00
3E3F00
3FFFC0
0FDF00
ENDCHAR
STARTCHAR 0065
ENCODING 101
SWIDTH 443 0
DWIDTH 16 0
BBX 14 17 1 0
BITMAP
07C0
0E70
1C78
3838
783C
783C
783C
FFFC
F800
F800
FC00
7C00
7C04
7E04
3F18
1FF0
0FE0
ENDCHAR
STARTCHAR 0066
ENCODING 102
SWIDTH 332 0
DWIDTH 12 0
BBX 14 24 1 0
BITMAP
07F8
0F7C
1E7C
1E38
1E00
1E00
1E00
1E00
FFC0
1E00
1E00
1E00
1E00
1E00
1E00
1E00
1E00
1E00
1E00
1E00
1E00
1E00
3F00
FFC0
ENDCHAR
STARTCHAR 0067
ENCODING 103
SWIDTH 498 0
DWIDTH 18 0
BBX 16 25 1 -8
BITMAP
07C0
1E7F
3C3F
7C3C
783E
F83E
F83E
783E
783C
3C3C
1C78
07E0
1800
3000
7800
7FF8
7FFE
7FFF
3FFF
3CFF
7007
E003
7006
3E3C
07E0
ENDCHAR
STARTCHAR 0068
ENCODING 104
SWIDTH 553 0
DWIDTH 20 0
BBX 18 24 1 0
BITMAP
FE0000
3E0000
3E0000
3E0000
3E0000
3E0000
3E0000
3E3C00
3EFE00
3FBF00
3F1F00
3E1F00
3E1F00
3E1F00
3E1F00
3E1F00
3E1F00
3E1F00
3E1F00
3E1F00
3E1F00
3E1F00
3E1F80
FFBFC0
ENDCHAR
STARTCHAR 0069
ENCODING 105
SWIDTH 276 0
DWIDTH 10 0
BBX 9 24 1 0
BITMAP
3C00
3E00
7E00
3E00
1C00
0000
0000
0000
FE00
3E00
3E00
3E00
3E00
3E00
3E00
3E00
3E00
3E00
3E00
3E00
3E00
3E00
3E00
FF80
ENDCHAR
STARTCHAR 006A
ENCODING 106
SWIDTH 332 0
DWIDTH 12 0
BBX 10 32 -1 -8
BITMAP
0780
07C0
07C0
07C0
0380
0000
0000
0000
1FC0
07C0
07C0
07C0
07C0
07C0
07C0
07C0
07C0
07C0
07C0
07C0
07C0
07C0
07C0
07C0
07C0
07C0
07C0
E7C0
E780
E780
7700
3C00
ENDCHAR
STARTCHAR 006B
ENCODING 107
SWIDTH 553 0
DWIDTH 20 0
BBX 19 24 1 0
BITMAP
FE0000
3E0000
3E0000
3E0000
3E0000
3E0000
3E0000
3E0000
3E1F80
3E0E00
3E0C00
3E1800
3E3000
3E6000
3EF000
3FF800
3FFC00
3E7C00
3E7E00
3E3F00
3E1F00
3E1F80
3E0FC0
FF9FE0
ENDCHAR
STARTCHAR 006C
ENCODING 108
SWIDTH 276 0
DWIDTH 10 0
BBX 9 24 1 0
BITMAP
FE00
7E00
3E00
3E00
3E00
3E00
3E00
3E00
3E00
3E00
3E00
3E00
3E00
3E00
3E00
3E00
3E00
3E00
3E00
3E00
3E00
3E00
3E00
FF80
ENDCHAR
STARTCHAR 006D
ENCODING 109
SWIDTH 830 0
DWIDTH 30 0
BBX 28 17 1 0
BITMAP
003C0F00
7EFF3F80
3F9F6FC0
3F0FC7C0
3E0F87C0
3E0F87C0
3E0F87C0
3E0F87C0
3E0F87C0
3E0F87C0
3E0F87C0
3E0F87C0
3E0F87C0
3E0F87C0
3E0F87C0
3E0F87E0
FFBFEFF0
ENDCHAR
STARTCHAR 006E
ENCODING 110
SWIDTH 553 0
DWIDTH 20 0
BBX 18 17 1 0
BITMAP
003C00
7EFE00
3FBF00
3F1F00
3E1F00
3E1F00
3E1F00
3E1F00
3E1F00
3E1F00
3E1F00
3E1F00
3E1F00
3E1F00
3E1F00
3E1F80
FFBFC0
ENDCHAR
STARTCHAR 006F
ENCODING 111
SWIDTH 498 0
DWIDTH 18 0
BBX 16 17 1 0
BITMAP
07E0
0E78
1C3C
3C3C
7C3E
7C1E
7C1F
FC1F
FC1F
FC1F
FC1F
7C1E
7C3E
7C3E
3C3C
1C38
0FF0
ENDCHAR
STARTCHAR 0070
ENCODING 112
SWIDTH 553 0
DWIDTH 20 0
BBX 18 25 1 -8
BITMAP
007800
FEFE00
3F1F00
3E1F00
3E0F80
3E0F80
3E0F80
3E0F80
3E0FC0
3E0FC0
3E0F80
3E0F80
3E0F80
3E0F80
3E0F00
3F9E00
3EFC00
3E0000
3E0000
3E0000
3E0000
3E0000
3E0000
7E0000
FF8000
ENDCHAR
STARTCHAR 0071
ENCODING 113
SWIDTH 553 0
DWIDTH 20 0
BBX 18 25 1 -8
BITMAP
03E100
0F3700
1E1F00
3C1F00
3C1F00
7C1F00
7C1F00
7C1F00
FC1F00
FC1F00
FC1F00
7C1F00
7C1F00
7C1F00
3E1F00
3FFF00
1FDF00
001F00
001F00
001F00
001F00
001F00
001F00
001F80
007FC0
ENDCHAR
STARTCHAR 0072
ENCODING 114
SWIDTH 443 0
DWIDTH 16 0
BBX 14 17 1 0
BITMAP
001C
7E7C
3EFC
3EFC
3F1C
3F00
3E00
3E00
3E00
3E00
3E00
3E00
3E00
3E00
3E00
3E00
FF80
ENDCHAR
STARTCHAR 0073
ENCODING 115
SWIDTH 387 0
DWIDTH 14 0
BBX 12 17 1 0
BITMAP
1F20
39E0
70E0
7060
F820
FC20
7F00
7F80
3FC0
1FE0
0FF0
03F0
41F0
40F0
60E0
70E0
7FC0
ENDCHAR
STARTCHAR 0074
ENCODING 116
SWIDTH 332 0
DWIDTH 12 0
BBX 11 23 1 0
BITMAP
0200
0200
0600
0E00
1E00
3E00
7E00
FFE0
3E00
3E00
3E00
3E00
3E00
3E00
3E00
3E00
3E00
3E00
3E00
3E00
3E40
1FC0
0F80
ENDCHAR
STARTCHAR 0075
ENCODING 117
SWIDTH 553 0
DWIDTH 20 0
BBX 17 16 2 0
BITMAP
FC7E00
7C3E00
7C3E00
7C3E00
7C3E00
7C3E00
7C3E00
7C3E00
7C3E00
7C3E00
7C3E00
7C3E00
7C3E00
7C7E00
3FFE00
1F3F80
ENDCHAR
STARTCHAR 0076
ENCODING 118
SWIDTH 498 0
DWIDTH 18 0
BBX 16 16 1 0
BITMAP
FF0F
7E06
3E04
3E04
3F0C
1F08
1F18
0F90
0F90
07E0
07E0
07E0
03C0
03C0
0180
0180
ENDCHAR
STARTCHAR 0077
ENCODING 119
SWIDTH 720 0
DWIDTH 26 0
BBX 24 16 1 0
BITMAP
FE3F8F
7C1F06
7E1F86
3E1F84
3E1F84
1F3FC8
1F27C8
1F27D8
0FE3F0
0FC3F0
0FC3F0
0781E0
0781E0
0381E0
0300C0
0300C0
ENDCHAR
STARTCHAR 0078
ENCODING 120
SWIDTH 498 0
DWIDTH 18 0
BBX 16 16 1 0
BITMAP
FF3E
3F18
1F10
1FB0
0FA0
0FC0
07C0
07E0
03E0
03F0
07F0
05F8
08FC
187C
387E
FDFF
ENDCHAR
STARTCHAR 0079
ENCODING 121
SWIDTH 498 0
DWIDTH 18 0
BBX 16 24 1 -8
BITMAP
FF0F
7E06
3E04
3E04
3F0C
1F08
1F88
0F98
0F90
07D0
07E0
03E0
03E0
03C0
01C0
0180
0080
0180
0100
F100
F200
F200
FC00
3800
ENDCHAR
STARTCHAR 007A
ENCODING 122
SWIDTH 443 0
DWIDTH 16 0
BBX 15 16 0 0
BITMAP
3FFE
207E
20FC
40F8
01F8
03F0
03E0
07E0
07C0
0FC0
1F80
1F02
3F02
3E06
7E1E
FFFE
ENDCHAR
STARTCHAR 007B
ENCODING 123
SWIDTH 387 0
DWIDTH 14 0
BBX 10 31 3 -7
BITMAP
0380
0E00
1C00
1C00
1C00
3C00
1E00
1E00
1E00
1E00
1E00
1E00
1C00
1800
7000
C000
3000
1C00
1C00
1E00
1E00
1E00
1E00
1E00
1E00
3C00
3C00
1C00
1E00
0E00
03C0
ENDCHAR
STARTCHAR 007C
ENCODING 124
SWIDTH 221 0
DWIDTH 8 0
BBX 2 32 3 -8
BITMAP
C0
C0
C0
C0
C0
C0
C0
C0
C0
C0
C0
C0
C0
C0
C0
C0
C0
C0
C0
C0
C0
C0
C0
C0
C0
C0
C0
C0
C0
C0
C0
C0
ENDCHAR
STARTCHAR 007D
ENCODING 125
SWIDTH 387 0
DWIDTH 14 0
BBX 9 31 2 -7
BITMAP
F000
3800
1C00
1E00
1E00
1E00
1E00
3E00
3C00
3C00
3C00
1C00
1C00
0E00
0700
0080
0700
0E00
1C00
1C00
3C00
3C00
3C00
3E00
1E00
1E00
1E00
1C00
1C00
3800
E000
ENDCHAR
STARTCHAR 007E
ENCODING 126
SWIDTH 526 0
DWIDTH 19 0
BBX 19 6 0 7
BITMAP
000020
3F8020
7FE020
63FCE0
C07FC0
801F80
ENDCHAR
STARTCHAR 00A0
ENCODING 160
SWIDTH 249 0
DWIDTH 9 0
BBX 0 0 0 0
BITMAP
ENDCHAR
STARTCHAR 00A1
ENCODING 161
SWIDTH 332 0
DWIDTH 12 0
BBX 6 25 3 -8
BITMAP
78
FC
FC
FC
78
00
00
00
00
30
30
30
30
30
38
78
78
78
7C
FC
FC
FC
FC
7C
30
ENDCHAR
STARTCHAR 00A2
ENCODING 162
SWIDTH 498 0
DWIDTH 18 0
BBX 14 31 2 -7
BITMAP
0008
0008
0010
0010
0030
0020
0020
03E0
0EF0
1CF8
38FC
78FC
79F8
7900
F900
FA00
FA00
FE00
7C00
7E00
7E04
3F98
1FF0
1FE0
1000
3000
2000
2000
6000
4000
C000
ENDCHAR
STARTCHAR 00A3
ENCODING 163
SWIDTH 498 0
DWIDTH 18 0
BBX 16 25 1 0
BITMAP
0040
03F8
073C
0E3E
0E3E
1F3E
1F1C
1F00
1F00
1F00
1F00
FFF0
FFF0
FFF0
0F80
0F80
0F80
0780
0700
1701
FF03
CFFF
87FF
8FFE
F8FC
ENDCHAR
STARTCHAR 00A4
ENCODING 164
SWIDTH 498 0
DWIDTH 18 0
BBX 16 16 1 3
BITMAP
C183
EFF7
7FFE
381C
700E
6006
E007
E007
E003
E007
6006
700E
381C
7E7E
EFF7
C3C3
ENDCHAR
STARTCHAR 00A5
ENCODING 165
SWIDTH 498 0
DWIDTH 18 0
BBX 18 24 0 0
BITMAP
FF87C0
7E0380
3E0100
3E0300
1F0200
1F0200
1F8600
0F8400
0F8400
0FCC00
07C800
07C800
03F800
FFFFC0
03F000
03F000
03F000
03F000
FFFFC0
03F000
03F000
03F000
03F000
1FFE00
ENDCHAR
STARTCHAR 00A6
ENCODING 166
SWIDTH 221 0
DWIDTH 8 0
BBX 2 32 3 -8
BITMAP
C0
C0
C0
C0
C0
C0
C0
C0
C0
C0
C0
C0
00
00
00
00
00
00
00
C0
C0
C0
C0
C0
C0
C0
C0
C0
C0
C0
C0
C0
ENDCHAR
STARTCHAR 00A7
ENCODING 167
SWIDTH 498 0
DWIDTH 18 0
BBX 14 32 2 -8
BITMAP
1FE0
3870
7078
7078
7078
7830
7C00
7E00
3F80
1FC0
1FF0
23F8
61F8
E0FC
E03C
E01C
F01C
F81C
FE1C
7F18
3FB0
1FE0
07F0
03F0
00F8
1078
7838
7838
7838
3830
1FE0
0F80
ENDCHAR
STARTCHAR 00A8
ENCODING 168
SWIDTH 332 0
DWIDTH 12 0
BBX 12 5 0 19
BITMAP
70E0
79F0
F9F0
79E0
2040
ENDCHAR
STARTCHAR 00A9
ENCODING 169
SWIDTH 747 0
DWIDTH 27 0
BBX 25 25 1 -1
BITMAP
00FF8000
03C1E000
0E003800
1C001C00
18080600
307FC600
61E0C300
63C04300
43804180
C7800180
C7800180
C7800180
C7800180
C7800180
C7800180
43800180
63C04100
61E0C300
30FF0600
38000600
1C000C00
0E003800
0380E000
00FFC000
00080000
ENDCHAR
STARTCHAR 00AA
ENCODING 170
SWIDTH 304 0
DWIDTH 11 0
BBX 10 10 1 14
BITMAP
7F00
E700
E780
6780
1F80
3780
E780
E780
FFC0
7380
ENDCHAR
STARTCHAR 00AB
ENCODING 171
SWIDTH 498 0
DWIDTH 18 0
BBX 16 16 1 0
BITMAP
0303
0706
0E0E
0C0C
1C1C
3838
7878
F0F0
F8F8
7878
3C3C
1C1C
0E0E
0606
0303
0101
ENDCHAR
STARTCHAR 00AC
ENCODING 172
SWIDTH 581 0
DWIDTH 21 0
BBX 19 8 1 8
BITMAP
FFFFE0
FFFFE0
000060
000060
000060
000060
000060
000060
ENDCHAR
STARTCHAR 00AD
ENCODING 173
SWIDTH 332 0
DWIDTH 12 0
BBX 10 4 1 6
BITMAP
FFC0
FFC0
FFC0
FFC0
ENDCHAR
STARTCHAR 00AE
ENCODING 174
SWIDTH 747 0
DWIDTH 27 0
BBX 25 25 1 -1
BITMAP
00FF8000
03C1E000
0E003800
1C001C00
18000600
33FF8600
61E3C300
61E1C300
41E1E180
C1E1C180
C1E3C180
C1E78180
C1FE0180
C1EF0180
C1E78180
41E78180
61E3C100
61E3C300
33F9F600
38000600
1C000C00
0E003800
0380E000
00FFC000
00080000
ENDCHAR
STARTCHAR 00AF
ENCODING 175
SWIDTH 498 0
DWIDTH 18 0
BBX 18 2 0 26
BITMAP
FFFFC0
FFFFC0
ENDCHAR
STARTCHAR 00B0
ENCODING 176
SWIDTH 387 0
DWIDTH 14 0
BBX 12 12 1 12
BITMAP
1F80
3FE0
70E0
E070
E030
C030
C030
E030
7070
7FE0
3FC0
0700
ENDCHAR
STARTCHAR 00B1
ENCODING 177
SWIDTH 553 0
DWIDTH 20 0
BBX 20 20 0 2
BITMAP
006000
006000
006000
006000
006000
006000
006000
006000
006000
FFFFF0
FFFFF0
006000
006000
006000
006000
006000
006000
FFFFF0
FFFFF0
FFFFF0
ENDCHAR
STARTCHAR 00B2
ENCODING 178
SWIDTH 304 0
DWIDTH 11 0
BBX 9 12 1 12
BITMAP
7E00
FF00
8F00
0700
0700
0600
0E00
1C00
1000
2180
7F80
FF00
ENDCHAR
STARTCHAR 00B3
ENCODING 179
SWIDTH 304 0
DWIDTH 11 0
BBX 10 13 0 11
BITMAP
1F00
3F80
4380
0380
0700
0F80
0FC0
03C0
01C0
0180
E180
FF00
1000
ENDCHAR
STARTCHAR 00B4
ENCODING 180
SWIDTH 332 0
DWIDTH 12 0
BBX 7 6 4 19
BITMAP
3E
3C
78
70
60
C0
ENDCHAR
STARTCHAR 00B5
ENCODING 181
SWIDTH 581 0
DWIDTH 21 0
BBX 19 24 1 -8
BITMAP
3E1F00
3E1F00
3E1F00
3E1F00
3E1F00
3E1F00
3E1F00
3E1F00
3E1F00
3E1F00
3E1F00
3E1F20
3E1F20
3E3F20
3FDFC0
3F8F80
600000
700000
700000
700000
700000
F00000
F00000
600000
ENDCHAR
STARTCHAR 00B6
ENCODING 182
SWIDTH 553 0
DWIDTH 20 0
BBX 20 32 0 -8
BITMAP
03FFF0
1FE380
3FE300
7FE300
7FE300
FFE300
FFE300
FFE300
FFE300
FFE300
FFE300
7FE300
7FE300
3FE300
1FE300
07E300
006300
006300
006300
006300
006300
006300
006300
006300
006300
006300
006300
006300
006300
006300
006300
006300
ENDCHAR
STARTCHAR 00B7
ENCODING 183
SWIDTH 249 0
DWIDTH 9 0
BBX 5 6 2 9
BITMAP
70
F8
F8
F8
F8
70
ENDCHAR
STARTCHAR 00B8
ENCODING 184
SWIDTH 332 0
DWIDTH 12 0
BBX 6 7 3 -7
BITMAP
10
38
78
3C
18
38
E0
ENDCHAR
STARTCHAR 00B9
ENCODING 185
SWIDTH 304 0
DWIDTH 11 0
BBX 7 12 2 12
BITMAP
38
F8
38
38
38
38
38
38
38
38
38
FE
ENDCHAR
STARTCHAR 00BA
ENCODING 186
SWIDTH 332 0
DWIDTH 12 0
BBX 10 10 1 14
BITMAP
3F00
7380
E1C0
E1C0
E1C0
E1C0
E1C0
6180
7380
1E00
ENDCHAR
STARTCHAR 00BB
ENCODING 187
SWIDTH 498 0
DWIDTH 18 0
BBX 16 16 1 0
BITMAP
C0C0
6060
7070
3838
3838
1C1C
1E1E
0F0F
1F1F
1E1E
3C3C
3838
7070
6060
C0C0
8080
ENDCHAR
STARTCHAR 00BC
ENCODING 188
SWIDTH 747 0
DWIDTH 27 0
BBX 24 25 2 -1
BITMAP
380018
F80030
380070
380060
3800C0
3801C0
380180
380300
380700
380600
380C00
7C1C00
821806
00300E
00701E
00601E
00C02E
01C04E
01808E
03018E
0701FF
0601FF
0C000E
1C000E
18000E
ENDCHAR
STARTCHAR 00BD
ENCODING 189
SWIDTH 747 0
DWIDTH 27 0
BBX 24 25 2 -1
BITMAP
380038
F80030
380060
3800E0
3800C0
380180
380380
380300
380600
380E00
380C00
7C1800
823838
0030FE
0061FE
00E10F
00C00E
01800E
03800C
030018
060030
0E0021
1C007F
1800FF
3801FE
ENDCHAR
STARTCHAR 00BE
ENCODING 190
SWIDTH 747 0
DWIDTH 27 0
BBX 26 25 0 -1
BITMAP
1F000600
3F800C00
43801C00
03801800
07003000
0F807000
0F806000
03C0C000
01C1C000
01818000
E1830000
FF070000
10060180
000C0380
001C0780
00180780
00300B80
00701380
00602380
00C06380
01C07FC0
01807FC0
03000380
07000380
06000380
ENDCHAR
STARTCHAR 00BF
ENCODING 191
SWIDTH 498 0
DWIDTH 18 0
BBX 14 25 2 -8
BITMAP
0380
07C0
07E0
07C0
07C0
0100
0000
0000
0100
0100
0100
0300
0600
0E00
3C00
7C00
7C00
F838
F83C
F87C
FC3C
7C38
7C38
3F70
0780
ENDCHAR
STARTCHAR 00C0
ENCODING 192
SWIDTH 720 0
DWIDTH 26 0
BBX 26 32 0 0
BITMAP
00F80000
00780000
003C0000
001C0000
000C0000
00060000
00000000
00000000
00040000
000C0000
000E0000
001E0000
001E0000
003F0000
003F0000
007F8000
005F8000
004FC000
00CFC000
0087E000
0187E000
0107E000
0303F000
0203F000
07FFF800
0401F800
0400FC00
0C00FC00
0800FE00
18007E00
38007F00
FF03FFC0
ENDCHAR
STARTCHAR 00C1
ENCODING 193
SWIDTH 720 0
DWIDTH 26 0
BBX 26 32 0 0
BITMAP
0007C000
000F8000
000F0000
000E0000
001C0000
00180000
00000000
00000000
00040000
000C0000
000E0000
001E0000
001E0000
003F0000
003F0000
007F8000
005F8000
004FC000
00CFC000
0087E000
0187E000
0107E000
0303F000
0203F000
07FFF800
0401F800
0400FC00
0C00FC00
0800FE00
18007E00
38007F00
FF03FFC0
ENDCHAR
STARTCHAR 00C2
ENCODING 194
SWIDTH 720 0
DWIDTH 26 0
BBX 26 32 0 0
BITMAP
001E0000
003F0000
003F0000
00738000
00E18000
00C0C000
01806000
00000000
00040000
000C0000
000E0000
001E0000
001E0000
003F0000
003F0000
007F8000
005F8000
004FC000
00CFC000
0087E000
0187E000
0107E000
0303F000
0203F000
07FFF800
0401F800
0400FC00
0C00FC00
0800FE00
18007E00
38007F00
FF03FFC0
ENDCHAR
STARTCHAR 00C3
ENCODING 195
SWIDTH 720 0
DWIDTH 26 0
BBX 26 31 0 0
BITMAP
00782000
00FE6000
00FFC000
01BFC000
01078000
00000000
00000000
00040000
000C0000
000E0000
001E0000
001E0000
003F0000
003F0000
007F8000
005F8000
004FC000
00CFC000
0087E000
0187E000
0107E000
0303F000
0203F000
07FFF800
0401F800
0400FC00
0C00FC00
0800FE00
18007E00
38007F00
FF03FFC0
ENDCHAR
STARTCHAR 00C4
ENCODING 196
SWIDTH 720 0
DWIDTH 26 0
BBX 26 31 0 0
BITMAP
00E1C000
00F3E000
01F3E000
00F3C000
00618000
00000000
00000000
00040000
000C0000
000E0000
001E0000
001E0000
003F0000
003F0000
007F8000
005F8000
004FC000
00CFC000
0087E000
0187E000
0107E000
0303F000
0203F000
07FFF800
0401F800
0400FC00
0C00FC00
0800FE00
18007E00
38007F00
FF03FFC0
ENDCHAR
STARTCHAR 00C5
ENCODING 197
SWIDTH 720 0
DWIDTH 26 0
BBX 26 30 0 0
BITMAP
001F0000
00318000
00218000
00208000
00218000
003B0000
001E0000
000C0000
000E0000
001E0000
001E0000
003F0000
003F0000
007F8000
005F8000
004FC000
00CFC000
0087E000
0187E000
0107E000
0303F000
0203F000
07FFF800
0401F800
0400FC00
0C00FC00
0800FE00
18007E00
38007F00
FF03FFC0
ENDCHAR
STARTCHAR 00C6
ENCODING 198
SWIDTH 996 0
DWIDTH 36 0
BBX 35 24 0 0
BITMAP
001FFFFF80
0003FCFF80
00037C0380
00027C0180
00067C0180
00047C0080
000C7C1080
00187C1000
00107C1000
00307C3000
00607C7000
00407FF000
00FFFCF000
00FFFC3000
01007C3000
03007C1000
02007C1020
06007C1040
0C007C0040
08007C0040
18007E00C0
38007E01C0
3800FF0FC0
FE0FFFFF80
ENDCHAR
STARTCHAR 00C7
ENCODING 199
SWIDTH 720 0
DWIDTH 26 0
BBX 23 31 1 -7
BITMAP
007FE2
01F07E
07E01E
0F800E
1F8006
1F0002
3F0002
7E0002
7E0000
7E0000
7E0000
FE0000
FE0000
FE0000
7E0000
7E0000
7E0000
7F0000
3F0000
1F0002
1F8006
0FC01C
03F070
00FFE0
000400
000E00
001E00
000F00
000600
000E00
003800
ENDCHAR
STARTCHAR 00C8
ENCODING 200
SWIDTH 664 0
DWIDTH 24 0
BBX 21 32 1 0
BITMAP
03E000
01F000
00F000
007000
003800
001800
000000
000000
FFFFF0
1F8FF0
1F8070
1F8030
1F8030
1F8010
1F8210
1F8200
1F8600
1F8600
1F8E00
1FFE00
1FFE00
1F8E00
1F8600
1F8600
1F8200
1F8208
1F8008
1F8018
1F8018
1F8078
1FC3F8
FFFFF0
ENDCHAR
STARTCHAR 00C9
ENCODING 201
SWIDTH 664 0
DWIDTH 24 0
BBX 21 32 1 0
BITMAP
001F00
001E00
003C00
003800
003000
006000
000000
000000
FFFFF0
1F8FF0
1F8070
1F8030
1F8030
1F8010
1F8210
1F8200
1F8600
1F8600
1F8E00
1FFE00
1FFE00
1F8E00
1F8600
1F8600
1F8200
1F8208
1F8008
1F8018
1F8018
1F8078
1FC3F8
FFFFF0
ENDCHAR
STARTCHAR 00CA
ENCODING 202
SWIDTH 664 0
DWIDTH 24 0
BBX 21 32 1 0
BITMAP
007800
00FC00
00FC00
01EE00
018700
030300
060180
000000
FFFFF0
1F8FF0
1F8070
1F8030
1F8030
1F8010
1F8210
1F8200
1F8600
1F8600
1F8E00
1FFE00
1FFE00
1F8E00
1F8600
1F8600
1F8200
1F8208
1F8008
1F8018
1F8018
1F8078
1FC3F8
FFFFF0
ENDCHAR
STARTCHAR 00CB
ENCODING 203
SWIDTH 664 0
DWIDTH 24 0
BBX 21 31 1 0
BITMAP
038700
03CF80
07CF80
03CF00
018600
000000
000000
FFFFF0
1F8FF0
1F8070
1F8030
1F8030
1F8010
1F8210
1F8200
1F8600
1F8600
1F8E00
1FFE00
1FFE00
1F8E00
1F8600
1F8600
1F8200
1F8208
1F8008
1F8018
1F8018
1F8078
1FC3F8
FFFFF0
ENDCHAR
STARTCHAR 00CC
ENCODING 204
SWIDTH 387 0
DWIDTH 14 0
BBX 12 32 1 0
BITMAP
7C00
3C00
1E00
0E00
0600
0300
0000
0000
FFF0
1F80
1F80
1F80
1F80
1F80
1F80
1F80
1F80
1F80
1F80
1F80
1F80
1F80
1F80
1F80
1F80
1F80
1F80
1F80
1F80
1F80
1F80
FFF0
ENDCHAR
STARTCHAR 00CD
ENCODING 205
SWIDTH 387 0
DWIDTH 14 0
BBX 12 32 1 0
BITMAP
03E0
07C0
0780
0700
0E00
0C00
0000
0000
FFF0
1F80
1F80
1F80
1F80
1F80
1F80
1F80
1F80
1F80
1F80
1F80
1F80
1F80
1F80
1F80
1F80
1F80
1F80
1F80
1F80
1F80
1F80
FFF0
ENDCHAR
STARTCHAR 00CE
ENCODING 206
SWIDTH 387 0
DWIDTH 14 0
BBX 12 32 1 0
BITMAP
0F00
1F80
1F80
39C0
70C0
6060
C030
0000
FFF0
1F80
1F80
1F80
1F80
1F80
1F80
1F80
1F80
1F80
1F80
1F80
1F80
1F80
1F80
1F80
1F80
1F80
1F80
1F80
1F80
1F80
1F80
FFF0
ENDCHAR
STARTCHAR 00CF
ENCODING 207
SWIDTH 387 0
DWIDTH 14 0
BBX 12 31 1 0
BITMAP
70E0
79F0
F9F0
79E0
30C0
0000
0000
FFF0
1F80
1F80
1F80
1F80
1F80
1F80
1F80
1F80
1F80
1F80
1F80
1F80
1F80
1F80
1F80
1F80
1F80
1F80
1F80
1F80
1F80
1F80
FFF0
ENDCHAR
STARTCHAR 00D0
ENCODING 208
SWIDTH 720 0
DWIDTH 26 0
BBX 24 24 1 0
BITMAP
FFFE00
1F9FC0
1F83E0
1F81F8
1F80F8
1F80FC
1F807E
1F807E
1F807E
1F807F
1F807F
FFFC7F
1F807F
1F807F
1F807F
1F807E
1F807E
1F807E
1F80FC
1F80F8
1F81F8
1F83E0
1FCFC0
FFFE00
ENDCHAR
STARTCHAR 00D1
ENCODING 209
SWIDTH 720 0
DWIDTH 26 0
BBX 24 32 1 -1
BITMAP
00F040
01FCC0
01FF80
037F80
020F00
000000
000000
FF00FF
3F801C
1FC008
1FE008
1FF008
17F008
13F808
11FC08
11FE08
10FE08
107F08
103F88
101FC8
100FE8
100FE8
1007F8
1003F8
1001F8
1000F8
1000F8
100078
180038
380018
FF0008
000008
ENDCHAR
STARTCHAR 00D2
ENCODING 210
SWIDTH 775 0
DWIDTH 28 0
BBX 26 33 1 -1
BITMAP
00F80000
007C0000
003C0000
001C0000
000E0000
00060000
00000000
00000000
00FFC000
03E0F000
07807C00
0F803E00
1F003F00
3F001F00
3E001F80
7E001F80
7E001F80
7E001FC0
7E001FC0
FE001FC0
FE001FC0
FE001FC0
7E001FC0
7E001F80
7E001F80
3E001F80
3F001F00
1F003E00
1F803E00
0F807C00
03C0F000
00FFE000
00040000
ENDCHAR
STARTCHAR 00D3
ENCODING 211
SWIDTH 775 0
DWIDTH 28 0
BBX 26 33 1 -1
BITMAP
0007C000
00078000
000F0000
000E0000
000C0000
00180000
00000000
00000000
00FFC000
03E0F000
07807C00
0F803E00
1F003F00
3F001F00
3E001F80
7E001F80
7E001F80
7E001FC0
7E001FC0
FE001FC0
FE001FC0
FE001FC0
7E001FC0
7E001F80
7E001F80
3E001F80
3F001F00
1F003E00
1F803E00
0F807C00
03C0F000
00FFE000
00040000
ENDCHAR
STARTCHAR 00D4
ENCODING 212
SWIDTH 775 0
DWIDTH 28 0
BBX 26 33 1 -1
BITMAP
001E0000
003F0000
003F8000
007B8000
0061C000
00C0C000
01806000
00000000
00FFC000
03E0F000
07807C00
0F803E00
1F003F00
3F001F00
3E001F80
7E001F80
7E001F80
7E001FC0
7E001FC0
FE001FC0
FE001FC0
FE001FC0
7E001FC0
7E001F80
7E001F80
3E001F80
3F001F00
1F003E00
1F803E00
0F807C00
03C0F000
00FFE000
00040000
ENDCHAR
STARTCHAR 00D5
ENCODING 213
SWIDTH 775 0
DWIDTH 28 0
BBX 26 32 1 -1
BITMAP
00782000
00FF6000
00FFC000
009FC000
01878000
00000000
00000000
00FFC000
03E0F000
07807C00
0F803E00
1F003F00
3F001F00
3E001F80
7E001F80
7E001F80
7E001FC0
7E001FC0
FE001FC0
FE001FC0
FE001FC0
7E001FC0
7E001F80
7E001F80
3E001F80
3F001F00
1F003E00
1F803E00
0F807C00
03C0F000
00FFE000
00040000
ENDCHAR
STARTCHAR 00D6
ENCODING 214
SWIDTH 775 0
DWIDTH 28 0
BBX 26 32 1 -1
BITMAP
00E1C000
00F3E000
01F3E000
00F3C000
00618000
00000000
00000000
00FFC000
03E0F000
07807C00
0F803E00
1F003F00
3F001F00
3E001F80
7E001F80
7E001F80
7E001FC0
7E001FC0
FE001FC0
FE001FC0
FE001FC0
7E001FC0
7E001F80
7E001F80
3E001F80
3F001F00
1F003E00
1F803E00
0F807C00
03C0F000
00FFE000
00040000
ENDCHAR
STARTCHAR 00D7
ENCODING 215
SWIDTH 581 0
DWIDTH 21 0
BBX 15 15 3 5
BITMAP
C00C
E01E
703C
3878
1CF0
0FE0
07C0
0780
0FC0
1EE0
3C70
7838
F01C
E00E
4004
ENDCHAR
STARTCHAR 00D8
ENCODING 216
SWIDTH 775 0
DWIDTH 28 0
BBX 26 26 1 -1
BITMAP
00000100
00FFC300
03E0F200
07807C00
0F803E00
1F003E00
3F003F00
3E007F80
7E00DF80
7E019F80
7E011FC0
7E031FC0
FE061FC0
FE0C1FC0
7E181FC0
7E301FC0
7E601F80
7E401F80
3E801F80
3F801F00
1F003E00
1F803E00
0F807C00
1BC0F000
30FFC000
20040000
ENDCHAR
STARTCHAR 00D9
ENCODING 217
SWIDTH 720 0
DWIDTH 26 0
BBX 24 33 1 -1
BITMAP
00F800
007800
003800
003C00
001C00
000C00
000000
000000
FFF0FF
3F801C
1F8018
1F8008
1F8008
1F8008
1F8008
1F8008
1F8008
1F8008
1F8008
1F8008
1F8008
1F8008
1F8008
1F8008
1F8008
1F8018
1F8018
1F8018
0F8030
0FC060
07F0C0
01FF80
001800
ENDCHAR
STARTCHAR 00DA
ENCODING 218
SWIDTH 720 0
DWIDTH 26 0
BBX 24 33 1 -1
BITMAP
001F00
001E00
001C00
003800
003800
003000
000000
000000
FFF0FF
3F801C
1F8018
1F8008
1F8008
1F8008
1F8008
1F8008
1F8008
1F8008
1F8008
1F8008
1F8008
1F8008
1F8008
1F8008
1F8008
1F8018
1F8018
1F8018
0F8030
0FC060
07F0C0
01FF80
001800
ENDCHAR
STARTCHAR 00DB
ENCODING 219
SWIDTH 720 0
DWIDTH 26 0
BBX 24 33 1 -1
BITMAP
003E00
003E00
007F00
007780
00E380
01C1C0
010040
000000
FFF0FF
3F801C
1F8018
1F8008
1F8008
1F8008
1F8008
1F8008
1F8008
1F8008
1F8008
1F8008
1F8008
1F8008
1F8008
1F8008
1F8008
1F8018
1F8018
1F8018
0F8030
0FC060
07F0C0
01FF80
001800
ENDCHAR
STARTCHAR 00DC
ENCODING 220
SWIDTH 720 0
DWIDTH 26 0
BBX 24 32 1 -1
BITMAP
01C380
01E7C0
03E7C0
01E780
00C300
000000
000000
FFF0FF
3F801C
1F8018
1F8008
1F8008
1F8008
1F8008
1F8008
1F8008
1F8008
1F8008
1F8008
1F8008
1F8008
1F8008
1F8008
1F8008
1F8018
1F8018
1F8018
0F8030
0FC060
07F0C0
01FF80
001800
ENDCHAR
STARTCHAR 00DD
ENCODING 221
SWIDTH 720 0
DWIDTH 26 0
BBX 26 32 0 0
BITMAP
0003E000
0007C000
00078000
00070000
000E0000
000C0000
00000000
00000000
FFF03FC0
3F800700
1FC00600
0FC00400
0FE00C00
07E01800
07F01000
03F03000
03F82000
01F86000
00FC4000
00FC8000
007F8000
007F0000
003F0000
003F0000
003F0000
003F0000
003F0000
003F0000
003F0000
003F0000
003F0000
03FFF000
ENDCHAR
STARTCHAR 00DE
ENCODING 222
SWIDTH 609 0
DWIDTH 22 0
BBX 20 24 1 0
BITMAP
FFF000
1F8000
1F8000
1F8000
1F8000
1FE000
1FFF80
1F8FC0
1F87E0
1F83E0
1F83F0
1F83F0
1F83F0
1F83F0
1F83E0
1F87E0
1F8FC0
1FFF80
1FE000
1F8000
1F8000
1F8000
1F8000
FFF000
ENDCHAR
STARTCHAR 00DF
ENCODING 223
SWIDTH 553 0
DWIDTH 20 0
BBX 17 24 1 0
BITMAP
07FC00
1E1E00
1E1F00
3E1F00
3E1F00
3E1F00
3E1F00
3E1F00
3E1C00
3E7800
3E1E00
3E0F00
3E0F00
3E0F80
3E0F80
3E0F80
3E0F80
3E0F80
3E0F80
3E0F80
3EE780
3EE700
3EE600
FE7C00
ENDCHAR
STARTCHAR 00E0
ENCODING 224
SWIDTH 498 0
DWIDTH 18 0
BBX 15 25 2 0
BITMAP
3E00
1E00
0F00
0700
0300
0180
0000
0000
0FC0
39F0
70F8
F0F8
F8F8
F8F8
70F8
03F8
06F8
1CF8
78F8
F8F8
F0F8
F8F8
FFF8
FE7E
7C7C
ENDCHAR
STARTCHAR 00E1
ENCODING 225
SWIDTH 498 0
DWIDTH 18 0
BBX 15 25 2 0
BITMAP
01F0
01E0
03C0
0380
0300
0600
0000
0000
0FC0
39F0
70F8
F0F8
F8F8
F8F8
70F8
03F8
06F8
1CF8
78F8
F8F8
F0F8
F8F8
FFF8
FE7E
7C7C
ENDCHAR
STARTCHAR 00E2
ENCODING 226
SWIDTH 498 0
DWIDTH 18 0
BBX 15 25 2 0
BITMAP
0780
0FC0
0FC0
1CE0
3870
3030
0018
0000
0FC0
39F0
70F8
F0F8
F8F8
F8F8
70F8
03F8
06F8
1CF8
78F8
F8F8
F0F8
F8F8
FFF8
FE7E
7C7C
ENDCHAR
STARTCHAR 00E3
ENCODING 227
SWIDTH 498 0
DWIDTH 18 0
BBX 15 24 2 0
BITMAP
1E18
3FF8
3FF0
67F0
41C0
0000
0000
0FC0
39F0
70F8
F0F8
F8F8
F8F8
70F8
03F8
06F8
1CF8
78F8
F8F8
F0F8
F8F8
FFF8
FE7E
7C7C
ENDCHAR
STARTCHAR 00E4
ENCODING 228
SWIDTH 498 0
DWIDTH 18 0
BBX 15 24 2 0
BITMAP
3870
3CF8
7CF8
3CF0
1020
0000
0000
0FC0
39F0
70F8
F0F8
F8F8
F8F8
70F8
03F8
06F8
1CF8
78F8
F8F8
F0F8
F8F8
FFF8
FE7E
7C7C
ENDCHAR
STARTCHAR 00E5
ENCODING 229
SWIDTH 498 0
DWIDTH 18 0
BBX 15 25 2 0
BITMAP
0780
0CC0
1860
1860
1860
0CC0
0780
0000
0FC0
39F0
70F8
F0F8
F8F8
F8F8
70F8
03F8
06F8
1CF8
78F8
F8F8
F0F8
F8F8
FFF8
FE7E
7C7C
ENDCHAR
STARTCHAR 00E6
ENCODING 230
SWIDTH 720 0
DWIDTH 26 0
BBX 23 17 2 0
BITMAP
0FC3E0
3BE678
70FC3C
F07C3C
F87C1C
F87C1E
707C1E
01FFFE
077C00
1C7C00
387C00
787C00
F07E02
F83E04
FCFF8C
FF9FF8
7E0FF0
ENDCHAR
STARTCHAR 00E7
ENCODING 231
SWIDTH 443 0
DWIDTH 16 0
BBX 14 24 1 -7
BITMAP
07E0
0EF0
1C78
387C
787C
7838
7800
F800
F800
FC00
FC00
7C00
7E00
7E04
3F98
1FF0
0FE0
0100
0380
03C0
01C0
01C0
0380
0E00
ENDCHAR
STARTCHAR 00E8
ENCODING 232
SWIDTH 443 0
DWIDTH 16 0
BBX 14 25 1 0
BITMAP
1F00
0F00
0700
0780
0380
0180
0000
0000
07C0
0E70
1C78
3838
783C
783C
783C
FFFC
F800
F800
FC00
7C00
7C04
7E04
3F18
1FF0
0FE0
ENDCHAR
STARTCHAR 00E9
ENCODING 233
SWIDTH 443 0
DWIDTH 16 0
BBX 14 25 1 0
BITMAP
01F0
01E0
03C0
0380
0300
0600
0000
0000
07C0
0E70
1C78
3838
783C
783C
783C
FFFC
F800
F800
FC00
7C00
7C04
7E04
3F18
1FF0
0FE0
ENDCHAR
STARTCHAR 00EA
ENCODING 234
SWIDTH 443 0
DWIDTH 16 0
BBX 14 25 1 0
BITMAP
0780
0FC0
0FE0
1CE0
1870
3030
0018
0000
07C0
0E70
1C78
3838
783C
783C
783C
FFFC
F800
F800
FC00
7C00
7C04
7E04
3F18
1FF0
0FE0
ENDCHAR
STARTCHAR 00EB
ENCODING 235
SWIDTH 443 0
DWIDTH 16 0
BBX 14 24 1 0
BITMAP
1C70
3E78
3E78
3C78
0000
0000
0000
07C0
0E70
1C78
3838
783C
783C
783C
FFFC
F800
F800
FC00
7C00
7C04
7E04
3F18
1FF0
0FE0
ENDCHAR
STARTCHAR 00EC
ENCODING 236
SWIDTH 276 0
DWIDTH 10 0
BBX 10 25 0 0
BITMAP
F800
7800
3C00
1C00
0C00
0600
0000
0000
0000
7F00
1F00
1F00
1F00
1F00
1F00
1F00
1F00
1F00
1F00
1F00
1F00
1F00
1F00
1F00
7FC0
ENDCHAR
STARTCHAR 00ED
ENCODING 237
SWIDTH 276 0
DWIDTH 10 0
BBX 9 25 1 0
BITMAP
0F80
0F00
1E00
1C00
1800
3000
0000
0000
0000
FE00
3E00
3E00
3E00
3E00
3E00
3E00
3E00
3E00
3E00
3E00
3E00
3E00
3E00
3E00
FF80
ENDCHAR
STARTCHAR 00EE
ENCODING 238
SWIDTH 276 0
DWIDTH 10 0
BBX 11 25 0 0
BITMAP
1E00
3F00
3F80
7380
E1C0
C0C0
0060
0000
0000
7F00
1F00
1F00
1F00
1F00
1F00
1F00
1F00
1F00
1F00
1F00
1F00
1F00
1F00
1F00
7FC0
ENDCHAR
STARTCHAR 00EF
ENCODING 239
SWIDTH 276 0
DWIDTH 10 0
BBX 12 24 -1 0
BITMAP
70E0
79F0
F9F0
79E0
0040
0000
0000
0000
3F80
0F80
0F80
0F80
0F80
0F80
0F80
0F80
0F80
0F80
0F80
0F80
0F80
0F80
0F80
3FE0
ENDCHAR
STARTCHAR 00F0
ENCODING 240
SWIDTH 498 0
DWIDTH 18 0
BBX 16 24 1 0
BITMAP
0C18
0770
03C0
03C0
0CE0
30F0
0078
007C
0FFC
1C3E
3C3E
7C3E
7C3F
7C1F
FC1F
FC1F
FC1F
FC1F
7C3E
7C3E
7C3E
3C3C
1C38
0FF0
ENDCHAR
STARTCHAR 00F1
ENCODING 241
SWIDTH 553 0
DWIDTH 20 0
BBX 18 24 1 0
BITMAP
078600
0FFE00
0FFC00
19FC00
107000
000000
000000
003C00
7EFE00
3FBF00
3F1F00
3E1F00
3E1F00
3E1F00
3E1F00
3E1F00
3E1F00
3E1F00
3E1F00
3E1F00
3E1F00
3E1F00
3E1F80
FFBFC0
ENDCHAR
STARTCHAR 00F2
ENCODING 242
SWIDTH 498 0
DWIDTH 18 0
BBX 16 25 1 0
BITMAP
1F00
0F00
0780
0380
0180
00C0
0000
0000
07E0
0E78
1C3C
3C3C
7C3E
7C1E
7C1F
FC1F
FC1F
FC1F
FC1F
7C1E
7C3E
7C3E
3C3C
1C38
0FF0
ENDCHAR
STARTCHAR 00F3
ENCODING 243
SWIDTH 498 0
DWIDTH 18 0
BBX 16 25 1 0
BITMAP
00F8
00F0
01E0
01C0
0180
0300
0000
0000
07E0
0E78
1C3C
3C3C
7C3E
7C1E
7C1F
FC1F
FC1F
FC1F
FC1F
7C1E
7C3E
7C3E
3C3C
1C38
0FF0
ENDCHAR
STARTCHAR 00F4
ENCODING 244
SWIDTH 498 0
DWIDTH 18 0
BBX 16 25 1 0
BITMAP
03C0
07E0
07E0
0E70
1C38
1818
000C
0000
07E0
0E78
1C3C
3C3C
7C3E
7C1E
7C1F
FC1F
FC1F
FC1F
FC1F
7C1E
7C3E
7C3E
3C3C
1C38
0FF0
ENDCHAR
STARTCHAR 00F5
ENCODING 245
SWIDTH 498 0
DWIDTH 18 0
BBX 16 24 1 0
BITMAP
0F0C
1FFC
1FF8
33F8
20E0
0000
0000
07E0
0E78
1C3C
3C3C
7C3E
7C1E
7C1F
FC1F
FC1F
FC1F
FC1F
7C1E
7C3E
7C3E
3C3C
1C38
0FF0
ENDCHAR
STARTCHAR 00F6
ENCODING 246
SWIDTH 498 0
DWIDTH 18 0
BBX 16 24 1 0
BITMAP
1C38
1E7C
3E7C
1E78
0810
0000
0000
07E0
0E78
1C3C
3C3C
7C3E
7C1E
7C1F
FC1F
FC1F
FC1F
FC1F
7C1E
7C3E
7C3E
3C3C
1C38
0FF0
ENDCHAR
STARTCHAR 00F7
ENCODING 247
SWIDTH 553 0
DWIDTH 20 0
BBX 20 16 0 4
BITMAP
006000
00F000
00F000
006000
000000
000000
000000
FFFFF0
FFFFF0
000000
000000
000000
006000
00F000
00F000
006000
ENDCHAR
STARTCHAR 00F8
ENCODING 248
SWIDTH 498 0
DWIDTH 18 0
BBX 16 17 1 0
BITMAP
03E3
0E7E
1C3C
3C3E
7C1E
7C3E
7C7F
7CDF
7D9F
7D1F
7E1F
7C1F
7C1E
3C1E
3C3C
7E38
CFF0
ENDCHAR
STARTCHAR 00F9
ENCODING 249
SWIDTH 553 0
DWIDTH 20 0
BBX 17 25 2 0
BITMAP
1F0000
0F0000
078000
038000
018000
00C000
000000
000000
000000
FC7E00
7C3E00
7C3E00
7C3E00
7C3E00
7C3E00
7C3E00
7C3E00
7C3E00
7C3E00
7C3E00
7C3E00
7C3E00
7C7E00
3FFE00
1F3F80
ENDCHAR
STARTCHAR 00FA
ENCODING 250
SWIDTH 553 0
DWIDTH 20 0
BBX 17 25 2 0
BITMAP
00F800
00F000
01E000
01C000
018000
030000
000000
000000
000000
FC7E00
7C3E00
7C3E00
7C3E00
7C3E00
7C3E00
7C3E00
7C3E00
7C3E00
7C3E00
7C3E00
7C3E00
7C3E00
7C7E00
3FFE00
1F3F80
ENDCHAR
STARTCHAR 00FB
ENCODING 251
SWIDTH 553 0
DWIDTH 20 0
BBX 17 25 2 0
BITMAP
03C000
07E000
07E000
0E7000
1C3800
181800
000C00
000000
000000
FC7E00
7C3E00
7C3E00
7C3E00
7C3E00
7C3E00
7C3E00
7C3E00
7C3E00
7C3E00
7C3E00
7C3E00
7C3E00
7C7E00
3FFE00
1F3F80
ENDCHAR
STARTCHAR 00FC
ENCODING 252
SWIDTH 553 0
DWIDTH 20 0
BBX 17 24 2 0
BITMAP
1C3800
3E7C00
3E7C00
1E7800
081000
000000
000000
000000
FC7E00
7C3E00
7C3E00
7C3E00
7C3E00
7C3E00
7C3E00
7C3E00
7C3E00
7C3E00
7C3E00
7C3E00
7C3E00
7C7E00
3FFE00
1F3F80
ENDCHAR
STARTCHAR 00FD
ENCODING 253
SWIDTH 498 0
DWIDTH 18 0
BBX 16 33 1 -8
BITMAP
007C
0078
00F0
00E0
00C0
0180
0000
0000
0000
FF0F
7E06
3E04
3E04
3F0C
1F08
1F88
0F98
0F90
07D0
07E0
03E0
03E0
03C0
01C0
0180
0080
0180
0100
F100
F200
F200
FC00
3800
ENDCHAR
STARTCHAR 00FE
ENCODING 254
SWIDTH 553 0
DWIDTH 20 0
BBX 18 32 1 -8
BITMAP
FE0000
3E0000
3E0000
3E0000
3E0000
3E0000
3E0000
3E7800
3EFE00
3F1F00
3E1F00
3E0F80
3E0F80
3E0F80
3E0F80
3E0FC0
3E0FC0
3E0F80
3E0F80
3E0F80
3E0F80
3E0F00
3F9E00
3EFC00
3E0000
3E0000
3E0000
3E0000
3E0000
3E0000
7E0000
FF8000
ENDCHAR
STARTCHAR 00FF
ENCODING 255
SWIDTH 498 0
DWIDTH 18 0
BBX 16 32 1 -8
BITMAP
0E38
1E3C
1F7C
1E3C
0000
0000
0000
0000
FF0F
7E06
3E04
3E04
3F0C
1F08
1F88
0F98
0F90
07D0
07E0
03E0
03E0
03C0
01C0
0180
0080
0180
0100
F100
F200
F200
FC00
3800
ENDCHAR
STARTCHAR 0100
ENCODING 256
SWIDTH 720 0
DWIDTH 26 0
BBX 26 29 0 0
BITMAP
01FFE000
01FFE000
00000000
00000000
00000000
00040000
000C0000
000E0000
001E0000
001E0000
003F0000
003F0000
007F8000
005F8000
004FC000
00CFC000
0087E000
0187E000
0107E000
0303F000
0203F000
07FFF800
0401F800
0400FC00
0C00FC00
0800FE00
18007E00
38007F00
FF03FFC0
ENDCHAR
STARTCHAR 0101
ENCODING 257
SWIDTH 498 0
DWIDTH 18 0
BBX 15 22 2 0
BITMAP
7FF8
7FF8
7FF8
0000
0000
0FC0
39F0
70F8
F0F8
F8F8
F8F8
70F8
03F8
06F8
1CF8
78F8
F8F8
F0F8
F8F8
FFF8
FE7E
7C7C
ENDCHAR
STARTCHAR 0102
ENCODING 258
SWIDTH 720 0
DWIDTH 26 0
BBX 26 32 0 0
BITMAP
00804000
00C04000
00E1C000
007F8000
007F8000
001E0000
00000000
00000000
00040000
000C0000
000E0000
001E0000
001E0000
003F0000
003F0000
007F8000
005F8000
004FC000
00CFC000
0087E000
0187E000
0107E000
0303F000
0203F000
07FFF800
0401F800
0400FC00
0C00FC00
0800FE00
18007E00
38007F00
FF03FFC0
ENDCHAR
STARTCHAR 0103
ENCODING 259
SWIDTH 498 0
DWIDTH 18 0
BBX 15 24 2 0
BITMAP
3010
3870
1FF0
1FE0
07C0
0000
0000
0FC0
39F0
70F8
F0F8
F8F8
F8F8
70F8
03F8
06F8
1CF8
78F8
F8F8
F0F8
F8F8
FFF8
FE7E
7C7C
ENDCHAR
STARTCHAR 0104
ENCODING 260
SWIDTH 720 0
DWIDTH 26 0
BBX 26 32 0 -8
BITMAP
00040000
000C0000
000E0000
001E0000
001E0000
003F0000
003F0000
007F8000
005F8000
004FC000
00CFC000
0087E000
0187E000
0107E000
0303F000
0203F000
07FFF800
0401F800
0400FC00
0C00FC00
0800FE00
18007E00
38007F00
FF03FFC0
00001800
00003000
00007000
00007000
00007800
00007C00
00003F80
00001F00
ENDCHAR
STARTCHAR 0105
ENCODING 261
SWIDTH 498 0
DWIDTH 18 0
BBX 16 25 2 -8
BITMAP
0FC0
39F0
70F8
F0F8
F8F8
F8F8
70F8
03F8
06F8
1CF8
78F8
F8F8
F0F8
F8F8
FFF8
FE7E
7C7C
0030
00E0
00E0
00E0
00E0
00F8
007F
003E
ENDCHAR
STARTCHAR 0106
ENCODING 262
SWIDTH 720 0
DWIDTH 26 0
BBX 23 33 1 -1
BITMAP
0007C0
000780
000F00
000E00
000C00
001800
000000
000000
007FE2
01F07E
07E01E
0F800E
1F8006
1F0002
3F0002
7E0002
7E0000
7E0000
7E0000
FE0000
FE0000
FE0000
7E0000
7E0000
7E0000
7F0000
3F0000
1F0002
1F8006
0FC01C
03F070
00FFE0
000400
ENDCHAR
STARTCHAR 0107
ENCODING 263
SWIDTH 443 0
DWIDTH 16 0
BBX 14 25 1 0
BITMAP
00F8
01F0
01E0
01C0
0380
0300
0000
0000
07E0
0EF0
1C78
387C
787C
7838
7800
F800
F800
FC00
FC00
7C00
7E00
7E04
3F98
1FF0
0FE0
ENDCHAR
STARTCHAR 0108
ENCODING 264
SWIDTH 720 0
DWIDTH 26 0
BBX 23 34 1 -1
BITMAP
001E00
003F00
003F00
007F80
00E380
00C0C0
018040
000000
000000
007FE2
01F07E
07E01E
0F800E
1F8006
1F0002
3F0002
7E0002
7E0000
7E0000
7E0000
FE0000
FE0000
FE0000
7E0000
7E0000
7E0000
7F0000
3F0000
1F0002
1F8006
0FC01C
03F070
00FFE0
000400
ENDCHAR
STARTCHAR 0109
ENCODING 265
SWIDTH 443 0
DWIDTH 16 0
BBX 14 25 1 0
BITMAP
07C0
0FC0
0FE0
1EE0
1870
3030
0018
0000
07E0
0EF0
1C78
387C
787C
7838
7800
F800
F800
FC00
FC00
7C00
7E00
7E04
3F98
1FF0
0FE0
ENDCHAR
STARTCHAR 010A
ENCODING 266
SWIDTH 720 0
DWIDTH 26 0
BBX 23 32 1 -1
BITMAP
001E00
003E00
003E00
003E00
000C00
000000
000000
007FE2
01F07E
07E01E
0F800E
1F8006
1F0002
3F0002
7E0002
7E0000
7E0000
7E0000
FE0000
FE0000
FE0000
7E0000
7E0000
7E0000
7F0000
3F0000
1F0002
1F8006
0FC01C
03F070
00FFE0
000400
ENDCHAR
STARTCHAR 010B
ENCODING 267
SWIDTH 443 0
DWIDTH 16 0
BBX 14 24 1 0
BITMAP
0380
07C0
07C0
07C0
0380
0000
0000
07E0
0EF0
1C78
387C
787C
7838
7800
F800
F800
FC00
FC00
7C00
7E00
7E04
3F98
1FF0
0FE0
ENDCHAR
STARTCHAR 010C
ENCODING 268
SWIDTH 720 0
DWIDTH 26 0
BBX 23 33 1 -1
BITMAP
00C060
0060C0
0071C0
003F80
003F80
001F00
001E00
000000
007FE2
01F07E
07E01E
0F800E
1F8006
1F0002
3F0002
7E0002
7E0000
7E0000
7E0000
FE0000
FE0000
FE0000
7E0000
7E0000
7E0000
7F0000
3F0000
1F0002
1F8006
0FC01C
03F070
00FFE0
000400
ENDCHAR
STARTCHAR 010D
ENCODING 269
SWIDTH 443 0
DWIDTH 16 0
BBX 14 25 1 0
BITMAP
1808
1C38
0E70
0FF0
07E0
07E0
03C0
0000
07E0
0EF0
1C78
387C
787C
7838
7800
F800
F800
FC00
FC00
7C00
7E00
7E04
3F98
1FF0
0FE0
ENDCHAR
STARTCHAR 010E
ENCODING 270
SWIDTH 720 0
DWIDTH 26 0
BBX 25 32 0 0
BITMAP
0180C000
00C18000
00E38000
007F0000
007F0000
003E0000
003C0000
00000000
FFFF0000
1FCFE000
0FC1F000
0FC0F800
0FC07C00
0FC07E00
0FC07E00
0FC03F00
0FC03F00
0FC03F00
0FC03F80
0FC03F80
0FC03F80
0FC03F80
0FC03F00
0FC03F00
0FC03F00
0FC03E00
0FC07E00
0FC07C00
0FC0F800
0FC1F000
1FE7E000
FFFF0000
ENDCHAR
STARTCHAR 010F
ENCODING 271
SWIDTH 720 0
DWIDTH 26 0
BBX 25 24 1 0
BITMAP
007F1F00
001F1F80
001F3F80
001F1F80
001F1F80
001F0180
001F0180
079F0300
1FFF0200
3E3F0400
3C1F1800
7C1F0000
7C1F0000
7C1F0000
7C1F0000
FC1F0000
FC1F0000
7C1F0000
7C1F0000
7C1F0000
7C1F0000
3E3F8000
1FFFC000
0FDF8000
ENDCHAR
STARTCHAR 0110
ENCODING 272
SWIDTH 720 0
DWIDTH 26 0
BBX 24 24 1 0
BITMAP
FFFE00
1F9FC0
1F83E0
1F81F8
1F80F8
1F80FC
1F807E
1F807E
1F807E
1F807F
1F807F
FFFC7F
1F807F
1F807F
1F807F
1F807E
1F807E
1F807E
1F80FC
1F80F8
1F81F8
1F83E0
1FCFC0
FFFE00
ENDCHAR
STARTCHAR 0111
ENCODING 273
SWIDTH 553 0
DWIDTH 20 0
BBX 18 24 1 0
BITMAP
007F00
001F00
001F00
07FFC0
07FFC0
001F00
001F00
079F00
1FFF00
3E3F00
3C1F00
7C1F00
7C1F00
7C1F00
7C1F00
FC1F00
FC1F00
FC1F00
7C1F00
7C1F00
7C1F00
3E3F00
3FFFC0
0FDF00
ENDCHAR
STARTCHAR 0112
ENCODING 274
SWIDTH 664 0
DWIDTH 24 0
BBX 21 29 1 0
BITMAP
07FF80
07FF80
000000
000000
000000
FFFFF0
1F8FF0
1F8070
1F8030
1F8030
1F8010
1F8210
1F8200
1F8600
1F8600
1F8E00
1FFE00
1FFE00
1F8E00
1F8600
1F8600
1F8200
1F8208
1F8008
1F8018
1F8018
1F8078
1FC3F8
FFFFF0
ENDCHAR
STARTCHAR 0113
ENCODING 275
SWIDTH 443 0
DWIDTH 16 0
BBX 14 22 1 0
BITMAP
7FF8
7FF8
7FF8
0000
0000
07C0
0E70
1C78
3838
783C
783C
783C
FFFC
F800
F800
FC00
7C00
7C04
7E04
3F18
1FF0
0FE0
ENDCHAR
STARTCHAR 0114
ENCODING 276
SWIDTH 664 0
DWIDTH 24 0
BBX 21 32 1 0
BITMAP
020100
030300
03FF00
01FE00
00FC00
003000
000000
000000
FFFFF0
1F8FF0
1F8070
1F8030
1F8030
1F8010
1F8210
1F8200
1F8600
1F8600
1F8E00
1FFE00
1FFE00
1F8E00
1F8600
1F8600
1F8200
1F8208
1F8008
1F8018
1F8018
1F8078
1FC3F8
FFFFF0
ENDCHAR
STARTCHAR 0115
ENCODING 277
SWIDTH 443 0
DWIDTH 16 0
BBX 14 24 1 0
BITMAP
3010
3870
1FF0
1FE0
07C0
0000
0000
07C0
0E70
1C78
3838
783C
783C
783C
FFFC
F800
F800
FC00
7C00
7C04
7E04
3F18
1FF0
0FE0
ENDCHAR
STARTCHAR 0116
ENCODING 278
SWIDTH 664 0
DWIDTH 24 0
BBX 21 31 1 0
BITMAP
007800
007C00
00FC00
007800
003000
000000
000000
FFFFF0
1F8FF0
1F8070
1F8030
1F8030
1F8010
1F8210
1F8200
1F8600
1F8600
1F8E00
1FFE00
1FFE00
1F8E00
1F8600
1F8600
1F8200
1F8208
1F8008
1F8018
1F8018
1F8078
1FC3F8
FFFFF0
ENDCHAR
STARTCHAR 0117
ENCODING 279
SWIDTH 443 0
DWIDTH 16 0
BBX 14 24 1 0
BITMAP
0380
07C0
07C0
07C0
0380
0000
0000
07C0
0E70
1C78
3838
783C
783C
783C
FFFC
F800
F800
FC00
7C00
7C04
7E04
3F18
1FF0
0FE0
ENDCHAR
STARTCHAR 0118
ENCODING 280
SWIDTH 664 0
DWIDTH 24 0
BBX 21 32 1 -8
BITMAP
FFFFF0
1F8FF0
1F8070
1F8030
1F8030
1F8010
1F8210
1F8200
1F8600
1F8600
1F8E00
1FFE00
1FFE00
1F8E00
1F8600
1F8600
1F8200
1F8208
1F8008
1F8018
1F8018
1F8078
1FC3F8
FFFFF0
000100
000700
000700
000700
000700
000780
0003F8
0001F0
ENDCHAR
STARTCHAR 0119
ENCODING 281
SWIDTH 443 0
DWIDTH 16 0
BBX 14 25 1 -8
BITMAP
07C0
0E70
1C78
3838
783C
783C
783C
FFFC
F800
F800
FC00
7C00
7C04
7E04
3F18
1FF0
0FE0
0300
0600
0E00
0E00
0F00
0F80
07F0
03F0
ENDCHAR
STARTCHAR 011A
ENCODING 282
SWIDTH 664 0
DWIDTH 24 0
BBX 21 32 1 0
BITMAP
060300
030600
038E00
01FC00
01FC00
00F800
00F800
000000
FFFFF0
1F8FF0
1F8070
1F8030
1F8030
1F8010
1F8210
1F8200
1F8600
1F8600
1F8E00
1FFE00
1FFE00
1F8E00
1F8600
1F8600
1F8200
1F8208
1F8008
1F8018
1F8018
1F8078
1FC3F8
FFFFF0
ENDCHAR
STARTCHAR 011B
ENCODING 283
SWIDTH 443 0
DWIDTH 16 0
BBX 14 25 1 0
BITMAP
3018
1830
1C70
0FE0
0FE0
07C0
03C0
0000
07C0
0E70
1C78
3838
783C
783C
783C
FFFC
F800
F800
FC00
7C00
7C04
7E04
3F18
1FF0
0FE0
ENDCHAR
STARTCHAR 011C
ENCODING 284
SWIDTH 775 0
DWIDTH 28 0
BBX 27 34 1 -1
BITMAP
000F0000
001F0000
001F8000
003F8000
0039C000
0070E000
00C06000
00000000
00000000
00FFE100
01F03F00
07C01F00
0F800700
1F000700
3F000300
3F000100
7E000100
7E000000
7E000000
7E000000
7E000000
FE000000
7E000000
7E01FFE0
7E003F00
7E003F00
3E003F00
3F003F00
1F003F00
0F803F00
07C03F00
03E03F00
00FFF800
00060000
ENDCHAR
STARTCHAR 011D
ENCODING 285
SWIDTH 498 0
DWIDTH 18 0
BBX 16 33 1 -8
BITMAP
03C0
07E0
07F0
0E70
1C38
1818
000C
0000
07C0
1E7F
3C3F
7C3C
783E
F83E
F83E
783E
783C
3C3C
1C78
07E0
1800
3000
7800
7FF8
7FFE
7FFF
3FFF
3CFF
7007
E003
7006
3E3C
07E0
ENDCHAR
STARTCHAR 011E
ENCODING 286
SWIDTH 775 0
DWIDTH 28 0
BBX 27 33 1 -1
BITMAP
00802000
00C06000
0071E000
007FC000
003F8000
001F0000
00000000
00000000
00FFE100
01F03F00
07C01F00
0F800700
1F000700
3F000300
3F000100
7E000100
7E000000
7E000000
7E000000
7E000000
FE000000
7E000000
7E01FFE0
7E003F00
7E003F00
3E003F00
3F003F00
1F003F00
0F803F00
07C03F00
03E03F00
00FFF800
00060000
ENDCHAR
STARTCHAR 011F
ENCODING 287
SWIDTH 498 0
DWIDTH 18 0
BBX 16 32 1 -8
BITMAP
180C
1C38
0FF8
07F0
03E0
0000
0000
07C0
1E7F
3C3F
7C3C
783E
F83E
F83E
783E
783C
3C3C
1C78
07E0
1800
3000
7800
7FF8
7FFE
7FFF
3FFF
3CFF
7007
E003
7006
3E3C
07E0
ENDCHAR
STARTCHAR 0120
ENCODING 288
SWIDTH 775 0
DWIDTH 28 0
BBX 27 32 1 -1
BITMAP
001E0000
001F0000
001F0000
001E0000
000C0000
00000000
00000000
00FFE100
01F03F00
07C01F00
0F800700
1F000700
3F000300
3F000100
7E000100
7E000000
7E000000
7E000000
7E000000
FE000000
7E000000
7E01FFE0
7E003F00
7E003F00
3E003F00
3F003F00
1F003F00
0F803F00
07C03F00
03E03F00
00FFF800
00060000
ENDCHAR
STARTCHAR 0121
ENCODING 289
SWIDTH 498 0
DWIDTH 18 0
BBX 16 32 1 -8
BITMAP
03C0
03C0
07E0
03C0
03C0
0000
0000
07C0
1E7F
3C3F
7C3C
783E
F83E
F83E
783E
783C
3C3C
1C78
07E0
1800
3000
7800
7FF8
7FFE
7FFF
3FFF
3CFF
7007
E003
7006
3E3C
07E0
ENDCHAR
STARTCHAR 0122
ENCODING 290
SWIDTH 775 0
DWIDTH 28 0
BBX 27 31 1 -7
BITMAP
00FFE100
03F03F00
07C01F00
0F800700
1F000700
3F000300
3F000100
7E000100
7E000000
7E000000
7E000000
7E000000
FE000000
7E000000
7E01FFE0
7E003F00
7E003F00
3F003F00
3F003F00
1F003F00
0F803F00
07C03F00
03E03F00
00FFF800
000E0000
000E0000
001F0000
00070000
00070000
000E0000
00380000
ENDCHAR
STARTCHAR 0123
ENCODING 291
SWIDTH 498 0
DWIDTH 18 0
BBX 16 34 1 -8
BITMAP
00C0
0100
0200
0600
07C0
07C0
03C0
0000
0000
07C0
1E7F
3C3F
7C3C
783E
F83E
F83E
783E
7C3C
3C3C
1C78
07E0
1800
3000
7800
7FF8
7FFE
7FFF
3FFF
3CFF
6007
E007
7006
7E3C
0FE0
ENDCHAR
STARTCHAR 0124
ENCODING 292
SWIDTH 775 0
DWIDTH 28 0
BBX 26 33 1 0
BITMAP
001E0000
003F0000
003F0000
007B8000
00718000
00C0C000
01806000
00000000
00000000
FFF3FFC0
1F807F00
1F807E00
1F807E00
1F807E00
1F807E00
1F807E00
1F807E00
1F807E00
1F807E00
1F807E00
1FFFFE00
1F807E00
1F807E00
1F807E00
1F807E00
1F807E00
1F807E00
1F807E00
1F807E00
1F807E00
1F807E00
1F807F00
FFF3FFC0
ENDCHAR
STARTCHAR 0125
ENCODING 293
SWIDTH 553 0
DWIDTH 20 0
BBX 18 33 1 0
BITMAP
01E000
03F000
03F000
07B800
071800
0C0C00
180600
000000
000000
FE0000
3E0000
3E0000
3E0000
3E0000
3E0000
3E0000
3E3C00
3EFE00
3FBF00
3F1F00
3E1F00
3E1F00
3E1F00
3E1F00
3E1F00
3E1F00
3E1F00
3E1F00
3E1F00
3E1F00
3E1F00
3E1F80
FFBFC0
ENDCHAR
STARTCHAR 0126
ENCODING 294
SWIDTH 775 0
DWIDTH 28 0
BBX 26 24 1 0
BITMAP
FFF3FFC0
1F807F00
1F807E00
FFFFFFC0
FFFFFFC0
1F807E00
1F807E00
1F807E00
1F807E00
1F807E00
1F807E00
1FFFFE00
1F807E00
1F807E00
1F807E00
1F807E00
1F807E00
1F807E00
1F807E00
1F807E00
1F807E00
1F807E00
1F807E00
FFF3FFC0
ENDCHAR
STARTCHAR 0127
ENCODING 295
SWIDTH 553 0
DWIDTH 20 0
BBX 18 24 1 0
BITMAP
FE0000
3E0000
3E0000
FFF000
FFF000
3E0000
3E0000
3E3C00
3EFE00
3FBF00
3F1F00
3E1F00
3E1F00
3E1F00
3E1F00
3E1F00
3E1F00
3E1F00
3E1F00
3E1F00
3E1F00
3E1F00
3E1F80
FFBFC0
ENDCHAR
STARTCHAR 0128
ENCODING 296
SWIDTH 387 0
DWIDTH 14 0
BBX 12 31 1 0
BITMAP
3E10
7FF0
7FE0
CFE0
8180
0000
0000
FFF0
1F80
1F80
1F80
1F80
1F80
1F80
1F80
1F80
1F80
1F80
1F80
1F80
1F80
1F80
1F80
1F80
1F80
1F80
1F80
1F80
1F80
1F80
FFF0
ENDCHAR
STARTCHAR 0129
ENCODING 297
SWIDTH 276 0
DWIDTH 10 0
BBX 12 24 -1 0
BITMAP
3C30
7FF0
7FE0
CFE0
8380
0000
0000
0000
3F80
0F80
0F80
0F80
0F80
0F80
0F80
0F80
0F80
0F80
0F80
0F80
0F80
0F80
0F80
3FE0
ENDCHAR
STARTCHAR 012A
ENCODING 298
SWIDTH 387 0
DWIDTH 14 0
BBX 12 29 1 0
BITMAP
FFF0
FFF0
0000
0000
0000
FFF0
1F80
1F80
1F80
1F80
1F80
1F80
1F80
1F80
1F80
1F80
1F80
1F80
1F80
1F80
1F80
1F80
1F80
1F80
1F80
1F80
1F80
1F80
FFF0
ENDCHAR
STARTCHAR 012B
ENCODING 299
SWIDTH 276 0
DWIDTH 10 0
BBX 12 22 -1 0
BITMAP
FFF0
FFF0
FFF0
0000
0000
0000
3F80
0F80
0F80
0F80
0F80
0F80
0F80
0F80
0F80
0F80
0F80
0F80
0F80
0F80
0F80
3FE0
ENDCHAR
STARTCHAR 012C
ENCODING 300
SWIDTH 387 0
DWIDTH 14 0
BBX 12 32 1 0
BITMAP
4020
6060
7FE0
3FC0
1F80
0600
0000
0000
FFF0
1F80
1F80
1F80
1F80
1F80
1F80
1F80
1F80
1F80
1F80
1F80
1F80
1F80
1F80
1F80
1F80
1F80
1F80
1F80
1F80
1F80
1F80
FFF0
ENDCHAR
STARTCHAR 012D
ENCODING 301
SWIDTH 276 0
DWIDTH 10 0
BBX 10 24 0 0
BITMAP
8040
E1C0
7FC0
7F80
1E00
0000
0000
0000
7F00
1F00
1F00
1F00
1F00
1F00
1F00
1F00
1F00
1F00
1F00
1F00
1F00
1F00
1F00
7FC0
ENDCHAR
STARTCHAR 012E
ENCODING 302
SWIDTH 387 0
DWIDTH 14 0
BBX 12 32 1 -8
BITMAP
FFF0
1F80
1F80
1F80
1F80
1F80
1F80
1F80
1F80
1F80
1F80
1F80
1F80
1F80
1F80
1F80
1F80
1F80
1F80
1F80
1F80
1F80
1F80
FFF0
0C00
1800
1800
3C00
3C00
1E00
1FC0
07C0
ENDCHAR
STARTCHAR 012F
ENCODING 303
SWIDTH 276 0
DWIDTH 10 0
BBX 9 32 1 -8
BITMAP
3C00
3E00
7E00
3E00
1C00
0000
0000
0000
FE00
3E00
3E00
3E00
3E00
3E00
3E00
3E00
3E00
3E00
3E00
3E00
3E00
3E00
7E00
FF80
3000
7000
6000
F000
F000
7800
7F00
1F00
ENDCHAR
STARTCHAR 0130
ENCODING 304
SWIDTH 387 0
DWIDTH 14 0
BBX 12 31 1 0
BITMAP
0600
0F00
1F80
0F00
0F00
0000
0000
FFF0
1F80
1F80
1F80
1F80
1F80
1F80
1F80
1F80
1F80
1F80
1F80
1F80
1F80
1F80
1F80
1F80
1F80
1F80
1F80
1F80
1F80
1F80
FFF0
ENDCHAR
STARTCHAR 0131
ENCODING 305
SWIDTH 276 0
DWIDTH 10 0
BBX 9 16 1 0
BITMAP
FE00
3E00
3E00
3E00
3E00
3E00
3E00
3E00
3E00
3E00
3E00
3E00
3E00
3E00
3E00
FF80
ENDCHAR
STARTCHAR 0132
ENCODING 306
SWIDTH 830 0
DWIDTH 30 0
BBX 29 25 1 -1
BITMAP
FFF0FFF8
1F801FC0
1F801F80
1F801F80
1F801F80
1F801F80
1F801F80
1F801F80
1F801F80
1F801F80
1F801F80
1F801F80
1F801F80
1F801F80
1F801F80
1F801F80
1F801F80
1F8F1F80
1F9F1F80
1F9F1F80
1F9F1F80
1F8E1F00
1F8E1E00
FFF3FC00
00004000
ENDCHAR
STARTCHAR 0133
ENCODING 307
SWIDTH 553 0
DWIDTH 20 0
BBX 16 32 1 -8
BITMAP
3C0F
3E1F
7E1F
3E1F
1C0E
0000
0000
0000
FE3F
3E1F
3E1F
3E1F
3E1F
3E1F
3E1F
3E1F
3E1F
3E1F
3E1F
3E1F
3E1F
3E1F
3E1F
FF9F
001F
001F
001F
019F
03DF
03CE
01DC
00F8
ENDCHAR
STARTCHAR 0134
ENCODING 308
SWIDTH 498 0
DWIDTH 18 0
BBX 18 34 0 -1
BITMAP
007C00
007C00
00FE00
00EE00
01C700
018380
030180
000000
000000
07FFC0
00FE00
007E00
007E00
007C00
007C00
007C00
007C00
007C00
007C00
007C00
007C00
007C00
007C00
007C00
007C00
007C00
787C00
787C00
FC7C00
787C00
707800
38F800
1FE000
010000
ENDCHAR
STARTCHAR 0135
ENCODING 309
SWIDTH 332 0
DWIDTH 12 0
BBX 12 33 -1 -8
BITMAP
0780
0FC0
0FC0
1CE0
3870
3030
0000
0000
0000
1FC0
07C0
07C0
07C0
07C0
07C0
07C0
07C0
07C0
07C0
07C0
07C0
07C0
07C0
07C0
07C0
07C0
07C0
07C0
E7C0
E780
E780
7700
3C00
ENDCHAR
STARTCHAR 0136
ENCODING 310
SWIDTH 775 0
DWIDTH 28 0
BBX 28 31 1 -7
BITMAP
FFF07FC0
1F801F00
1F800C00
1F801800
1F803000
1F80E000
1F818000
1F830000
1F860000
1F8C0000
1FBE0000
1FFF0000
1FFF8000
1FBF8000
1F9FC000
1F8FE000
1F87F000
1F83F800
1F83F800
1F81FC00
1F80FE00
1F807F00
1F807F80
FFF1FFF0
00000000
001E0000
001E0000
000F0000
00060000
000E0000
00380000
ENDCHAR
STARTCHAR 0137
ENCODING 311
SWIDTH 553 0
DWIDTH 20 0
BBX 19 31 1 -7
BITMAP
FE0000
3E0000
3E0000
3E0000
3E0000
3E0000
3E0000
3E0000
3E1F80
3E0E00
3E0C00
3E1800
3E3000
3E6000
3EF000
3FF800
3FFC00
3E7C00
3E7E00
3E3F00
3E1F00
3E1F80
3E0FC0
FF9FE0
000000
01E000
01E000
00F000
006000
00E000
038000
ENDCHAR
STARTCHAR 0138
ENCODING 312
SWIDTH 553 0
DWIDTH 20 0
BBX 19 16 1 0
BITMAP
7F1FC0
3E0600
3E0C00
3E1800
3E3000
3E7000
3EF000
3FF800
3FFC00
3E7C00
3E7E00
3E3F00
3E1F00
3E1F80
3E0FC0
FF9FE0
ENDCHAR
STARTCHAR 0139
ENCODING 313
SWIDTH 664 0
DWIDTH 24 0
BBX 22 32 1 0
BITMAP
01F000
01E000
03C000
038000
030000
060000
000000
000000
FFF000
1F8000
1F8000
1F8000
1F8000
1F8000
1F8000
1F8000
1F8000
1F8000
1F8000
1F8000
1F8000
1F8000
1F8000
1F8000
1F8004
1F800C
1F8008
1F8008
1F8018
1F8038
1FC0F8
FFFFF8
ENDCHAR
STARTCHAR 013A
ENCODING 314
SWIDTH 276 0
DWIDTH 10 0
BBX 9 32 1 0
BITMAP
0F80
1F00
1E00
1C00
3800
3000
0000
0000
FE00
7E00
3E00
3E00
3E00
3E00
3E00
3E00
3E00
3E00
3E00
3E00
3E00
3E00
3E00
3E00
3E00
3E00
3E00
3E00
3E00
3E00
3E00
FF80
ENDCHAR
STARTCHAR 013B
ENCODING 315
SWIDTH 664 0
DWIDTH 24 0
BBX 22 31 1 -7
BITMAP
FFF000
1F8000
1F8000
1F8000
1F8000
1F8000
1F8000
1F8000
1F8000
1F8000
1F8000
1F8000
1F8000
1F8000
1F8000
1F8000
1F8004
1F800C
1F8008
1F8008
1F8018
1F8038
1FC0F8
FFFFF8
000000
007800
007800
003C00
001800
003800
00E000
ENDCHAR
STARTCHAR 013C
ENCODING 316
SWIDTH 276 0
DWIDTH 10 0
BBX 9 31 1 -7
BITMAP
FE00
7E00
3E00
3E00
3E00
3E00
3E00
3E00
3E00
3E00
3E00
3E00
3E00
3E00
3E00
3E00
3E00
3E00
3E00
3E00
3E00
3E00
3E00
FF80
0000
3C00
3C00
1E00
0C00
1C00
7000
ENDCHAR
STARTCHAR 013D
ENCODING 317
SWIDTH 664 0
DWIDTH 24 0
BBX 22 24 1 0
BITMAP
FFF0F0
1F81F8
1F81F8
1F81F8
1F80F8
1F8018
1F8018
1F8010
1F8030
1F8060
1F8180
1F8000
1F8000
1F8000
1F8000
1F8000
1F8004
1F800C
1F8008
1F8008
1F8018
1F8038
1FC0F8
FFFFF8
ENDCHAR
STARTCHAR 013E
ENCODING 318
SWIDTH 470 0
DWIDTH 17 0
BBX 15 24 1 0
BITMAP
FE3C
7E7E
3E7E
3E7E
3E3E
3E06
3E06
3E06
3E0C
3E18
3E60
3E00
3E00
3E00
3E00
3E00
3E00
3E00
3E00
3E00
3E00
3E00
3E00
FF80
ENDCHAR
STARTCHAR 013F
ENCODING 319
SWIDTH 664 0
DWIDTH 24 0
BBX 22 24 1 0
BITMAP
FFF000
1F8000
1F8000
1F8000
1F8000
1F8000
1F8000
1F8000
1F8000
1F8000
1F8380
1F8780
1F87C0
1F8780
1F8300
1F8000
1F8004
1F800C
1F8008
1F8008
1F8018
1F8038
1FC0F8
FFFFF8
ENDCHAR
STARTCHAR 0140
ENCODING 320
SWIDTH 387 0
DWIDTH 14 0
BBX 14 24 1 0
BITMAP
FE00
7E00
3E00
3E00
3E00
3E00
3E00
3E00
3E00
3E00
3E38
3E7C
3E7C
3E38
3E00
3E00
3E00
3E00
3E00
3E00
3E00
3E00
3E00
FF80
ENDCHAR
STARTCHAR 0141
ENCODING 321
SWIDTH 664 0
DWIDTH 24 0
BBX 22 24 1 0
BITMAP
FFF000
3F8000
1F8000
1F8000
1F8000
1F8000
1F8800
1F9800
1FB000
1FC000
1F8000
1F8000
1F8000
1F8000
3F8000
7F8000
DF8004
1F8004
1F8008
1F8008
1F8018
1F8038
1FC1F8
FFFFF8
ENDCHAR
STARTCHAR 0142
ENCODING 322
SWIDTH 276 0
DWIDTH 10 0
BBX 9 24 1 0
BITMAP
FE00
7E00
3E00
3E00
3E00
3E00
3E00
3E00
3E80
3F00
3E00
3E00
3E00
7E00
FE00
BE00
3E00
3E00
3E00
3E00
3E00
3E00
3E00
FF80
ENDCHAR
STARTCHAR 0143
ENCODING 323
SWIDTH 720 0
DWIDTH 26 0
BBX 24 33 1 -1
BITMAP
000F80
001F00
001E00
001C00
003800
003000
000000
000000
FF00FF
3F801C
1FC008
1FE008
1FF008
17F008
13F808
11FC08
11FE08
10FE08
107F08
103F88
101FC8
100FE8
100FE8
1007F8
1003F8
1001F8
1000F8
1000F8
100078
180038
380018
FF0008
000008
ENDCHAR
STARTCHAR 0144
ENCODING 324
SWIDTH 553 0
DWIDTH 20 0
BBX 18 25 1 0
BITMAP
007C00
00F800
00F000
00E000
01C000
018000
000000
000000
003C00
7EFE00
3FBF00
3F1F00
3E1F00
3E1F00
3E1F00
3E1F00
3E1F00
3E1F00
3E1F00
3E1F00
3E1F00
3E1F00
3E1F00
3E1F80
FFBFC0
ENDCHAR
STARTCHAR 0145
ENCODING 325
SWIDTH 720 0
DWIDTH 26 0
BBX 24 31 1 -7
BITMAP
FF00FF
3F801C
1FC008
1FE008
1FF008
17F008
13F808
11FC08
11FE08
10FE08
107F08
103F88
101FC8
100FE8
100FE8
1007F8
1003F8
1001F8
1000F8
1000F8
100078
180038
380018
FF0008
000008
003C00
003C00
001E00
000C00
001C00
007000
ENDCHAR
STARTCHAR 0146
ENCODING 326
SWIDTH 553 0
DWIDTH 20 0
BBX 18 24 1 -7
BITMAP
003C00
7EFE00
3FBF00
3F1F00
3E1F00
3E1F00
3E1F00
3E1F00
3E1F00
3E1F00
3E1F00
3E1F00
3E1F00
3E1F00
3E1F00
3E1F80
FFBFC0
000000
01E000
01E000
00F000
006000
00E000
038000
ENDCHAR
STARTCHAR 0147
ENCODING 327
SWIDTH 720 0
DWIDTH 26 0
BBX 24 33 1 -1
BITMAP
0180C0
01C180
00E700
007F00
007E00
003E00
003C00
000000
FF00FF
3F801C
1FC008
1FE008
1FF008
17F008
13F808
11FC08
11FE08
10FE08
107F08
103F88
101FC8
100FE8
100FE8
1007F8
1003F8
1001F8
1000F8
1000F8
100078
180038
380018
FF0008
000008
ENDCHAR
STARTCHAR 0148
ENCODING 328
SWIDTH 553 0
DWIDTH 20 0
BBX 18 25 1 0
BITMAP
0C0400
0E1C00
073800
07F800
03F000
03F000
01E000
000000
003C00
7EFE00
3FBF00
3F1F00
3E1F00
3E1F00
3E1F00
3E1F00
3E1F00
3E1F00
3E1F00
3E1F00
3E1F00
3E1F00
3E1F00
3E1F80
FFBFC0
ENDCHAR
STARTCHAR 0149
ENCODING 329
SWIDTH 720 0
DWIDTH 26 0
BBX 26 24 3 0
BITMAP
78000000
FC000000
FC000000
FC000000
7C000000
0C000000
0C000000
08007C00
18FCFE00
307DBE00
C03E1F00
003E1F00
003C1F00
003C1F00
003C1F00
003C1F00
003C1F00
003C1F00
003C1F00
003C1F00
003E1F00
003E1F00
007E1F00
00FF7FC0
ENDCHAR
STARTCHAR 014A
ENCODING 330
SWIDTH 775 0
DWIDTH 28 0
BBX 25 25 1 -1
BITMAP
FF87E000
1F98F800
1FB03C00
1FA03C00
1FC01E00
1FC01F00
1F801F00
1F801F00
1F801F80
1F801F80
1F801F80
1F801F80
1F801F80
1F801F80
1F801F80
1F801F80
1F801F80
1F801F00
1F801F00
1F871E00
1F879E00
1F879C00
1F879800
FFF3F000
00008000
ENDCHAR
STARTCHAR 014B
ENCODING 331
SWIDTH 553 0
DWIDTH 20 0
BBX 16 25 1 -8
BITMAP
003C
7EFE
3FBF
3F1F
3E1F
3E1F
3E1F
3E1F
3E1F
3E1F
3E1F
3E1F
3E1F
3E1F
3E1F
3E1F
FF9F
001F
001F
001F
019F
039F
039E
01DE
00F8
ENDCHAR
STARTCHAR 014C
ENCODING 332
SWIDTH 775 0
DWIDTH 28 0
BBX 26 30 1 -1
BITMAP
01FFE000
01FFE000
00000000
00000000
00000000
00FFC000
03E0F000
07807C00
0F803E00
1F003F00
3F001F00
3E001F80
7E001F80
7E001F80
7E001FC0
7E001FC0
FE001FC0
FE001FC0
FE001FC0
7E001FC0
7E001F80
7E001F80
3E001F80
3F001F00
1F003E00
1F803E00
0F807C00
03C0F000
00FFE000
00040000
ENDCHAR
STARTCHAR 014D
ENCODING 333
SWIDTH 498 0
DWIDTH 18 0
BBX 16 22 1 0
BITMAP
3FFC
3FFC
3FFC
0000
0000
07E0
0E78
1C3C
3C3C
7C3E
7C1E
7C1F
FC1F
FC1F
FC1F
FC1F
7C1E
7C3E
7C3E
3C3C
1C38
0FF0
ENDCHAR
STARTCHAR 014E
ENCODING 334
SWIDTH 775 0
DWIDTH 28 0
BBX 26 33 1 -1
BITMAP
00804000
00C0C000
00FFC000
007F8000
003F0000
000C0000
00000000
00000000
00FFC000
03E0F000
07807C00
0F803E00
1F003F00
3F001F00
3E001F80
7E001F80
7E001F80
7E001FC0
7E001FC0
FE001FC0
FE001FC0
FE001FC0
7E001FC0
7E001F80
7E001F80
3E001F80
3F001F00
1F003E00
1F803E00
0F807C00
03C0F000
00FFE000
00040000
ENDCHAR
STARTCHAR 014F
ENCODING 335
SWIDTH 498 0
DWIDTH 18 0
BBX 16 24 1 0
BITMAP
1008
1C38
0FF8
0FF0
03E0
0000
0000
07E0
0E78
1C3C
3C3C
7C3E
7C1E
7C1F
FC1F
FC1F
FC1F
FC1F
7C1E
7C3E
7C3E
3C3C
1C38
0FF0
ENDCHAR
STARTCHAR 0150
ENCODING 336
SWIDTH 775 0
DWIDTH 28 0
BBX 26 33 1 -1
BITMAP
001C7000
001CE000
0038E000
0030C000
00318000
00618000
00000000
00000000
00FFC000
03E0F000
07807C00
0F803E00
1F003F00
3F001F00
3E001F80
7E001F80
7E001F80
7E001FC0
7E001FC0
FE001FC0
FE001FC0
FE001FC0
7E001FC0
7E001F80
7E001F80
3E001F80
3F001F00
1F003E00
1F803E00
0F807C00
03C0F000
00FFE000
00040000
ENDCHAR
STARTCHAR 0151
ENCODING 337
SWIDTH 498 0
DWIDTH 18 0
BBX 16 25 1 0
BITMAP
03CE
039C
071C
0618
0630
0C30
0000
0000
07E0
0E78
1C3C
3C3C
7C3E
7C1E
7C1F
FC1F
FC1F
FC1F
FC1F
7C1E
7C3E
7C3E
3C3C
1C38
0FF0
ENDCHAR
STARTCHAR 0152
ENCODING 338
SWIDTH 996 0
DWIDTH 36 0
BBX 33 24 1 0
BITMAP
00FFFFFF00
03E3FFFF00
0781FC0F00
0F80FC0700
1F00FC0300
3F00FC0100
3E00FC2100
7E00FC2000
7E00FC2000
7E00FC6000
FE00FCE000
FE00FFE000
FE00FFE000
FE00FCE000
7E00FC6000
7E00FC2000
7E00FC2000
7E00FC2080
3E00FC0080
1F00FC0180
1F00FC0180
0F81FC0780
03E1FE3F80
00FFFFFF00
ENDCHAR
STARTCHAR 0153
ENCODING 339
SWIDTH 720 0
DWIDTH 26 0
BBX 24 17 1 0
BITMAP
03E0F0
0E73BC
1C3F1E
3C3F0E
7C1F0F
7C1E0F
781E0F
F81FFF
F81E00
F81F00
F81F00
781F00
7C1F01
7C3F81
3C3FC6
1C3FFC
0FF3F8
ENDCHAR
STARTCHAR 0154
ENCODING 340
SWIDTH 720 0
DWIDTH 26 0
BBX 25 32 1 0
BITMAP
000F8000
001F0000
001E0000
001C0000
00380000
00300000
00000000
00000000
FFFF0000
3F9FE000
1F83F000
1F81F800
1F80F800
1F80FC00
1F80FC00
1F80FC00
1F80F800
1F81F800
1F81F000
1F87E000
1FFF8000
1FBF8000
1F9FC000
1F8FC000
1F87E000
1F87F000
1F83F800
1F81F800
1F81FC00
1F80FE00
1F807F00
FFF07F80
ENDCHAR
STARTCHAR 0155
ENCODING 341
SWIDTH 443 0
DWIDTH 16 0
BBX 14 25 1 0
BITMAP
01F0
01E0
03C0
0380
0300
0600
0000
0000
001C
7E7C
3EFC
3EFC
3F1C
3F00
3E00
3E00
3E00
3E00
3E00
3E00
3E00
3E00
3E00
3E00
FF80
ENDCHAR
STARTCHAR 0156
ENCODING 342
SWIDTH 720 0
DWIDTH 26 0
BBX 25 31 1 -7
BITMAP
FFFF0000
3F9FE000
1F83F000
1F81F800
1F80F800
1F80FC00
1F80FC00
1F80FC00
1F80F800
1F81F800
1F81F000
1F87E000
1FFF8000
1FBF8000
1F9FC000
1F8FC000
1F87E000
1F87F000
1F83F800
1F81F800
1F81FC00
1F80FE00
1F807F00
FFF07F80
00000000
003C0000
003E0000
000E0000
000E0000
001C0000
00700000
ENDCHAR
STARTCHAR 0157
ENCODING 343
SWIDTH 443 0
DWIDTH 16 0
BBX 14 24 1 -7
BITMAP
001C
7E7C
3EFC
3EFC
3F1C
3F00
3E00
3E00
3E00
3E00
3E00
3E00
3E00
3E00
3E00
3E00
FF80
0000
0780
0780
03C0
0180
0380
0E00
ENDCHAR
STARTCHAR 0158
ENCODING 344
SWIDTH 720 0
DWIDTH 26 0
BBX 25 32 1 0
BITMAP
01808000
01C38000
00E70000
00FF0000
007E0000
007E0000
003C0000
00000000
FFFF0000
3F9FE000
1F83F000
1F81F800
1F80F800
1F80FC00
1F80FC00
1F80FC00
1F80F800
1F81F800
1F81F000
1F87E000
1FFF8000
1FBF8000
1F9FC000
1F8FC000
1F87E000
1F87F000
1F83F800
1F81F800
1F81FC00
1F80FE00
1F807F00
FFF07F80
ENDCHAR
STARTCHAR 0159
ENCODING 345
SWIDTH 443 0
DWIDTH 16 0
BBX 14 25 1 0
BITMAP
3018
1830
1CF0
0FE0
0FC0
07C0
0780
0000
001C
7E7C
3EFC
3EFC
3F1C
3F00
3E00
3E00
3E00
3E00
3E00
3E00
3E00
3E00
3E00
3E00
FF80
ENDCHAR
STARTCHAR 015A
ENCODING 346
SWIDTH 553 0
DWIDTH 20 0
BBX 17 33 2 -1
BITMAP
00F800
01F000
01E000
01C000
038000
030000
000000
000000
1FE200
383E00
700E00
700600
F00600
F00200
F80200
FC0200
FF0000
7FC000
7FF000
3FFC00
1FFE00
07FF00
01FF00
007F00
801F80
800F80
C00F80
C00700
E00700
F00E00
F81C00
8FF800
808000
ENDCHAR
STARTCHAR 015B
ENCODING 347
SWIDTH 387 0
DWIDTH 14 0
BBX 12 25 1 0
BITMAP
03E0
07C0
0780
0700
0E00
0C00
0000
0000
1F20
39E0
70E0
7060
F820
FC20
7F00
7F80
3FC0
1FE0
0FF0
03F0
41F0
40F0
60E0
70E0
7FC0
ENDCHAR
STARTCHAR 015C
ENCODING 348
SWIDTH 553 0
DWIDTH 20 0
BBX 17 34 2 -1
BITMAP
03C000
07E000
07E000
0FF000
0E3000
181800
300C00
000000
000000
1FE200
383E00
700E00
700600
F00600
F00200
F80200
FC0200
FF0000
7FC000
7FF000
3FFC00
1FFE00
07FF00
01FF00
007F00
801F80
800F80
C00F80
C00700
E00700
F00E00
F81C00
8FF800
808000
ENDCHAR
STARTCHAR 015D
ENCODING 349
SWIDTH 387 0
DWIDTH 14 0
BBX 12 25 1 0
BITMAP
0F00
1F80
1FC0
39C0
70E0
6060
0030
0000
1F20
39E0
70E0
7060
F820
FC20
7F00
7F80
3FC0
1FE0
0FF0
03F0
41F0
40F0
60E0
70E0
7FC0
ENDCHAR
STARTCHAR 015E
ENCODING 350
SWIDTH 553 0
DWIDTH 20 0
BBX 17 31 2 -7
BITMAP
1FE200
383E00
700E00
700600
F00600
F00200
F80200
FC0200
FF0000
7FC000
7FF000
3FFC00
1FFE00
07FF00
01FF00
007F00
801F80
800F80
C00F80
C00700
E00700
F00E00
F81C00
8FF800
808000
01C000
03E000
00E000
00E000
01C000
070000
ENDCHAR
STARTCHAR 015F
ENCODING 351
SWIDTH 387 0
DWIDTH 14 0
BBX 12 24 1 -7
BITMAP
1F20
39E0
70E0
7060
F820
FC20
7F00
7F80
3FC0
1FE0
0FF0
03F0
41F0
40F0
60E0
70E0
7FC0
0600
0600
0F00
0700
0700
0700
3C00
ENDCHAR
STARTCHAR 0160
ENCODING 352
SWIDTH 553 0
DWIDTH 20 0
BBX 17 33 2 -1
BITMAP
101800
1C3800
0E7000
0FF000
07E000
07C000
03C000
000000
1FE200
383E00
700E00
700600
F00600
F00200
F80200
FC0200
FF0000
7FC000
7FF000
3FFC00
1FFE00
07FF00
01FF00
007F00
801F80
800F80
C00F80
C00700
E00700
F00E00
F81C00
8FF800
808000
ENDCHAR
STARTCHAR 0161
ENCODING 353
SWIDTH 387 0
DWIDTH 14 0
BBX 12 25 1 0
BITMAP
4060
60E0
39C0
3FC0
1F80
1F00
0F00
0000
1F20
39E0
70E0
7060
F820
FC20
7F00
7F80
3FC0
1FE0
0FF0
03F0
41F0
40F0
60E0
70E0
7FC0
ENDCHAR
STARTCHAR 0162
ENCODING 354
SWIDTH 664 0
DWIDTH 24 0
BBX 22 33 1 -9
BITMAP
FFFFFC
FCFCFC
E0FC1C
C0FC0C
C0FC0C
80FC04
80FC04
00FC00
00FC00
00FC00
00FC00
00FC00
00FC00
00FC00
00FC00
00FC00
00FC00
00FC00
00FC00
00FC00
00FC00
00FC00
00FC00
07FF80
000000
000000
007800
00F800
007800
000800
001800
003000
004000
ENDCHAR
STARTCHAR 0163
ENCODING 355
SWIDTH 332 0
DWIDTH 12 0
BBX 11 32 1 -9
BITMAP
0200
0200
0600
0E00
1E00
3E00
7E00
FFE0
3E00
3E00
3E00
3E00
3E00
3E00
3E00
3E00
3E00
3E00
3E00
3E00
3E40
1FC0
0F80
0000
0000
1E00
1F00
1F00
0300
0200
0400
1800
ENDCHAR
STARTCHAR 0164
ENCODING 356
SWIDTH 664 0
DWIDTH 24 0
BBX 22 32 1 0
BITMAP
030100
038700
01CE00
01FE00
00FC00
00FC00
007800
000000
FFFFFC
FCFCFC
E0FC1C
C0FC0C
C0FC0C
80FC04
80FC04
00FC00
00FC00
00FC00
00FC00
00FC00
00FC00
00FC00
00FC00
00FC00
00FC00
00FC00
00FC00
00FC00
00FC00
00FC00
00FC00
07FF80
ENDCHAR
STARTCHAR 0165
ENCODING 357
SWIDTH 526 0
DWIDTH 19 0
BBX 17 24 1 0
BITMAP
000F00
021F80
021F80
061F80
0E0F80
1E0180
3E0180
7E0100
FFE300
3E0600
3E1800
3E0000
3E0000
3E0000
3E0000
3E0000
3E0000
3E0000
3E0000
3E0000
3E0000
3E4000
1FC000
0F8000
ENDCHAR
STARTCHAR 0166
ENCODING 358
SWIDTH 664 0
DWIDTH 24 0
BBX 22 24 1 0
BITMAP
FFFFFC
FCFCFC
E0FC1C
C0FC0C
C0FC04
80FC04
80FC04
00FC00
00FC00
00FC00
00FC00
1FFFE0
00FC00
00FC00
00FC00
00FC00
00FC00
00FC00
00FC00
00FC00
00FC00
00FC00
00FC00
07FF80
ENDCHAR
STARTCHAR 0167
ENCODING 359
SWIDTH 332 0
DWIDTH 12 0
BBX 11 23 1 0
BITMAP
0200
0200
0600
0E00
1E00
3E00
7E00
FFE0
3E00
3E00
3E00
3E00
FFE0
FFE0
3E00
3E00
3E00
3E00
3E00
3E00
3E40
3FC0
0F80
ENDCHAR
STARTCHAR 0168
ENCODING 360
SWIDTH 720 0
DWIDTH 26 0
BBX 24 32 1 -1
BITMAP
00F840
01FFC0
01FFC0
013F80
010600
000000
000000
FFF0FF
3F801C
1F8018
1F8008
1F8008
1F8008
1F8008
1F8008
1F8008
1F8008
1F8008
1F8008
1F8008
1F8008
1F8008
1F8008
1F8008
1F8018
1F8018
1F8018
0F8030
0FC060
07F0C0
01FF80
001800
ENDCHAR
STARTCHAR 0169
ENCODING 361
SWIDTH 553 0
DWIDTH 20 0
BBX 17 24 2 0
BITMAP
0F0400
1FFC00
1FF800
13F800
20E000
000000
000000
000000
FC7E00
7C3E00
7C3E00
7C3E00
7C3E00
7C3E00
7C3E00
7C3E00
7C3E00
7C3E00
7C3E00
7C3E00
7C3E00
7C7E00
3FFE00
1F3F80
ENDCHAR
STARTCHAR 016A
ENCODING 362
SWIDTH 720 0
DWIDTH 26 0
BBX 24 30 1 -1
BITMAP
03FF80
03FF80
000000
000000
000000
FFF0FF
3F801C
1F8018
1F8008
1F8008
1F8008
1F8008
1F8008
1F8008
1F8008
1F8008
1F8008
1F8008
1F8008
1F8008
1F8008
1F8008
1F8018
1F8018
1F8018
0F8030
0FC060
07F0C0
01FF80
001800
ENDCHAR
STARTCHAR 016B
ENCODING 363
SWIDTH 553 0
DWIDTH 20 0
BBX 17 22 2 0
BITMAP
3FFC00
3FFC00
3FFC00
000000
000000
000000
FC7E00
7C3E00
7C3E00
7C3E00
7C3E00
7C3E00
7C3E00
7C3E00
7C3E00
7C3E00
7C3E00
7C3E00
7C3E00
7C7E00
3FFE00
1F3F80
ENDCHAR
STARTCHAR 016C
ENCODING 364
SWIDTH 720 0
DWIDTH 26 0
BBX 24 33 1 -1
BITMAP
010080
018180
01FF80
00FF00
007E00
001800
000000
000000
FFF0FF
3F801C
1F8018
1F8008
1F8008
1F8008
1F8008
1F8008
1F8008
1F8008
1F8008
1F8008
1F8008
1F8008
1F8008
1F8008
1F8008
1F8018
1F8018
1F8018
0F8030
0FC060
07F0C0
01FF80
001800
ENDCHAR
STARTCHAR 016D
ENCODING 365
SWIDTH 553 0
DWIDTH 20 0
BBX 17 24 2 0
BITMAP
100800
1C3800
0FF800
0FF000
03E000
000000
000000
000000
FC7E00
7C3E00
7C3E00
7C3E00
7C3E00
7C3E00
7C3E00
7C3E00
7C3E00
7C3E00
7C3E00
7C3E00
7C3E00
7C7E00
3FFE00
1F3F80
ENDCHAR
STARTCHAR 016E
ENCODING 366
SWIDTH 720 0
DWIDTH 26 0
BBX 24 34 1 -1
BITMAP
001C00
003E00
006300
004100
004100
006300
003E00
000800
000000
FFF0FF
3F801C
1F8018
1F8008
1F8008
1F8008
1F8008
1F8008
1F8008
1F8008
1F8008
1F8008
1F8008
1F8008
1F8008
1F8008
1F8008
1F8018
1F8018
1F8018
0F8030
0FC060
07F0C0
01FF80
001800
ENDCHAR
STARTCHAR 016F
ENCODING 367
SWIDTH 553 0
DWIDTH 20 0
BBX 17 25 2 0
BITMAP
03C000
066000
0C3000
0C3000
043000
066000
03C000
000000
000000
FC7E00
7C3E00
7C3E00
7C3E00
7C3E00
7C3E00
7C3E00
7C3E00
7C3E00
7C3E00
7C3E00
7C3E00
7C3E00
7C7E00
3FFE00
1F3F80
ENDCHAR
STARTCHAR 0170
ENCODING 368
SWIDTH 720 0
DWIDTH 26 0
BBX 24 33 1 -1
BITMAP
0039E0
0071C0
007180
006380
00C300
008200
000000
000000
FFF0FF
3F801C
1F8018
1F8008
1F8008
1F8008
1F8008
1F8008
1F8008
1F8008
1F8008
1F8008
1F8008
1F8008
1F8008
1F8008
1F8008
1F8018
1F8018
1F8018
0F8030
0FC060
07F0C0
01FF80
001800
ENDCHAR
STARTCHAR 0171
ENCODING 369
SWIDTH 553 0
DWIDTH 20 0
BBX 17 25 2 0
BITMAP
03CE00
039C00
071C00
061800
063000
0C3000
000000
000000
000000
FC7E00
7C3E00
7C3E00
7C3E00
7C3E00
7C3E00
7C3E00
7C3E00
7C3E00
7C3E00
7C3E00
7C3E00
7C3E00
7C7E00
3FFE00
1F3F80
ENDCHAR
STARTCHAR 0172
ENCODING 370
SWIDTH 720 0
DWIDTH 26 0
BBX 25 32 1 -8
BITMAP
FFF0FF80
1F801C00
1F801800
1F800800
1F800800
1F800800
1F800800
1F800800
1F800800
1F800800
1F800800
1F800800
1F800800
1F800800
1F800800
1F800800
1F800800
1F800800
1F801800
1F801800
0F803000
0FC07000
07F0E000
01FF8000
000C0000
00180000
00380000
003C0000
003C0000
003E0000
001FC000
000FC000
ENDCHAR
STARTCHAR 0173
ENCODING 371
SWIDTH 553 0
DWIDTH 20 0
BBX 17 24 2 -8
BITMAP
FC7E00
7C3E00
7C3E00
7C3E00
7C3E00
7C3E00
7C3E00
7C3E00
7C3E00
7C3E00
7C3E00
7C3E00
7C3E00
7C7E00
3FFE00
1F3F80
003000
007000
007000
007000
007000
007C00
003F80
001F00
ENDCHAR
STARTCHAR 0174
ENCODING 372
SWIDTH 996 0
DWIDTH 36 0
BBX 36 34 0 -1
BITMAP
0000F00000
0001F80000
0001F80000
0003DC0000
00038C0000
0006060000
000C030000
0000000000
0000000000
FFE7FF83F0
3F81FC00C0
3F80FC00C0
1F80FC0080
1F807E0080
0FC07E0100
0FC03F0100
07E03F0300
07E07F0200
07E05F8200
03F05F8600
03F0CFC400
01F88FCC00
01F98FC800
01F907E800
00FD07F800
00FF07F000
007E03F000
007E03F000
007C01E000
003C01E000
003801C000
001800C000
001800C000
0010000000
ENDCHAR
STARTCHAR 0175
ENCODING 373
SWIDTH 720 0
DWIDTH 26 0
BBX 24 25 1 0
BITMAP
003C00
007E00
007F00
00E700
01C380
018180
0000C0
000000
000000
FE3F8F
7C1F06
7E1F86
3E1F84
3E1F84
1F3FC8
1F27C8
1F27D8
0FE3F0
0FC3F0
0FC3F0
0781E0
0781E0
0381E0
0300C0
0300C0
ENDCHAR
STARTCHAR 0176
ENCODING 374
SWIDTH 720 0
DWIDTH 26 0
BBX 26 33 0 0
BITMAP
001F0000
001F0000
003F8000
003BC000
0071C000
0060E000
00C02000
00000000
00000000
FFF03FC0
3F800700
1FC00600
0FC00400
0FE00C00
07E01800
07F01000
03F03000
03F82000
01F86000
00FC4000
00FC8000
007F8000
007F0000
003F0000
003F0000
003F0000
003F0000
003F0000
003F0000
003F0000
003F0000
003F0000
03FFF000
ENDCHAR
STARTCHAR 0177
ENCODING 375
SWIDTH 498 0
DWIDTH 18 0
BBX 16 33 1 -8
BITMAP
03C0
07E0
07F0
0E70
1C38
1818
000C
0000
0000
FF0F
7E06
3E04
3E04
3F0C
1F08
1F88
0F98
0F90
07D0
07E0
03E0
03E0
03C0
01C0
0180
0080
0180
0100
F100
F200
F200
FC00
3800
ENDCHAR
STARTCHAR 0178
ENCODING 376
SWIDTH 720 0
DWIDTH 26 0
BBX 26 31 0 0
BITMAP
0070E000
00F9E000
00F9E000
00F9E000
0030C000
00000000
00000000
FFF03FC0
3F800700
1FC00600
0FC00400
0FE00C00
07E01800
07F01000
03F03000
03F82000
01F86000
00FC4000
00FC8000
007F8000
007F0000
003F0000
003F0000
003F0000
003F0000
003F0000
003F0000
003F0000
003F0000
003F0000
03FFF000
ENDCHAR
STARTCHAR 0179
ENCODING 377
SWIDTH 664 0
DWIDTH 24 0
BBX 22 32 1 0
BITMAP
001F00
001E00
001C00
003800
003000
002000
000000
000000
3FFFF8
3F03F0
3807F0
300FE0
200FC0
201FC0
403F80
003F00
007F00
007E00
00FE00
01FC00
01F800
03F800
07F000
07E000
0FE004
0FC004
1FC004
3F800C
3F001C
7F003C
7E07FC
FFFFFC
ENDCHAR
STARTCHAR 017A
ENCODING 378
SWIDTH 443 0
DWIDTH 16 0
BBX 15 25 0 0
BITMAP
00F8
00F0
00F0
01E0
01C0
0180
0000
0000
0000
3FFE
207E
20FC
40F8
01F8
03F0
03E0
07E0
07C0
0FC0
1F80
1F02
3F02
3E06
7E1E
FFFE
ENDCHAR
STARTCHAR 017B
ENCODING 379
SWIDTH 664 0
DWIDTH 24 0
BBX 22 31 1 0
BITMAP
003800
007C00
007C00
007C00
003800
000000
000000
3FFFF8
3F03F0
3807F0
300FE0
200FC0
201FC0
403F80
003F00
007F00
007E00
00FE00
01FC00
01F800
03F800
07F000
07E000
0FE004
0FC004
1FC004
3F800C
3F001C
7F003C
7E07FC
FFFFFC
ENDCHAR
STARTCHAR 017C
ENCODING 380
SWIDTH 443 0
DWIDTH 16 0
BBX 15 24 0 0
BITMAP
01C0
03E0
03E0
03E0
01C0
0000
0000
0000
3FFE
207E
20FC
40F8
01F8
03F0
03E0
07E0
07C0
0FC0
1F80
1F02
3F02
3E06
7E1E
FFFE
ENDCHAR
STARTCHAR 017D
ENCODING 381
SWIDTH 664 0
DWIDTH 24 0
BBX 22 32 1 0
BITMAP
030100
038700
01CE00
01FE00
00FC00
00FC00
007800
000000
3FFFF8
3F03F0
3807F0
300FE0
200FC0
201FC0
403F80
003F00
007F00
007E00
00FE00
01FC00
01F800
03F800
07F000
07E000
0FE004
0FC004
1FC004
3F800C
3F001C
7F003C
7E07FC
FFFFFC
ENDCHAR
STARTCHAR 017E
ENCODING 382
SWIDTH 443 0
DWIDTH 16 0
BBX 15 25 0 0
BITMAP
180C
0C18
0E38
07F0
07F0
03E0
01E0
0000
0000
3FFE
207E
20FC
40F8
01F8
03F0
03E0
07E0
07C0
0FC0
1F80
1F02
3F02
3E06
7E1E
FFFE
ENDCHAR
STARTCHAR 017F
ENCODING 383
SWIDTH 276 0
DWIDTH 10 0
BBX 14 24 0 0
BITMAP
07F8
0F7C
1E7C
1E38
1E00
1E00
1E00
1E00
1E00
1E00
1E00
1E00
1E00
1E00
1E00
1E00
1E00
1E00
1E00
1E00
1E00
3F00
3F00
FFC0
ENDCHAR
STARTCHAR 018F
ENCODING 399
SWIDTH 747 0
DWIDTH 27 0
BBX 24 25 1 -1
BITMAP
10FF80
1F03E0
1E01F0
1C00F8
18007C
10007E
10007E
00003F
00003F
00003F
00003F
FFFFFF
FE003F
FE003F
7E003F
7E003F
7E003F
7E003E
3E007E
3E007C
1F0078
0F00F0
07C1E0
01FF80
001800
ENDCHAR
STARTCHAR 0192
ENCODING 402
SWIDTH 498 0
DWIDTH 18 0
BBX 18 32 0 -8
BITMAP
000FC0
0019C0
0019C0
003980
003800
007800
007800
00F800
07FF00
07FE00
01F000
01F000
01F000
01F000
01F000
03E000
03E000
03E000
03E000
03E000
07C000
07C000
07C000
07C000
07C000
078000
078000
070000
670000
E60000
EC0000
700000
ENDCHAR
STARTCHAR 01A0
ENCODING 416
SWIDTH 775 0
DWIDTH 28 0
BBX 27 27 1 0
BITMAP
000000E0
000001E0
00FFC0E0
03E0F060
07807FC0
0F803E00
1F003F00
3F001F00
3E001F80
7E001F80
7E001F80
7E001FC0
7E001FC0
FE001FC0
FE001FC0
FE001FC0
7E001FC0
7E001F80
7E001F80
3E001F80
3F001F00
1F003E00
1F803E00
0F807C00
03C0F000
00FFE000
00040000
ENDCHAR
STARTCHAR 01A1
ENCODING 417
SWIDTH 553 0
DWIDTH 20 0
BBX 20 18 1 0
BITMAP
0000E0
07E0F0
0E78F0
1C3C70
3C3FE0
7C3E00
7C1E00
7C1F00
FC1F00
FC1F00
FC1F00
FC1F00
7C1E00
7C3E00
7C3E00
3C3C00
1C3800
0FF000
ENDCHAR
STARTCHAR 01AF
ENCODING 431
SWIDTH 803 0
DWIDTH 29 0
BBX 29 30 1 -1
BITMAP
00000030
00000078
00000078
00000038
00000030
FFF0FFC0
3F801C00
1F801800
1F800800
1F800800
1F800800
1F800800
1F800800
1F800800
1F800800
1F800800
1F800800
1F800800
1F800800
1F800800
1F800800
1F800800
1F801800
1F801800
1F801800
0F803000
0FC02000
07F0C000
01FF8000
00180000
ENDCHAR
STARTCHAR 01B0
ENCODING 432
SWIDTH 609 0
DWIDTH 22 0
BBX 20 17 2 0
BITMAP
000070
FC7EF0
7C3EF0
7C3E70
7C3E70
7C3F80
7C3E00
7C3E00
7C3E00
7C3E00
7C3E00
7C3E00
7C3E00
7C3E00
7C7E00
3FFE00
1F3F80
ENDCHAR
STARTCHAR 01CD
ENCODING 461
SWIDTH 720 0
DWIDTH 26 0
BBX 26 32 0 0
BITMAP
00C06000
0061C000
00738000
003F8000
003F0000
001F0000
00000000
00000000
00040000
000C0000
000E0000
001E0000
001E0000
003F0000
003F0000
007F8000
005F8000
004FC000
00CFC000
0087E000
0187E000
0107E000
0303F000
0203F000
07FFF800
0401F800
0400FC00
0C00FC00
0800FE00
18007E00
38007F00
FF03FFC0
ENDCHAR
STARTCHAR 01CE
ENCODING 462
SWIDTH 498 0
DWIDTH 18 0
BBX 15 25 2 0
BITMAP
2010
3870
1CE0
1FE0
0FC0
0F80
0780
0000
0FC0
39F0
70F8
F0F8
F8F8
F8F8
70F8
03F8
06F8
1CF8
78F8
F8F8
F0F8
F8F8
FFF8
FE7E
7C7C
ENDCHAR
STARTCHAR 01CF
ENCODING 463
SWIDTH 387 0
DWIDTH 14 0
BBX 12 32 1 0
BITMAP
6060
70E0
39C0
3FC0
1F80
1F00
0000
0000
FFF0
1F80
1F80
1F80
1F80
1F80
1F80
1F80
1F80
1F80
1F80
1F80
1F80
1F80
1F80
1F80
1F80
1F80
1F80
1F80
1F80
1F80
1F80
FFF0
ENDCHAR
STARTCHAR 01D0
ENCODING 464
SWIDTH 276 0
DWIDTH 10 0
BBX 11 25 0 0
BITMAP
C060
E0C0
7380
7F80
3F00
1F00
1E00
0000
0000
7F00
1F00
1F00
1F00
1F00
1F00
1F00
1F00
1F00
1F00
1F00
1F00
1F00
1F00
1F00
7FC0
ENDCHAR
STARTCHAR 01D1
ENCODING 465
SWIDTH 775 0
DWIDTH 28 0
BBX 26 33 1 -1
BITMAP
00C0C000
00E1C000
00738000
007F8000
003F0000
003E0000
00000000
00000000
00FFC000
03E0F000
07807C00
0F803E00
1F003F00
3F001F00
3E001F80
7E001F80
7E001F80
7E001FC0
7E001FC0
FE001FC0
FE001FC0
FE001FC0
7E001FC0
7E001F80
7E001F80
3E001F80
3F001F00
1F003E00
1F803E00
0F807C00
03C0F000
00FFE000
00040000
ENDCHAR
STARTCHAR 01D2
ENCODING 466
SWIDTH 498 0
DWIDTH 18 0
BBX 16 25 1 0
BITMAP
1808
1C38
0E70
0FF0
07E0
07E0
03C0
0000
07E0
0E78
1C3C
3C3C
7C3E
7C1E
7C1F
FC1F
FC1F
FC1F
FC1F
7C1E
7C3E
7C3E
3C3C
1C38
0FF0
ENDCHAR
STARTCHAR 01D3
ENCODING 467
SWIDTH 720 0
DWIDTH 26 0
BBX 24 33 1 -1
BITMAP
0180C0
00C180
00F780
007F00
007E00
003E00
000000
000000
FFF0FF
3F801C
1F8018
1F8008
1F8008
1F8008
1F8008
1F8008
1F8008
1F8008
1F8008
1F8008
1F8008
1F8008
1F8008
1F8008
1F8008
1F8018
1F8018
1F8018
0F8030
0FC060
07F0C0
01FF80
001800
ENDCHAR
STARTCHAR 01D4
ENCODING 468
SWIDTH 553 0
DWIDTH 20 0
BBX 17 25 2 0
BITMAP
101800
1C3800
0E7000
0FF000
07E000
07C000
03C000
000000
000000
FC7E00
7C3E00
7C3E00
7C3E00
7C3E00
7C3E00
7C3E00
7C3E00
7C3E00
7C3E00
7C3E00
7C3E00
7C3E00
7C7E00
3FFE00
1F3F80
ENDCHAR
STARTCHAR 01D5
ENCODING 469
SWIDTH 720 0
DWIDTH 26 0
BBX 24 33 1 -1
BITMAP
00FF00
00FF00
000000
000000
00E700
00E700
000000
000000
FFF0FF
3F801C
1F8018
1F8008
1F8008
1F8008
1F8008
1F8008
1F8008
1F8008
1F8008
1F8008
1F8008
1F8008
1F8008
1F8008
1F8008
1F8018
1F8018
1F8018
0F8030
0FC060
07F0C0
01FF80
001800
ENDCHAR
STARTCHAR 01D6
ENCODING 470
SWIDTH 553 0
DWIDTH 20 0
BBX 17 28 2 0
BITMAP
3FFC00
3FFC00
3FFC00
000000
000000
1C3800
1E7C00
3E7C00
1E7800
0C3000
000000
000000
FC7E00
7C3E00
7C3E00
7C3E00
7C3E00
7C3E00
7C3E00
7C3E00
7C3E00
7C3E00
7C3E00
7C3E00
7C3E00
7C7E00
3FFE00
1F3F80
ENDCHAR
STARTCHAR 01D7
ENCODING 471
SWIDTH 720 0
DWIDTH 26 0
BBX 24 33 1 -1
BITMAP
001E00
001C00
001000
000000
00E700
00E700
000000
000000
FFF0FF
3F801C
1F8018
1F8008
1F8008
1F8008
1F8008
1F8008
1F8008
1F8008
1F8008
1F8008
1F8008
1F8008
1F8008
1F8008
1F8008
1F8018
1F8018
1F8018
0F8030
0FC060
07F0C0
01FF80
001800
ENDCHAR
STARTCHAR 01D8
ENCODING 472
SWIDTH 553 0
DWIDTH 20 0
BBX 17 30 2 0
BITMAP
00F800
00F000
00E000
01C000
018000
018000
000000
1C3800
1E7C00
3E7C00
1E7800
0C3000
000000
000000
FC7E00
7C3E00
7C3E00
7C3E00
7C3E00
7C3E00
7C3E00
7C3E00
7C3E00
7C3E00
7C3E00
7C3E00
7C3E00
7C7E00
3FFE00
1F3F80
ENDCHAR
STARTCHAR 01D9
ENCODING 473
SWIDTH 720 0
DWIDTH 26 0
BBX 24 33 1 -1
BITMAP
006200
007E00
003C00
000000
00E700
00E700
000000
000000
FFF0FF
3F801C
1F8018
1F8008
1F8008
1F8008
1F8008
1F8008
1F8008
1F8008
1F8008
1F8008
1F8008
1F8008
1F8008
1F8008
1F8008
1F8018
1F8018
1F8018
0F8030
0FC060
07F0C0
01FF80
001800
ENDCHAR
STARTCHAR 01DA
ENCODING 474
SWIDTH 553 0
DWIDTH 20 0
BBX 17 31 2 0
BITMAP
300C00
181800
0C3000
0EF000
07E000
07E000
03C000
000000
1C3800
1E7C00
3E7C00
1E7800
0C3000
000000
000000
FC7E00
7C3E00
7C3E00
7C3E00
7C3E00
7C3E00
7C3E00
7C3E00
7C3E00
7C3E00
7C3E00
7C3E00
7C3E00
7C7E00
3FFE00
1F3F80
ENDCHAR
STARTCHAR 01DB
ENCODING 475
SWIDTH 720 0
DWIDTH 26 0
BBX 24 33 1 -1
BITMAP
007800
003800
000800
000000
00E700
00E700
000000
000000
FFF0FF
3F801C
1F8018
1F8008
1F8008
1F8008
1F8008
1F8008
1F8008
1F8008
1F8008
1F8008
1F8008
1F8008
1F8008
1F8008
1F8008
1F8018
1F8018
1F8018
0F8030
0FC060
07F0C0
01FF80
001800
ENDCHAR
STARTCHAR 01DC
ENCODING 476
SWIDTH 553 0
DWIDTH 20 0
BBX 17 30 2 0
BITMAP
1F0000
0F0000
070000
038000
018000
008000
000000
1C3800
1E7C00
3E7C00
1E7800
0C3000
000000
000000
FC7E00
7C3E00
7C3E00
7C3E00
7C3E00
7C3E00
7C3E00
7C3E00
7C3E00
7C3E00
7C3E00
7C3E00
7C3E00
7C7E00
3FFE00
1F3F80
ENDCHAR
STARTCHAR 01FA
ENCODING 506
SWIDTH 720 0
DWIDTH 26 0
BBX 26 37 0 0
BITMAP
0007C000
00078000
000F0000
000E0000
000C0000
00180000
00000000
001F0000
00318000
00218000
00208000
00218000
003B0000
001E0000
000C0000
000E0000
001E0000
001E0000
003F0000
003F0000
007F8000
005F8000
004FC000
00CFC000
0087E000
0187E000
0107E000
0303F000
0203F000
07FFF800
0401F800
0400FC00
0C00FC00
0800FE00
18007E00
38007F00
FF03FFC0
ENDCHAR
STARTCHAR 01FB
ENCODING 507
SWIDTH 498 0
DWIDTH 18 0
BBX 15 32 2 0
BITMAP
01F0
03C0
0380
0300
0600
0600
0000
0780
0CC0
1860
1860
1860
0CC0
0780
0000
0FC0
39F0
70F8
F0F8
F8F8
F8F8
70F8
03F8
06F8
1CF8
78F8
F8F8
F0F8
F8F8
FFF8
FE7E
7C7C
ENDCHAR
STARTCHAR 01FC
ENCODING 508
SWIDTH 996 0
DWIDTH 36 0
BBX 35 32 0 0
BITMAP
00001F0000
00001E0000
00003C0000
0000380000
0000300000
0000600000
0000000000
0000000000
001FFFFF80
0003FCFF80
00037C0380
00027C0180
00067C0180
00047C0080
000C7C1080
00187C1000
00107C1000
00307C3000
00607C7000
00407FF000
00FFFCF000
00FFFC3000
01007C3000
03007C1000
02007C1020
06007C1040
0C007C0040
08007C0040
18007E00C0
38007E01C0
3800FF0FC0
FE0FFFFF80
ENDCHAR
STARTCHAR 01FD
ENCODING 509
SWIDTH 720 0
DWIDTH 26 0
BBX 23 25 2 0
BITMAP
001F00
001E00
003C00
003800
003000
006000
000000
000000
0FC3E0
3BE678
70FC3C
F07C3C
F87C1C
F87C1E
707C1E
01FFFE
077C00
1C7C00
387C00
787C00
F07E02
F83E04
FCFF8C
FF9FF8
7E0FF0
ENDCHAR
STARTCHAR 01FE
ENCODING 510
SWIDTH 775 0
DWIDTH 28 0
BBX 26 33 1 -1
BITMAP
0007C000
000F8000
000F0000
000E0000
001C0000
00180000
00000000
00000100
00FFC300
03E0F200
07807C00
0F803E00
1F003E00
3F003F00
3E007F80
7E00DF80
7E019F80
7E011FC0
7E031FC0
FE061FC0
FE0C1FC0
7E181FC0
7E301FC0
7E601F80
7E401F80
3E801F80
3F801F00
1F003E00
1F803E00
0F807C00
1BC0F000
30FFC000
20040000
ENDCHAR
STARTCHAR 01FF
ENCODING 511
SWIDTH 498 0
DWIDTH 18 0
BBX 16 25 1 0
BITMAP
00F8
00F0
01E0
01C0
0180
0300
0000
0000
03E3
0E7E
1C3C
3C3E
7C1E
7C3E
7C7F
7CDF
7D9F
7D1F
7E1F
7C1F
7C1E
3C1E
3C3C
7E38
CFF0
ENDCHAR
STARTCHAR 0218
ENCODING 536
SWIDTH 553 0
DWIDTH 20 0
BBX 17 33 2 -9
BITMAP
1FE200
383E00
700E00
700600
F00600
F00200
F80200
FC0200
FF0000
7FC000
7FF000
3FFC00
1FFE00
07FF00
01FF00
007F00
801F80
800F80
C00F80
C00700
E00700
F00E00
F81C00
8FF800
808000
000000
03C000
07C000
03C000
004000
00C000
018000
020000
ENDCHAR
STARTCHAR 0219
ENCODING 537
SWIDTH 387 0
DWIDTH 14 0
BBX 12 26 1 -9
BITMAP
1F20
39E0
70E0
7060
F820
FC20
7F00
7F80
3FC0
1FE0
0FF0
03F0
41F0
40F0
60E0
70E0
7FC0
0000
0000
0F00
1F00
0F00
0100
0300
0600
0800
ENDCHAR
STARTCHAR 021A
ENCODING 538
SWIDTH 664 0
DWIDTH 24 0
BBX 22 33 1 -9
BITMAP
FFFFFC
FCFCFC
E0FC1C
C0FC0C
C0FC0C
80FC04
80FC04
00FC00
00FC00
00FC00
00FC00
00FC00
00FC00
00FC00
00FC00
00FC00
00FC00
00FC00
00FC00
00FC00
00FC00
00FC00
00FC00
07FF80
000000
000000
007800
007C00
007C00
000C00
000800
001000
006000
ENDCHAR
STARTCHAR 021B
ENCODING 539
SWIDTH 332 0
DWIDTH 12 0
BBX 11 32 1 -9
BITMAP
0200
0200
0600
0E00
1E00
3E00
7E00
FFE0
3E00
3E00
3E00
3E00
3E00
3E00
3E00
3E00
3E00
3E00
3E00
3E00
3E40
1FC0
0F80
0000
0000
1E00
1F00
0F00
0300
0200
0400
1800
ENDCHAR
STARTCHAR 0259
ENCODING 601
SWIDTH 443 0
DWIDTH 16 0
BBX 14 17 1 0
BITMAP
0F80
1FE0
3FF0
41F8
80F8
00F8
007C
007C
007C
FFFC
FFFC
F078
F078
7878
7870
38E0
1FC0
ENDCHAR
STARTCHAR 02C6
ENCODING 710
SWIDTH 332 0
DWIDTH 12 0
BBX 11 7 1 18
BITMAP
1E00
3F00
3F80
7380
E1C0
C0C0
0060
ENDCHAR
STARTCHAR 02C7
ENCODING 711
SWIDTH 332 0
DWIDTH 12 0
BBX 10 7 1 18
BITMAP
8040
E1C0
7380
7F80
3F00
3F00
1E00
ENDCHAR
STARTCHAR 02C9
ENCODING 713
SWIDTH 332 0
DWIDTH 12 0
BBX 12 3 0 19
BITMAP
FFF0
FFF0
FFF0
ENDCHAR
STARTCHAR 02D8
ENCODING 728
SWIDTH 332 0
DWIDTH 12 0
BBX 10 5 1 19
BITMAP
8040
E1C0
7FC0
7F80
1E00
ENDCHAR
STARTCHAR 02D9
ENCODING 729
SWIDTH 332 0
DWIDTH 12 0
BBX 6 5 3 19
BITMAP
78
78
FC
78
78
ENDCHAR
STARTCHAR 02DA
ENCODING 730
SWIDTH 332 0
DWIDTH 12 0
BBX 8 7 2 18
BITMAP
3C
66
C3
C3
43
66
3C
ENDCHAR
STARTCHAR 02DB
ENCODING 731
SWIDTH 332 0
DWIDTH 12 0
BBX 8 8 2 -8
BITMAP
30
60
E0
E0
F0
F8
7F
3E
ENDCHAR
STARTCHAR 02DC
ENCODING 732
SWIDTH 332 0
DWIDTH 12 0
BBX 12 5 0 19
BITMAP
3C10
7FF0
7FE0
4FE0
8380
ENDCHAR
STARTCHAR 02DD
ENCODING 733
SWIDTH 332 0
DWIDTH 12 0
BBX 11 6 2 19
BITMAP
3CE0
39C0
71C0
6180
6300
C300
ENDCHAR
STARTCHAR 0300
ENCODING 768
SWIDTH 0 0
DWIDTH 0 0
BBX 7 6 -10 26
BITMAP
F8
7C
3C
1C
0E
06
ENDCHAR
STARTCHAR 0301
ENCODING 769
SWIDTH 0 0
DWIDTH 0 0
BBX 7 6 -7 26
BITMAP
3E
7C
78
70
E0
C0
ENDCHAR
STARTCHAR 0303
ENCODING 771
SWIDTH 0 0
DWIDTH 0 0
BBX 11 5 -14 26
BITMAP
3C20
7F60
FFE0
9FC0
8380
ENDCHAR
STARTCHAR 0309
ENCODING 777
SWIDTH 0 0
DWIDTH 0 0
BBX 8 6 -9 26
BITMAP
7F
E3
07
06
08
08
ENDCHAR
STARTCHAR 0323
ENCODING 803
SWIDTH 0 0
DWIDTH 0 0
BBX 6 6 -18 -8
BITMAP
78
F8
FC
FC
F8
30
ENDCHAR
STARTCHAR 037E
ENCODING 894
SWIDTH 332 0
DWIDTH 12 0
BBX 6 23 3 -6
BITMAP
78
FC
FC
FC
78
30
00
00
00
00
00
00
78
FC
FC
FC
7C
0C
0C
08
18
30
C0
ENDCHAR
STARTCHAR 0384
ENCODING 900
SWIDTH 332 0
DWIDTH 12 0
BBX 7 6 4 19
BITMAP
3E
3C
78
70
60
C0
ENDCHAR
STARTCHAR 0385
ENCODING 901
SWIDTH 332 0
DWIDTH 12 0
BBX 16 6 -2 19
BITMAP
01F0
01E0
F3CF
F38F
F30F
F60F
ENDCHAR
STARTCHAR 0386
ENCODING 902
SWIDTH 720 0
DWIDTH 26 0
BBX 26 25 0 0
BITMAP
07E00000
07C40000
078C0000
0F0E0000
0E1E0000
0C1E0000
003F0000
003F0000
007F8000
005F8000
004FC000
00CFC000
0087E000
0187E000
0107E000
0303F000
0203F000
07FFF800
0401F800
0400FC00
0C00FC00
0800FE00
18007E00
38007F00
FF03FFC0
ENDCHAR
STARTCHAR 0387
ENCODING 903
SWIDTH 332 0
DWIDTH 12 0
BBX 6 6 3 11
BITMAP
78
7C
FC
FC
FC
30
ENDCHAR
STARTCHAR 0388
ENCODING 904
SWIDTH 803 0
DWIDTH 29 0
BBX 29 25 -2 0
BITMAP
3E000000
7DFFFFF0
783F9FF0
701F80F0
E01F8070
C01F8030
001F8030
001F8410
001F8400
001F8400
001F8400
001F8C00
001FFC00
001FFC00
001F8C00
001F8400
001F8400
001F8400
001F8408
001F8008
001F8018
001F8038
001F8078
001FC3F0
01FFFFF0
ENDCHAR
STARTCHAR 0389
ENCODING 905
SWIDTH 913 0
DWIDTH 33 0
BBX 34 25 -2 0
BITMAP
3E00000000
7DFFF3FFC0
783F807E00
701F807E00
E01F807E00
C01F807E00
001F807E00
001F807E00
001F807E00
001F807E00
001F807E00
001F807E00
001FFFFE00
001F807E00
001F807E00
001F807E00
001F807E00
001F807E00
001F807E00
001F807E00
001F807E00
001F807E00
001F807E00
003F807E00
01FFF3FFC0
ENDCHAR
STARTCHAR 038A
ENCODING 906
SWIDTH 526 0
DWIDTH 19 0
BBX 20 25 -2 0
BITMAP
3E0000
7CFFF0
783F80
701F80
E01F80
C01F80
001F80
001F80
001F80
001F80
001F80
001F80
001F80
001F80
001F80
001F80
001F80
001F80
001F80
001F80
001F80
001F80
001F80
001F80
00FFF0
ENDCHAR
STARTCHAR 038C
ENCODING 908
SWIDTH 775 0
DWIDTH 28 0
BBX 29 26 -2 -1
BITMAP
3E000000
3C1FF800
787C1E00
70F00F80
61F007C0
C3E007C0
07E003E0
07C003F0
0FC003F0
0FC003F0
0FC003F8
1FC003F8
1FC003F8
1FC003F8
1FC003F8
0FC003F8
0FC003F0
0FC003F0
0FC003F0
07E003E0
03E007C0
03E007C0
01F00F80
00781E00
003FFC00
00010000
ENDCHAR
STARTCHAR 038E
ENCODING 910
SWIDTH 858 0
DWIDTH 31 0
BBX 33 25 -2 0
BITMAP
3E00000000
7DFFE03F80
783F800E00
703F800C00
E01F800800
C01FC01800
000FC01000
0007E03000
0007E06000
0003F04000
0003F8C000
0001F88000
0001FD8000
0000FF0000
0000FE0000
00007E0000
00007E0000
00007E0000
00007E0000
00007E0000
00007E0000
00007E0000
00007E0000
00007E0000
0007FFE000
ENDCHAR
STARTCHAR 038F
ENCODING 911
SWIDTH 803 0
DWIDTH 29 0
BBX 30 25 -2 0
BITMAP
3E000000
7C1FFE00
787C1F80
71F007C0
E3F007E0
C3E003E0
07E003F0
07E003F0
0FC001F8
0FC001F8
0FC001F8
0FC001F8
0FC001F8
07E003F0
07E003F0
03E003E0
01E003C0
00F00780
103C1E04
100C1804
1C0C181C
1FFC1FFC
1FFC1FFC
1FFC1FFC
1FFC1FFC
ENDCHAR
STARTCHAR 0390
ENCODING 912
SWIDTH 304 0
DWIDTH 11 0
BBX 17 25 -3 0
BITMAP
01F800
01F000
71E700
FBCF80
FB8F80
730F00
000000
000000
000000
0FE000
03E000
03E000
03E000
03E000
03E000
03E000
03E000
03E000
03E000
03E000
03E400
03E400
03E400
03F800
01F800
ENDCHAR
STARTCHAR 0391
ENCODING 913
SWIDTH 720 0
DWIDTH 26 0
BBX 26 24 0 0
BITMAP
00040000
000C0000
000E0000
001E0000
001E0000
003F0000
003F0000
007F8000
005F8000
004FC000
00CFC000
0087E000
0187E000
0107E000
0303F000
0203F000
07FFF800
0401F800
0400FC00
0C00FC00
0800FE00
18007E00
38007F00
FF03FFC0
ENDCHAR
STARTCHAR 0392
ENCODING 914
SWIDTH 664 0
DWIDTH 24 0
BBX 22 24 1 0
BITMAP
FFFF00
1FBFC0
1F87E0
1F83F0
1F81F0
1F81F8
1F81F8
1F81F8
1F83F0
1F83E0
1F8F80
1FFF00
1F8FE0
1F83F0
1F81F8
1F81FC
1F80FC
1F80FC
1F80FC
1F81F8
1F81F8
1F83F0
1FCFE0
FFFF00
ENDCHAR
STARTCHAR 0393
ENCODING 915
SWIDTH 636 0
DWIDTH 23 0
BBX 21 24 1 0
BITMAP
FFFFF8
1FFFF8
1F8038
1F8018
1F8008
1F8008
1F8008
1F8000
1F8000
1F8000
1F8000
1F8000
1F8000
1F8000
1F8000
1F8000
1F8000
1F8000
1F8000
1F8000
1F8000
1F8000
1F8000
FFF000
ENDCHAR
STARTCHAR 0394
ENCODING 916
SWIDTH 636 0
DWIDTH 23 0
BBX 21 24 1 0
BITMAP
002000
006000
007000
00F000
00F800
00F800
01F800
01FC00
03FC00
027E00
027E00
063F00
043F00
0C1F00
081F80
181F80
100FC0
100FC0
3007C0
2007E0
6007E0
4003F0
C003F0
FFFFF8
ENDCHAR
STARTCHAR 0395
ENCODING 917
SWIDTH 664 0
DWIDTH 24 0
BBX 21 24 1 0
BITMAP
FFFFF0
1F8FF0
1F8070
1F8030
1F8030
1F8010
1F8210
1F8200
1F8600
1F8600
1F8E00
1FFE00
1FFE00
1F8E00
1F8600
1F8600
1F8200
1F8208
1F8008
1F8018
1F8018
1F8078
1FC3F8
FFFFF0
ENDCHAR
STARTCHAR 0396
ENCODING 918
SWIDTH 664 0
DWIDTH 24 0
BBX 22 24 1 0
BITMAP
3FFFF8
3F03F0
3807F0
300FE0
200FC0
201FC0
403F80
003F00
007F00
007E00
00FE00
01FC00
01F800
03F800
07F000
07E000
0FE004
0FC004
1FC004
3F800C
3F001C
7F003C
7E07FC
FFFFFC
ENDCHAR
STARTCHAR 0397
ENCODING 919
SWIDTH 775 0
DWIDTH 28 0
BBX 26 24 1 0
BITMAP
FFF3FFC0
1F807F00
1F807E00
1F807E00
1F807E00
1F807E00
1F807E00
1F807E00
1F807E00
1F807E00
1F807E00
1FFFFE00
1F807E00
1F807E00
1F807E00
1F807E00
1F807E00
1F807E00
1F807E00
1F807E00
1F807E00
1F807E00
1F807F00
FFF3FFC0
ENDCHAR
STARTCHAR 0398
ENCODING 920
SWIDTH 775 0
DWIDTH 28 0
BBX 26 25 1 -1
BITMAP
00FFC000
03E0F000
07807C00
0F803E00
1F003E00
3F001F00
3E001F80
7E001F80
7E409F80
7E609FC0
FE7F9FC0
FE7F9FC0
FE7F9FC0
FE7F9FC0
7E619FC0
7E409F80
7E409F80
7E001F80
3F001F00
1F003E00
1F003E00
0F807C00
03C0F000
00FFE000
00040000
ENDCHAR
STARTCHAR 0399
ENCODING 921
SWIDTH 387 0
DWIDTH 14 0
BBX 12 24 1 0
BITMAP
FFF0
1F80
1F80
1F80
1F80
1F80
1F80
1F80
1F80
1F80
1F80
1F80
1F80
1F80
1F80
1F80
1F80
1F80
1F80
1F80
1F80
1F80
1F80
FFF0
ENDCHAR
STARTCHAR 039A
ENCODING 922
SWIDTH 775 0
DWIDTH 28 0
BBX 28 24 1 0
BITMAP
FFF07FC0
1F801F00
1F800C00
1F801800
1F803000
1F80E000
1F818000
1F830000
1F860000
1F8C0000
1FBE0000
1FFF0000
1FFF8000
1FBF8000
1F9FC000
1F8FE000
1F87F000
1F83F800
1F83F800
1F81FC00
1F80FE00
1F807F00
1F807F80
FFF1FFF0
ENDCHAR
STARTCHAR 039B
ENCODING 923
SWIDTH 720 0
DWIDTH 26 0
BBX 26 24 0 0
BITMAP
00040000
000C0000
000E0000
001E0000
001F0000
003F0000
003F8000
007F8000
005F8000
00CFC000
008FC000
0087E000
0107E000
0103F000
0303F000
0203F000
0601F800
0401F800
0C00FC00
0800FC00
18007E00
18007E00
38007F00
FF03FFC0
ENDCHAR
STARTCHAR 039C
ENCODING 924
SWIDTH 941 0
DWIDTH 34 0
BBX 32 24 1 0
BITMAP
FFC001FF
1FC003FC
1FE003F8
17E007F8
17E005F8
13F00DF8
13F009F8
11F809F8
11F819F8
11FC11F8
10FC31F8
10FC21F8
107E21F8
107E61F8
103F41F8
103FC1F8
103F81F8
101F81F8
101F01F8
100F01F8
100F01F8
180601F8
380601FC
FF040FFF
ENDCHAR
STARTCHAR 039D
ENCODING 925
SWIDTH 720 0
DWIDTH 26 0
BBX 24 25 1 -1
BITMAP
FF00FF
3F801C
1FC008
1FE008
1FF008
17F008
13F808
11FC08
11FE08
10FE08
107F08
103F88
101FC8
100FE8
100FE8
1007F8
1003F8
1001F8
1000F8
1000F8
100078
180038
380018
FF0008
000008
ENDCHAR
STARTCHAR 039E
ENCODING 926
SWIDTH 664 0
DWIDTH 24 0
BBX 20 24 2 0
BITMAP
FFFFF0
FFFFF0
FFFFF0
FFFFF0
FFFFF0
C00010
800010
080080
080080
0C0180
0FFF80
0FFF80
0FFF80
0FFF80
080180
080080
800010
800010
800010
FFFFF0
FFFFF0
FFFFF0
FFFFF0
FFFFF0
ENDCHAR
STARTCHAR 039F
ENCODING 927
SWIDTH 775 0
DWIDTH 28 0
BBX 26 25 1 -1
BITMAP
00FFC000
03E0F000
07807C00
0F803E00
1F003F00
3F001F00
3E001F80
7E001F80
7E001F80
7E001FC0
7E001FC0
FE001FC0
FE001FC0
FE001FC0
7E001FC0
7E001F80
7E001F80
3E001F80
3F001F00
1F003E00
1F803E00
0F807C00
03C0F000
00FFE000
00040000
ENDCHAR
STARTCHAR 03A0
ENCODING 928
SWIDTH 775 0
DWIDTH 28 0
BBX 26 24 1 0
BITMAP
FFFFFFC0
1FFFFE00
1F807E00
1F807E00
1F807E00
1F807E00
1F807E00
1F807E00
1F807E00
1F807E00
1F807E00
1F807E00
1F807E00
1F807E00
1F807E00
1F807E00
1F807E00
1F807E00
1F807E00
1F807E00
1F807E00
1F807E00
1F807E00
FFF3FFC0
ENDCHAR
STARTCHAR 03A1
ENCODING 929
SWIDTH 609 0
DWIDTH 22 0
BBX 20 24 1 0
BITMAP
FFFC00
1FBF80
1F87C0
1F87E0
1F83F0
1F83F0
1F83F0
1F83F0
1F83F0
1F83E0
1F87E0
1F8F80
1FFE00
1F8000
1F8000
1F8000
1F8000
1F8000
1F8000
1F8000
1F8000
1F8000
1F8000
FFF000
ENDCHAR
STARTCHAR 03A3
ENCODING 931
SWIDTH 664 0
DWIDTH 24 0
BBX 21 24 1 0
BITMAP
FFFFF0
FE03F0
7E0070
3F0030
1F8030
1FC010
0FC010
07E000
07F000
03F000
01F000
00E000
00C000
008000
018000
030000
060008
0C0008
080018
1FFFF8
3FFFF8
7FFFF8
FFFFF8
FFFFF8
ENDCHAR
STARTCHAR 03A4
ENCODING 932
SWIDTH 664 0
DWIDTH 24 0
BBX 22 24 1 0
BITMAP
FFFFFC
FCFCFC
E0FC1C
C0FC0C
C0FC0C
80FC04
80FC04
00FC00
00FC00
00FC00
00FC00
00FC00
00FC00
00FC00
00FC00
00FC00
00FC00
00FC00
00FC00
00FC00
00FC00
00FC00
00FC00
07FF80
ENDCHAR
STARTCHAR 03A5
ENCODING 933
SWIDTH 720 0
DWIDTH 26 0
BBX 26 24 0 0
BITMAP
FFF03FC0
3F800700
1FC00600
0FC00400
0FE00C00
07E01800
07F01000
03F03000
03F82000
01F86000
00FC4000
00FC8000
007F8000
007F0000
003F0000
003F0000
003F0000
003F0000
003F0000
003F0000
003F0000
003F0000
003F0000
03FFF000
ENDCHAR
STARTCHAR 03A6
ENCODING 934
SWIDTH 830 0
DWIDTH 30 0
BBX 28 24 1 0
BITMAP
00FFF000
001F8000
001F8000
007FF000
07FFFE00
0F1F8F00
1E1F8780
3E1F87C0
7E1F87E0
7C1F83E0
7C1F83F0
FC1F83F0
FC1F83F0
7C1F83E0
7C1F83E0
7E1F87E0
3E1F87C0
1F1F8780
0F9F8F00
03FFFC00
003FC000
001F8000
001F8000
00FFF000
ENDCHAR
STARTCHAR 03A7
ENCODING 935
SWIDTH 720 0
DWIDTH 26 0
BBX 26 24 0 0
BITMAP
7FF8FF80
1FC01E00
1FC01C00
0FE01800
07F03000
07F06000
03F8C000
01FC8000
01FD0000
00FF0000
007F0000
007F0000
003F8000
001FC000
002FC000
006FE000
00C7F000
0183F000
0103F800
0201FC00
0600FC00
0C00FE00
1E00FF00
FF83FFC0
ENDCHAR
STARTCHAR 03A8
ENCODING 936
SWIDTH 775 0
DWIDTH 28 0
BBX 27 24 1 0
BITMAP
F1FFE3E0
7C3F0780
7C3F0F80
7E3F0F80
7E3F1F80
7E3F1F80
7E3F1F80
3E3F1F80
3E3F1F00
3E3F1F00
1E3F1E00
0F3F3C00
07FFF800
00FFC000
003F0000
003F0000
003F0000
003F0000
003F0000
003F0000
003F0000
003F0000
003F0000
01FFE000
ENDCHAR
STARTCHAR 03A9
ENCODING 937
SWIDTH 803 0
DWIDTH 29 0
BBX 27 24 1 0
BITMAP
00FFE000
03E0F800
0F803E00
1F803F00
1F001F00
3F001F80
3F001F80
7E000FC0
7E000FC0
7E000FC0
7E000FC0
7E000FC0
3F001F80
3F001F80
1F001F00
0F001E00
07803C00
81E0F020
8060C020
E060C0E0
FFE0FFE0
FFE0FFE0
FFE0FFE0
FFE0FFE0
ENDCHAR
STARTCHAR 03AA
ENCODING 938
SWIDTH 387 0
DWIDTH 14 0
BBX 12 31 1 0
BITMAP
70E0
79F0
F9F0
79E0
30C0
0000
0000
FFF0
1F80
1F80
1F80
1F80
1F80
1F80
1F80
1F80
1F80
1F80
1F80
1F80
1F80
1F80
1F80
1F80
1F80
1F80
1F80
1F80
1F80
1F80
FFF0
ENDCHAR
STARTCHAR 03AB
ENCODING 939
SWIDTH 720 0
DWIDTH 26 0
BBX 26 31 0 0
BITMAP
00E1C000
00F3E000
01F3E000
00F3C000
00618000
00000000
00000000
FFF03FC0
3F800700
1FC00600
0FC00400
0FE00C00
07E01800
07F01000
03F03000
03F82000
01F86000
00FC4000
00FC8000
007F8000
007F0000
003F0000
003F0000
003F0000
003F0000
003F0000
003F0000
003F0000
003F0000
003F0000
03FFF000
ENDCHAR
STARTCHAR 03AC
ENCODING 940
SWIDTH 553 0
DWIDTH 20 0
BBX 17 25 2 0
BITMAP
00F800
00F000
01E000
01C000
018000
030000
000000
000000
0F0000
1F9F00
385F00
787F00
783E00
F83E00
F83E00
F83E00
F83E00
F83C00
F87C00
F87C00
F87C00
F87C80
78F680
38F780
1FC380
ENDCHAR
STARTCHAR 03AD
ENCODING 941
SWIDTH 415 0
DWIDTH 15 0
BBX 14 25 1 0
BITMAP
01F0
01E0
03C0
0380
0300
0600
0000
0000
0FF0
3E38
7C3C
7C3C
7C18
7C00
3C00
1E00
03E0
1E00
7C00
FC00
FC18
FC3C
7C3C
7C38
1FF0
ENDCHAR
STARTCHAR 03AE
ENCODING 942
SWIDTH 581 0
DWIDTH 21 0
BBX 18 33 0 -8
BITMAP
003E00
003C00
003800
007800
007000
006000
000000
000000
1E1F00
7F3F80
7F6F80
9F87C0
8F87C0
0F87C0
0F87C0
0F87C0
0F87C0
0F87C0
0F87C0
0F87C0
0F87C0
0F87C0
0F87C0
0F87C0
0F87C0
0007C0
0007C0
0007C0
0007C0
0007C0
0007C0
0007C0
0003C0
ENDCHAR
STARTCHAR 03AF
ENCODING 943
SWIDTH 304 0
DWIDTH 11 0
BBX 10 25 1 0
BITMAP
0FC0
0F80
0F00
1E00
1C00
1800
0000
0000
0000
FE00
3E00
3E00
3E00
3E00
3E00
3E00
3E00
3E00
3E00
3E00
3E40
3E40
3E40
3F80
1F80
ENDCHAR
STARTCHAR 03B0
ENCODING 944
SWIDTH 526 0
DWIDTH 19 0
BBX 17 25 0 0
BITMAP
00FC00
00F800
38F780
7DE780
7DC780
398780
000000
000000
1E1800
7F0E00
7F0700
9F8300
8F8380
8F8380
0F8380
0F8380
0F8380
0F8380
0F8380
0F8380
0F8380
0F8300
0F8700
078600
03FC00
ENDCHAR
STARTCHAR 03B1
ENCODING 945
SWIDTH 553 0
DWIDTH 20 0
BBX 17 17 2 0
BITMAP
0F0000
1F9F00
385F00
787F00
783E00
F83E00
F83E00
F83E00
F83E00
F83C00
F87C00
F87C00
F87C00
F87C80
78F680
38F780
1FC380
ENDCHAR
STARTCHAR 03B2
ENCODING 946
SWIDTH 526 0
DWIDTH 19 0
BBX 16 32 2 -8
BITMAP
1FF0
3C78
7C3C
783E
783E
783E
F83C
F83C
F838
FBE0
F9B0
F83C
F83C
F81E
F81E
F81F
F81F
F81F
F81F
F81E
F83E
F83C
FE7C
FBF8
F800
F800
F800
F800
F800
F800
F800
F800
ENDCHAR
STARTCHAR 03B3
ENCODING 947
SWIDTH 470 0
DWIDTH 17 0
BBX 16 25 0 -8
BITMAP
3800
7C1F
7C1F
FE1E
863E
863C
833C
0338
0378
0170
0170
01E0
01E0
00C0
00C0
0180
01C0
01C0
03C0
03C0
07C0
07C0
07C0
0380
0300
ENDCHAR
STARTCHAR 03B4
ENCODING 948
SWIDTH 526 0
DWIDTH 19 0
BBX 16 24 1 0
BITMAP
0FF8
18FC
103C
101C
1800
0E00
0780
03E0
01F8
07FC
1E7E
3C3E
7C3F
7C1F
7C1F
F81F
F81F
FC1F
7C1F
7C1F
7C1E
3C3C
1C38
0FF0
ENDCHAR
STARTCHAR 03B5
ENCODING 949
SWIDTH 415 0
DWIDTH 15 0
BBX 14 17 1 0
BITMAP
0FF0
3E38
7C3C
7C3C
7C18
7C00
3C00
1E00
03E0
1E00
7C00
FC00
FC18
FC3C
7C3C
7C38
1FF0
ENDCHAR
STARTCHAR 03B6
ENCODING 950
SWIDTH 415 0
DWIDTH 15 0
BBX 14 33 1 -8
BITMAP
0800
3078
30F8
31F0
3BE0
0F00
0800
1800
1000
3000
2000
6000
4000
4000
4000
C000
C000
C000
C000
E000
FFC0
7FF0
7FF8
3FF8
1FFC
071C
000C
000C
000C
0118
03F8
03F0
01C0
ENDCHAR
STARTCHAR 03B7
ENCODING 951
SWIDTH 581 0
DWIDTH 21 0
BBX 18 25 0 -8
BITMAP
1E1F00
7F3F80
7F6F80
9F87C0
8F87C0
0F87C0
0F87C0
0F87C0
0F87C0
0F87C0
0F87C0
0F87C0
0F87C0
0F87C0
0F87C0
0F87C0
0F87C0
0007C0
0007C0
0007C0
0007C0
0007C0
0007C0
0007C0
0003C0
ENDCHAR
STARTCHAR 03B8
ENCODING 952
SWIDTH 526 0
DWIDTH 19 0
BBX 16 24 1 0
BITMAP
07F0
0E38
1C3C
3C1E
3C1E
7C1E
7C1F
7C1F
7C1F
7C1F
7C1F
FFFF
FFFF
FC1F
7C1F
7C1F
7C1F
7C1F
7C1E
3C1E
3C1E
1C1C
0E38
07F0
ENDCHAR
STARTCHAR 03B9
ENCODING 953
SWIDTH 304 0
DWIDTH 11 0
BBX 10 16 1 0
BITMAP
FE00
3E00
3E00
3E00
3E00
3E00
3E00
3E00
3E00
3E00
3E00
3E40
3E40
3E40
3F80
1F80
ENDCHAR
STARTCHAR 03BA
ENCODING 954
SWIDTH 553 0
DWIDTH 20 0
BBX 19 17 1 0
BITMAP
0003C0
FE0FC0
3E0FC0
3E18C0
3E3000
3E6000
3EE000
3EF000
3FF800
3FF800
3E7C00
3E7E00
3E3E00
3E3F00
3E1F80
3E0FC0
3E0FE0
ENDCHAR
STARTCHAR 03BB
ENCODING 955
SWIDTH 498 0
DWIDTH 18 0
BBX 17 24 1 0
BITMAP
3C0000
7E0000
7E0000
420000
830000
010000
010000
010000
018000
038000
038000
078000
07C000
0FC000
0FC000
1F4000
1F6000
3E2000
3E2080
3E3080
7C1080
7C1F80
F81F80
F80F00
ENDCHAR
STARTCHAR 03BC
ENCODING 956
SWIDTH 553 0
DWIDTH 20 0
BBX 18 24 2 -8
BITMAP
7C3E00
7C3E00
7C3E00
7C3E00
7C3E00
7C3E00
7C3E00
7C3E00
7C3E00
7C3E00
7C3E00
7C3E40
7C3E40
7C7E40
7FBF80
7F1F00
600000
700000
F00000
F00000
F00000
F00000
F00000
600000
ENDCHAR
STARTCHAR 03BD
ENCODING 957
SWIDTH 443 0
DWIDTH 16 0
BBX 15 17 0 0
BITMAP
1C0E
FC1E
7E1E
3E1E
3E0E
1F0E
1F0C
1F8C
0F88
0FD8
07D0
07F0
03E0
03E0
03C0
01C0
0180
ENDCHAR
STARTCHAR 03BE
ENCODING 958
SWIDTH 443 0
DWIDTH 16 0
BBX 15 33 1 -8
BITMAP
1000
21E0
63E0
37C0
1F80
1800
1000
3000
3020
11F8
0FF8
0BF0
3000
2000
4000
4000
C000
C000
C000
E000
FFE0
7FF8
7FFC
3FFE
1FFE
078E
0002
0002
0006
00CC
01FC
01F8
00E0
ENDCHAR
STARTCHAR 03BF
ENCODING 959
SWIDTH 498 0
DWIDTH 18 0
BBX 16 17 1 0
BITMAP
07E0
0E78
1C3C
3C3C
7C3E
7C1E
7C1F
FC1F
FC1F
FC1F
FC1F
7C1E
7C3E
7C3E
3C3C
1C38
0FF0
ENDCHAR
STARTCHAR 03C0
ENCODING 960
SWIDTH 553 0
DWIDTH 20 0
BBX 19 16 0 0
BITMAP
1FFFE0
3FFFE0
7FFFE0
7FFFE0
C31E00
031E00
071E00
071E00
071E00
0E1E00
0E1E00
1E1E00
3E1E40
7E1E40
7C1F80
3C1F80
ENDCHAR
STARTCHAR 03C1
ENCODING 961
SWIDTH 526 0
DWIDTH 19 0
BBX 16 25 2 -8
BITMAP
07E0
1C78
3C3C
783E
783E
783E
781F
781F
F81F
F81F
F81F
F81E
F81E
F83E
FC3C
FE78
FBF0
F800
F800
F800
F800
F800
F800
F800
F800
ENDCHAR
STARTCHAR 03C2
ENCODING 962
SWIDTH 415 0
DWIDTH 15 0
BBX 14 25 1 -8
BITMAP
01F0
07F8
0FFC
1878
3000
6000
4000
C000
C000
C000
C000
E000
FFC0
FFF0
7FF8
3FF8
1FFC
031C
000C
000C
000C
0318
03F8
03F0
01C0
ENDCHAR
STARTCHAR 03C3
ENCODING 963
SWIDTH 553 0
DWIDTH 20 0
BBX 18 16 1 0
BITMAP
07FFC0
1FFFC0
3FFFC0
7FFFC0
7E3800
FC1E00
FC1E00
F81F00
F81F00
780F00
780F00
7C1F00
3C1F00
3C1E00
1E1C00
07F800
ENDCHAR
STARTCHAR 03C4
ENCODING 964
SWIDTH 470 0
DWIDTH 17 0
BBX 16 16 0 0
BITMAP
1FFF
3FFF
7FFF
7FFF
81C0
01C0
03C0
03C0
03C0
03C0
03C0
03C4
03C8
03E8
03F8
01F0
ENDCHAR
STARTCHAR 03C5
ENCODING 965
SWIDTH 526 0
DWIDTH 19 0
BBX 17 17 0 0
BITMAP
1E1800
7F0E00
7F0700
9F8300
8F8380
8F8380
0F8380
0F8380
0F8380
0F8380
0F8380
0F8380
0F8380
0F8300
0F8700
078600
03FC00
ENDCHAR
STARTCHAR 03C6
ENCODING 966
SWIDTH 636 0
DWIDTH 23 0
BBX 20 25 1 -8
BITMAP
031E00
0E3F80
1C73C0
3C73E0
7C71E0
7871F0
7871F0
F871F0
F871F0
F871F0
7871F0
7871F0
7C71E0
3C71E0
1C73C0
0E7780
07FE00
007000
007000
007000
007000
007000
007000
007000
007000
ENDCHAR
STARTCHAR 03C7
ENCODING 967
SWIDTH 470 0
DWIDTH 17 0
BBX 17 25 0 -8
BITMAP
180000
7C1F00
7E1E00
6E3E00
823C00
827C00
037C00
01F800
01F800
01F000
01F000
01E000
03E000
03C000
07C000
07C000
0FE000
0F2000
1F2000
1E2080
3E3080
3C1F80
7C1F80
780F00
F80600
ENDCHAR
STARTCHAR 03C8
ENCODING 968
SWIDTH 692 0
DWIDTH 25 0
BBX 23 25 1 -8
BITMAP
E0381E
F8383C
7C387C
7C387C
7C387C
7C3878
7C3878
3E38F8
3E38F8
3E38F8
3E38F8
3E38F0
1E38F0
1F39E0
0F39E0
07BBC0
01FF00
003800
003800
003800
003800
003800
003800
003800
003800
ENDCHAR
STARTCHAR 03C9
ENCODING 969
SWIDTH 720 0
DWIDTH 26 0
BBX 24 17 1 0
BITMAP
03C3C0
0F0070
1E003C
3C1C3C
7C3C3E
7C3C1E
7C3C1F
7C3C1F
FC3C1F
FC1C1F
FC1C1F
7C181F
7C081E
7C183E
3E343E
1F67FC
0FC1F8
ENDCHAR
STARTCHAR 03CA
ENCODING 970
SWIDTH 304 0
DWIDTH 11 0
BBX 11 24 0 0
BITMAP
F1C0
F3E0
F3E0
F1E0
0080
0000
0000
0000
7F00
1F00
1F00
1F00
1F00
1F00
1F00
1F00
1F00
1F00
1F00
1F20
1F20
1F20
1FC0
0FC0
ENDCHAR
STARTCHAR 03CB
ENCODING 971
SWIDTH 526 0
DWIDTH 19 0
BBX 17 24 0 0
BITMAP
0F1C00
0F3E00
0F3E00
0F1E00
000800
000000
000000
1E1800
7F0E00
7F0700
9F8300
8F8380
8F8380
0F8380
0F8380
0F8380
0F8380
0F8380
0F8380
0F8380
0F8300
0F8700
078600
03FC00
ENDCHAR
STARTCHAR 03CC
ENCODING 972
SWIDTH 498 0
DWIDTH 18 0
BBX 16 25 1 0
BITMAP
00F8
00F0
01E0
01C0
0180
0300
0000
0000
07E0
0E78
1C3C
3C3C
7C3E
7C1E
7C1F
FC1F
FC1F
FC1F
FC1F
7C1E
7C3E
7C3E
3C3C
1C38
0FF0
ENDCHAR
STARTCHAR 03CD
ENCODING 973
SWIDTH 526 0
DWIDTH 19 0
BBX 17 25 0 0
BITMAP
007C00
007800
007800
00F000
00E000
00C000
000000
000000
1E1800
7F0E00
7F0700
9F8300
8F8380
8F8380
0F8380
0F8380
0F8380
0F8380
0F8380
0F8380
0F8380
0F8300
0F8700
078600
03FC00
ENDCHAR
STARTCHAR 03CE
ENCODING 974
SWIDTH 720 0
DWIDTH 26 0
BBX 24 25 1 0
BITMAP
000F80
000F00
000E00
001C00
001C00
001800
000000
000000
03C3C0
0F0070
1E003C
3C1C3C
7C3C3E
7C3C1E
7C3C1F
7C3C1F
FC3C1F
FC1C1F
FC1C1F
7C181F
7C081E
7C183E
3E343E
1F67FC
0FC1F8
ENDCHAR
STARTCHAR 0401
ENCODING 1025
SWIDTH 664 0
DWIDTH 24 0
BBX 21 31 1 0
BITMAP
038700
03CF80
07CF80
03CF00
018600
000000
000000
FFFFF0
1F8FF0
1F8070
1F8030
1F8030
1F8010
1F8210
1F8200
1F8600
1F8600
1F8E00
1FFE00
1FFE00
1F8E00
1F8600
1F8600
1F8200
1F8208
1F8008
1F8018
1F8018
1F8078
1FC3F8
FFFFF0
ENDCHAR
STARTCHAR 0402
ENCODING 1026
SWIDTH 803 0
DWIDTH 29 0
BBX 27 24 1 0
BITMAP
FFFFF000
FFFFF000
E1F83000
C1F81000
81F81000
81F80000
01F80000
01F83800
01F9FE00
01FBFF00
01FE3F80
01F81FC0
01F80FC0
01F80FC0
01F80FE0
01F80FE0
01F80FE0
01F80FE0
01F80FC0
01F80FC0
01F80FC0
01F80F80
03F80F00
1FFE7E00
ENDCHAR
STARTCHAR 0403
ENCODING 1027
SWIDTH 636 0
DWIDTH 23 0
BBX 21 32 1 0
BITMAP
003E00
003C00
003800
007000
006000
006000
000000
000000
FFFFF8
1FFFF8
1F8038
1F8018
1F8008
1F8008
1F8008
1F8000
1F8000
1F8000
1F8000
1F8000
1F8000
1F8000
1F8000
1F8000
1F8000
1F8000
1F8000
1F8000
1F8000
1F8000
1F8000
FFF000
ENDCHAR
STARTCHAR 0404
ENCODING 1028
SWIDTH 664 0
DWIDTH 24 0
BBX 22 25 1 -1
BITMAP
00FF84
03E0FC
0FC03C
0F801C
1F000C
3F000C
7E0004
7E0000
7E0000
7E0000
FE0000
FFFF00
FFFF00
FE0000
7E0000
7E0000
7E0000
7E0000
3F0000
1F0000
1F800C
0FC018
03E060
01FFC0
000800
ENDCHAR
STARTCHAR 0405
ENCODING 1029
SWIDTH 553 0
DWIDTH 20 0
BBX 17 25 2 -1
BITMAP
1FE200
383E00
700E00
700600
F00600
F00200
F80200
FC0200
FF0000
7FC000
7FF000
3FFC00
1FFE00
07FF00
01FF00
007F00
801F80
800F80
C00F80
C00700
E00700
F00E00
F81C00
8FF800
808000
ENDCHAR
STARTCHAR 0406
ENCODING 1030
SWIDTH 387 0
DWIDTH 14 0
BBX 12 24 1 0
BITMAP
FFF0
1F80
1F80
1F80
1F80
1F80
1F80
1F80
1F80
1F80
1F80
1F80
1F80
1F80
1F80
1F80
1F80
1F80
1F80
1F80
1F80
1F80
1F80
FFF0
ENDCHAR
STARTCHAR 0407
ENCODING 1031
SWIDTH 387 0
DWIDTH 14 0
BBX 12 31 1 0
BITMAP
70E0
79F0
F9F0
79E0
30C0
0000
0000
FFF0
1F80
1F80
1F80
1F80
1F80
1F80
1F80
1F80
1F80
1F80
1F80
1F80
1F80
1F80
1F80
1F80
1F80
1F80
1F80
1F80
1F80
1F80
FFF0
ENDCHAR
STARTCHAR 0408
ENCODING 1032
SWIDTH 498 0
DWIDTH 18 0
BBX 18 25 0 -1
BITMAP
07FFC0
00FE00
007E00
007E00
007C00
007C00
007C00
007C00
007C00
007C00
007C00
007C00
007C00
007C00
007C00
007C00
007C00
787C00
787C00
FC7C00
787C00
707800
38F800
1FE000
010000
ENDCHAR
STARTCHAR 0409
ENCODING 1033
SWIDTH 996 0
DWIDTH 36 0
BBX 35 24 0 0
BITMAP
03FFFF8000
007FFE0000
0020FC0000
0020FC0000
0020FC0000
0020FC0000
0020FC0000
0020FC0000
0020FC0000
0020FC0000
0020FC0000
0020FFFC00
0020FFFF00
0020FC1FC0
0020FC0FC0
0020FC0FE0
0020FC0FE0
0060FC07E0
0060FC07E0
7040FC0FE0
F8C0FC0FC0
F980FC1FC0
FF00FE3F00
7E07FFFC00
ENDCHAR
STARTCHAR 040A
ENCODING 1034
SWIDTH 996 0
DWIDTH 36 0
BBX 34 24 1 0
BITMAP
FFEFFF0000
1F81FC0000
1F81F80000
1F81F80000
1F81F80000
1F81F80000
1F81F80000
1F81F80000
1F81F80000
1F81F80000
1F81F80000
1FFFFFF800
1F81FFFE00
1F81F83F80
1F81F81F80
1F81F81FC0
1F81F81FC0
1F81F80FC0
1F81F80FC0
1F81F81FC0
1F81F81F80
1F81F83F00
1F81FC7E00
FFEFFFF800
ENDCHAR
STARTCHAR 040B
ENCODING 1035
SWIDTH 803 0
DWIDTH 29 0
BBX 27 24 1 0
BITMAP
FFFFE000
FFFFE000
E1F8E000
C1F86000
81F82000
81F82000
01F80000
01F87000
01F9FC00
01FBFE00
01FFFF00
01F83F00
01F81F00
01F81F00
01F81F00
01F81F00
01F81F00
01F81F00
01F81F00
01F81F00
01F81F00
01F81F00
03F83F80
1FFE7FE0
ENDCHAR
STARTCHAR 040C
ENCODING 1036
SWIDTH 720 0
DWIDTH 26 0
BBX 25 32 1 0
BITMAP
000F8000
000F0000
001E0000
001C0000
00180000
00300000
00000000
00000000
FFF03E00
1F807F00
1F80CF00
1F808F00
1F818F00
1F818000
1F810000
1F830000
1F830000
1F820000
1F860000
1FFC0000
1FFF0000
1F9F8000
1F9FC000
1F8FC000
1F87E000
1F87E000
1F83F000
1F83F000
1F81F800
1F81F800
1F80FC00
FFF0FF80
ENDCHAR
STARTCHAR 040D
ENCODING 1037
SWIDTH 775 0
DWIDTH 28 0
BBX 27 32 1 0
BITMAP
00F80000
00780000
00380000
001C0000
001C0000
000C0000
00000000
00000000
FFF3FFE0
1F807E00
1F807E00
1F807E00
1F807E00
1F80FE00
1F80FE00
1F81FE00
1F837E00
1F837E00
1F867E00
1F847E00
1F8C7E00
1F987E00
1F907E00
1FB07E00
1FE07E00
1FE07E00
1FC07E00
1F807E00
1F807E00
1F807E00
1F807E00
FFF3FFE0
ENDCHAR
STARTCHAR 040E
ENCODING 1038
SWIDTH 747 0
DWIDTH 27 0
BBX 26 32 0 -1
BITMAP
00E03800
00F03C00
00F07800
007FF000
001FC000
00000000
00000000
FFF03FC0
1FC00700
0FC00700
0FC00600
07E00400
07F00C00
03F00800
03F81800
01F81000
00FC3000
00FC2000
007E6000
007E4000
003FC000
003F8000
001F8000
001F0000
000F0000
00060000
07860000
07840000
078C0000
07D80000
03F00000
00800000
ENDCHAR
STARTCHAR 040F
ENCODING 1039
SWIDTH 775 0
DWIDTH 28 0
BBX 26 31 1 -7
BITMAP
FFF3FFC0
1F807E00
1F807E00
1F807E00
1F807E00
1F807E00
1F807E00
1F807E00
1F807E00
1F807E00
1F807E00
1F807E00
1F807E00
1F807E00
1F807E00
1F807E00
1F807E00
1F807E00
1F807E00
1F807E00
1F807E00
1F807E00
1FFFFE00
FFFFFFC0
003F8000
001E0000
000C0000
000C0000
000C0000
00040000
00080000
ENDCHAR
STARTCHAR 0410
ENCODING 1040
SWIDTH 720 0
DWIDTH 26 0
BBX 26 24 0 0
BITMAP
00040000
000C0000
000E0000
001E0000
001E0000
003F0000
003F0000
007F8000
005F8000
004FC000
00CFC000
0087E000
0187E000
0107E000
0303F000
0203F000
07FFF800
0401F800
0400FC00
0C00FC00
0800FE00
18007E00
38007F00
FF03FFC0
ENDCHAR
STARTCHAR 0411
ENCODING 1041
SWIDTH 664 0
DWIDTH 24 0
BBX 22 24 1 0
BITMAP
FFFFF0
1FFFF0
1F8070
1F8030
1F8010
1F8010
1F8000
1F8000
1F8000
1F8000
1F8000
1FFF80
1FFFE0
1F87F0
1F83F8
1F81F8
1F81FC
1F81FC
1F81FC
1F81F8
1F81F8
1F83F0
1FC7E0
FFFF80
ENDCHAR
STARTCHAR 0412
ENCODING 1042
SWIDTH 664 0
DWIDTH 24 0
BBX 22 24 1 0
BITMAP
FFFF00
1FBFC0
1F87E0
1F83F0
1F81F0
1F81F8
1F81F8
1F81F8
1F83F0
1F83E0
1F8F80
1FFF00
1F8FE0
1F83F0
1F81F8
1F81FC
1F80FC
1F80FC
1F80FC
1F81F8
1F81F8
1F83F0
1FCFE0
FFFF00
ENDCHAR
STARTCHAR 0413
ENCODING 1043
SWIDTH 636 0
DWIDTH 23 0
BBX 21 24 1 0
BITMAP
FFFFF8
1FFFF8
1F8038
1F8018
1F8008
1F8008
1F8008
1F8000
1F8000
1F8000
1F8000
1F8000
1F8000
1F8000
1F8000
1F8000
1F8000
1F8000
1F8000
1F8000
1F8000
1F8000
1F8000
FFF000
ENDCHAR
STARTCHAR 0414
ENCODING 1044
SWIDTH 692 0
DWIDTH 25 0
BBX 24 31 0 -7
BITMAP
0FFFFF
01FFF8
00C0F8
00C0F8
00C0F8
00C0F8
00C0F8
00C0F8
0080F8
0080F8
0080F8
0080F8
0080F8
0180F8
0180F8
0100F8
0100F8
0300F8
0200F8
0600F8
0400F8
0C00F8
3FFFF8
FFFFFF
FC001F
F00007
C00003
C00003
800001
800001
800001
ENDCHAR
STARTCHAR 0415
ENCODING 1045
SWIDTH 664 0
DWIDTH 24 0
BBX 21 24 1 0
BITMAP
FFFFF0
1F8FF0
1F8070
1F8030
1F8030
1F8010
1F8210
1F8200
1F8600
1F8600
1F8E00
1FFE00
1FFE00
1F8E00
1F8600
1F8600
1F8200
1F8208
1F8008
1F8018
1F8018
1F8078
1FC3F8
FFFFF0
ENDCHAR
STARTCHAR 0416
ENCODING 1046
SWIDTH 996 0
DWIDTH 36 0
BBX 34 24 1 0
BITMAP
7C1FFE0F80
FE03F03FC0
F303F037C0
F103F067C0
F183F063C0
0183F04000
0083F0C000
00C3F0C000
00C3F08000
0043F18000
0063F30000
003FFF0000
00FFFFC000
01F3F7E000
03F3F3E000
03E3F1F000
07E3F1F000
07C3F1F800
0FC3F0F800
0F83F0FC00
1F83F07E00
1F03F07E00
3F03F03F00
FE1FFE3FC0
ENDCHAR
STARTCHAR 0417
ENCODING 1047
SWIDTH 526 0
DWIDTH 19 0
BBX 17 25 1 -1
BITMAP
4FF800
70FC00
607E00
407F00
403F00
403F00
403F00
003F00
007E00
007C00
00F800
0FC000
0FF800
00FE00
007F00
003F00
003F80
003F80
003F80
003F80
803F00
C07F00
60FE00
3FF800
010000
ENDCHAR
STARTCHAR 0418
ENCODING 1048
SWIDTH 775 0
DWIDTH 28 0
BBX 27 24 1 0
BITMAP
FFF3FFE0
1F807E00
1F807E00
1F807E00
1F807E00
1F80FE00
1F80FE00
1F81FE00
1F837E00
1F837E00
1F867E00
1F847E00
1F8C7E00
1F987E00
1F907E00
1FB07E00
1FE07E00
1FE07E00
1FC07E00
1F807E00
1F807E00
1F807E00
1F807E00
FFF3FFE0
ENDCHAR
STARTCHAR 0419
ENCODING 1049
SWIDTH 775 0
DWIDTH 28 0
BBX 27 31 1 0
BITMAP
03807000
03C0F000
03E1F000
01FFE000
003F0000
00000000
00000000
FFF3FFE0
1F807E00
1F807E00
1F807E00
1F807E00
1F80FE00
1F80FE00
1F81FE00
1F837E00
1F837E00
1F867E00
1F847E00
1F8C7E00
1F987E00
1F907E00
1FB07E00
1FE07E00
1FE07E00
1FC07E00
1F807E00
1F807E00
1F807E00
1F807E00
FFF3FFE0
ENDCHAR
STARTCHAR 041A
ENCODING 1050
SWIDTH 720 0
DWIDTH 26 0
BBX 25 24 1 0
BITMAP
FFF03E00
1F807F00
1F80CF00
1F808F00
1F818F00
1F818000
1F810000
1F830000
1F830000
1F820000
1F860000
1FFC0000
1FFF0000
1F9F8000
1F9FC000
1F8FC000
1F87E000
1F87E000
1F83F000
1F83F000
1F81F800
1F81F800
1F80FC00
FFF0FF80
ENDCHAR
STARTCHAR 041B
ENCODING 1051
SWIDTH 747 0
DWIDTH 27 0
BBX 26 24 0 0
BITMAP
03FFFFC0
007FFE00
00207E00
00207E00
00207E00
00207E00
00207E00
00207E00
00207E00
00207E00
00207E00
00207E00
00207E00
00207E00
00207E00
00207E00
00207E00
00607E00
00607E00
70407E00
F8C07E00
F9807E00
7F007E00
7E03FFC0
ENDCHAR
STARTCHAR 041C
ENCODING 1052
SWIDTH 941 0
DWIDTH 34 0
BBX 32 24 1 0
BITMAP
FFC001FF
1FC003FC
1FE003F8
17E007F8
17E005F8
13F00DF8
13F009F8
11F809F8
11F819F8
11FC11F8
10FC31F8
10FC21F8
107E21F8
107E61F8
103F41F8
103FC1F8
103F81F8
101F81F8
101F01F8
100F01F8
100F01F8
180601F8
380601FC
FF040FFF
ENDCHAR
STARTCHAR 041D
ENCODING 1053
SWIDTH 775 0
DWIDTH 28 0
BBX 26 24 1 0
BITMAP
FFF3FFC0
1F807F00
1F807E00
1F807E00
1F807E00
1F807E00
1F807E00
1F807E00
1F807E00
1F807E00
1F807E00
1FFFFE00
1F807E00
1F807E00
1F807E00
1F807E00
1F807E00
1F807E00
1F807E00
1F807E00
1F807E00
1F807E00
1F807F00
FFF3FFC0
ENDCHAR
STARTCHAR 041E
ENCODING 1054
SWIDTH 775 0
DWIDTH 28 0
BBX 26 25 1 -1
BITMAP
00FFC000
03E0F000
07807C00
0F803E00
1F003F00
3F001F00
3E001F80
7E001F80
7E001F80
7E001FC0
7E001FC0
FE001FC0
FE001FC0
FE001FC0
7E001FC0
7E001F80
7E001F80
3E001F80
3F001F00
1F003E00
1F803E00
0F807C00
03C0F000
00FFE000
00040000
ENDCHAR
STARTCHAR 041F
ENCODING 1055
SWIDTH 775 0
DWIDTH 28 0
BBX 26 24 1 0
BITMAP
FFFFFFC0
1FFFFE00
1F807E00
1F807E00
1F807E00
1F807E00
1F807E00
1F807E00
1F807E00
1F807E00
1F807E00
1F807E00
1F807E00
1F807E00
1F807E00
1F807E00
1F807E00
1F807E00
1F807E00
1F807E00
1F807E00
1F807E00
1F807E00
FFF3FFC0
ENDCHAR
STARTCHAR 0420
ENCODING 1056
SWIDTH 609 0
DWIDTH 22 0
BBX 20 24 1 0
BITMAP
FFFC00
1FBF80
1F87C0
1F87E0
1F83F0
1F83F0
1F83F0
1F83F0
1F83F0
1F83E0
1F87E0
1F8F80
1FFE00
1F8000
1F8000
1F8000
1F8000
1F8000
1F8000
1F8000
1F8000
1F8000
1F8000
FFF000
ENDCHAR
STARTCHAR 0421
ENCODING 1057
SWIDTH 720 0
DWIDTH 26 0
BBX 23 25 1 -1
BITMAP
007FE2
01F07E
07E01E
0F800E
1F8006
1F0002
3F0002
7E0002
7E0000
7E0000
7E0000
FE0000
FE0000
FE0000
7E0000
7E0000
7E0000
7F0000
3F0000
1F0002
1F8006
0FC01C
03F070
00FFE0
000400
ENDCHAR
STARTCHAR 0422
ENCODING 1058
SWIDTH 664 0
DWIDTH 24 0
BBX 22 24 1 0
BITMAP
FFFFFC
FCFCFC
E0FC1C
C0FC0C
C0FC0C
80FC04
80FC04
00FC00
00FC00
00FC00
00FC00
00FC00
00FC00
00FC00
00FC00
00FC00
00FC00
00FC00
00FC00
00FC00
00FC00
00FC00
00FC00
07FF80
ENDCHAR
STARTCHAR 0423
ENCODING 1059
SWIDTH 747 0
DWIDTH 27 0
BBX 26 25 0 -1
BITMAP
FFF03FC0
1FC00700
0FC00700
0FC00600
07E00400
07F00C00
03F00800
03F81800
01F81000
00FC3000
00FC2000
007E6000
007E4000
003FC000
003F8000
001F8000
001F0000
000F0000
00060000
07860000
07840000
078C0000
07D80000
03F00000
00800000
ENDCHAR
STARTCHAR 0424
ENCODING 1060
SWIDTH 858 0
DWIDTH 31 0
BBX 29 24 1 0
BITMAP
00FFF800
001FC000
000FC000
001FC000
07FFFF00
1F0F8780
3E0F83E0
3E0F83E0
7E0F81F0
7C0F81F0
FC0F81F8
FC0F81F8
FC0F81F8
FC0F81F8
7C0F81F0
7E0F83F0
3E0F83E0
1F0F87C0
0F8F8F80
03FFFE00
000F8000
000F8000
001FC000
00FFF800
ENDCHAR
STARTCHAR 0425
ENCODING 1061
SWIDTH 720 0
DWIDTH 26 0
BBX 26 24 0 0
BITMAP
7FF8FF80
1FC01E00
1FC01C00
0FE01800
07F03000
07F06000
03F8C000
01FC8000
01FD0000
00FF0000
007F0000
007F0000
003F8000
001FC000
002FC000
006FE000
00C7F000
0183F000
0103F800
0201FC00
0600FC00
0C00FE00
1E00FF00
FF83FFC0
ENDCHAR
STARTCHAR 0426
ENCODING 1062
SWIDTH 775 0
DWIDTH 28 0
BBX 26 31 1 -7
BITMAP
FFF3FFC0
1F807E00
1F807E00
1F807E00
1F807E00
1F807E00
1F807E00
1F807E00
1F807E00
1F807E00
1F807E00
1F807E00
1F807E00
1F807E00
1F807E00
1F807E00
1F807E00
1F807E00
1F807E00
1F807E00
1F807E00
1F807E00
1FFFFE00
FFFFFFC0
000007C0
000003C0
000000C0
000000C0
00000040
00000040
00000040
ENDCHAR
STARTCHAR 0427
ENCODING 1063
SWIDTH 747 0
DWIDTH 27 0
BBX 26 24 0 0
BITMAP
FFF3FFC0
1FC0FE00
1F807C00
1F807C00
1F807C00
1F807C00
1F807C00
1F807C00
1F807C00
1F807C00
0F807C00
0FC07C00
0FE3FC00
0FFF7C00
03F87C00
00007C00
00007C00
00007C00
00007C00
00007C00
00007C00
00007C00
0000FE00
0007FFC0
ENDCHAR
STARTCHAR 0428
ENCODING 1064
SWIDTH 1107 0
DWIDTH 40 0
BBX 36 24 2 0
BITMAP
FFCFFE7FF0
3F01F81FC0
3F01F80FC0
3F01F80FC0
3F01F80FC0
3F01F80FC0
3F01F80FC0
3F01F80FC0
3F01F80FC0
3F01F80FC0
3F01F80FC0
3F01F80FC0
3F01F80FC0
3F01F80FC0
3F01F80FC0
3F01F80FC0
3F01F80FC0
3F01F80FC0
3F01F80FC0
3F01F80FC0
3F01F80FC0
3F01F80FC0
3FFFFFFFC0
FFFFFFFFF0
ENDCHAR
STARTCHAR 0429
ENCODING 1065
SWIDTH 1107 0
DWIDTH 40 0
BBX 36 31 2 -7
BITMAP
FFCFFE7FF0
3F01F81FC0
3F01F80FC0
3F01F80FC0
3F01F80FC0
3F01F80FC0
3F01F80FC0
3F01F80FC0
3F01F80FC0
3F01F80FC0
3F01F80FC0
3F01F80FC0
3F01F80FC0
3F01F80FC0
3F01F80FC0
3F01F80FC0
3F01F80FC0
3F01F80FC0
3F01F80FC0
3F01F80FC0
3F01F80FC0
3F01F80FC0
3FFFFFFFC0
FFFFFFFFF0
00000001F0
0000000070
0000000030
0000000030
0000000010
0000000010
0000000010
ENDCHAR
STARTCHAR 042A
ENCODING 1066
SWIDTH 775 0
DWIDTH 28 0
BBX 25 24 1 0
BITMAP
FFFF0000
FFF80000
E1F80000
C1F80000
81F80000
81F80000
81F80000
01F80000
01F80000
01F80000
01F80000
01FFF800
01FFFE00
01F87F00
01F83F80
01F81F80
01F81F80
01F81F80
01F81F80
01F81F80
01F81F80
01F83F00
03FC7E00
1FFFF800
ENDCHAR
STARTCHAR 042B
ENCODING 1067
SWIDTH 969 0
DWIDTH 35 0
BBX 34 24 1 0
BITMAP
FFF007FFC0
1F8000FE00
1F80007C00
1F80007C00
1F80007C00
1F80007C00
1F80007C00
1F80007C00
1F80007C00
1F80007C00
1F80007C00
1FFF807C00
1FFFE07C00
1F87F07C00
1F83F87C00
1F81F87C00
1F81FC7C00
1F81FC7C00
1F81FC7C00
1F81F87C00
1F81F87C00
1F83F07C00
1FC7E0FE00
FFFF87FFC0
ENDCHAR
STARTCHAR 042C
ENCODING 1068
SWIDTH 664 0
DWIDTH 24 0
BBX 22 24 1 0
BITMAP
FFF000
1F8000
1F8000
1F8000
1F8000
1F8000
1F8000
1F8000
1F8000
1F8000
1F8000
1FFF80
1FFFE0
1F87F0
1F83F8
1F81F8
1F81FC
1F81FC
1F81FC
1F81F8
1F81F8
1F83F0
1FC7E0
FFFF80
ENDCHAR
STARTCHAR 042D
ENCODING 1069
SWIDTH 664 0
DWIDTH 24 0
BBX 21 25 2 -1
BITMAP
8FFC00
F83F00
E00F80
C007C0
C007E0
8003F0
8003F0
0003F0
0001F8
0001F8
0001F8
07FFF8
07FFF8
0001F8
0001F8
0001F8
0003F8
0003F0
0003F0
8007E0
C007C0
600F80
383F00
0FFC00
008000
ENDCHAR
STARTCHAR 042E
ENCODING 1070
SWIDTH 1135 0
DWIDTH 41 0
BBX 38 25 1 -1
BITMAP
FFF007FE00
1F801E0F80
1F807C07C0
1F80F803E0
1F81F801F0
1F81F001F8
1F83F001F8
1F83F000FC
1F87F000FC
1F87E000FC
1F87E000FC
1FFFE000FC
1F87E000FC
1F87E000FC
1F87E000FC
1F87F000FC
1F83F000FC
1F83F001F8
1F81F001F8
1F81F801F0
1F80F803E0
1F807C03C0
1F803E0F80
FFF00FFE00
0000004000
ENDCHAR
STARTCHAR 042F
ENCODING 1071
SWIDTH 720 0
DWIDTH 26 0
BBX 25 24 0 0
BITMAP
007FFF80
03FCFE00
07E0FC00
0FC0FC00
0FC0FC00
1F80FC00
1F80FC00
1F80FC00
0F80FC00
0FC0FC00
07C0FC00
03F8FC00
00FFFC00
00FEFC00
01FCFC00
01F8FC00
03F8FC00
07F0FC00
07E0FC00
0FC0FC00
1FC0FC00
3F80FC00
3F00FE00
FF07FF80
ENDCHAR
STARTCHAR 0430
ENCODING 1072
SWIDTH 498 0
DWIDTH 18 0
BBX 15 17 2 0
BITMAP
0FC0
39F0
70F8
F0F8
F8F8
F8F8
70F8
03F8
06F8
1CF8
78F8
F8F8
F0F8
F8F8
FFF8
FE7E
7C7C
ENDCHAR
STARTCHAR 0431
ENCODING 1073
SWIDTH 498 0
DWIDTH 18 0
BBX 16 24 1 0
BITMAP
01FE
07FE
0FFC
1FF8
3C00
3000
6000
63E0
4E78
5C3C
7C3C
FC3E
FC1E
FC1F
FC1F
FC1F
FC1F
7C1F
7C1E
7C3E
7C3E
3C3C
1C38
0FF0
ENDCHAR
STARTCHAR 0432
ENCODING 1074
SWIDTH 553 0
DWIDTH 20 0
BBX 17 16 1 0
BITMAP
7FFC00
3E3E00
3E1F00
3E1F00
3E1F00
3E1E00
3E3C00
3FF800
3E1F00
3E0F80
3E0F80
3E0F80
3E0F80
3E0F80
3F3F00
FFF800
ENDCHAR
STARTCHAR 0433
ENCODING 1075
SWIDTH 443 0
DWIDTH 16 0
BBX 15 16 1 0
BITMAP
7FFE
3E06
3E02
3E02
3E00
3E00
3E00
3E00
3E00
3E00
3E00
3E00
3E00
3E00
3E00
FF80
ENDCHAR
STARTCHAR 0434
ENCODING 1076
SWIDTH 498 0
DWIDTH 18 0
BBX 17 20 0 -4
BITMAP
1FFF00
043E00
043E00
043E00
043E00
043E00
043E00
0C3E00
0C3E00
083E00
083E00
183E00
103E00
103E00
203E00
FFFF80
E00380
C00180
800080
800080
ENDCHAR
STARTCHAR 0435
ENCODING 1077
SWIDTH 443 0
DWIDTH 16 0
BBX 14 17 1 0
BITMAP
07C0
0E70
1C78
3838
783C
783C
783C
FFFC
F800
F800
FC00
7C00
7C04
7E04
3F18
1FF0
0FE0
ENDCHAR
STARTCHAR 0436
ENCODING 1078
SWIDTH 720 0
DWIDTH 26 0
BBX 26 17 0 0
BITMAP
38000700
7C7F8F80
761F0B80
721F13C0
721F1380
011F3000
011F2000
019F6000
03FFF000
07DFF800
0F9F7C00
0F9F7C00
1F1F3E00
1F1F3E00
3E1F1F00
3E3F1F00
FC7F8FC0
ENDCHAR
STARTCHAR 0437
ENCODING 1079
SWIDTH 415 0
DWIDTH 15 0
BBX 13 17 1 0
BITMAP
5F80
E3E0
C1E0
81F0
81F0
01E0
01E0
03C0
0F80
03E0
01F0
00F0
00F8
01F0
81F0
63E0
3FC0
ENDCHAR
STARTCHAR 0438
ENCODING 1080
SWIDTH 581 0
DWIDTH 21 0
BBX 19 16 1 0
BITMAP
7F1FC0
3E0F80
3E0F80
3E1F80
3E1F80
3E2F80
3E6F80
3E4F80
3ECF80
3E8F80
3F0F80
3F0F80
3E0F80
3E0F80
3E0F80
FFBFE0
ENDCHAR
STARTCHAR 0439
ENCODING 1081
SWIDTH 581 0
DWIDTH 21 0
BBX 19 24 1 0
BITMAP
0C0600
1E0F00
1E0E00
0F1E00
03F800
000000
000000
000000
7F1FC0
3E0F80
3E0F80
3E1F80
3E1F80
3E2F80
3E6F80
3E4F80
3ECF80
3E8F80
3F0F80
3F0F80
3E0F80
3E0F80
3E0F80
FFBFE0
ENDCHAR
STARTCHAR 043A
ENCODING 1082
SWIDTH 581 0
DWIDTH 21 0
BBX 19 17 1 0
BITMAP
000380
7F07E0
3E09E0
3E09E0
3E11E0
3E1000
3E3000
3E6000
3FF000
3EFC00
3E7C00
3E3E00
3E3F00
3E1F00
3E1F80
3E0FC0
FF87E0
ENDCHAR
STARTCHAR 043B
ENCODING 1083
SWIDTH 553 0
DWIDTH 20 0
BBX 19 16 0 0
BITMAP
07FFC0
030F80
030F80
030F80
030F80
030F80
030F80
030F80
030F80
030F80
030F80
720F80
F20F80
F20F80
FE0F80
7C3FE0
ENDCHAR
STARTCHAR 043C
ENCODING 1084
SWIDTH 692 0
DWIDTH 25 0
BBX 22 16 1 0
BITMAP
7F01FC
3F01F8
3F02F0
2F82F0
2F86F0
27C4F0
27C4F0
27C8F0
23E8F0
23F0F0
21F0F0
21F0F0
21E0F0
20E0F8
30C1F8
F843FC
ENDCHAR
STARTCHAR 043D
ENCODING 1085
SWIDTH 581 0
DWIDTH 21 0
BBX 19 16 1 0
BITMAP
7F1FC0
3E0F80
3E0F80
3E0F80
3E0F80
3E0F80
3E0F80
3FFF80
3E0F80
3E0F80
3E0F80
3E0F80
3E0F80
3E0F80
3E0F80
FFBFE0
ENDCHAR
STARTCHAR 043E
ENCODING 1086
SWIDTH 498 0
DWIDTH 18 0
BBX 16 17 1 0
BITMAP
07E0
0E78
1C3C
3C3C
7C3E
7C1E
7C1F
FC1F
FC1F
FC1F
FC1F
7C1E
7C3E
7C3E
3C3C
1C38
0FF0
ENDCHAR
STARTCHAR 043F
ENCODING 1087
SWIDTH 581 0
DWIDTH 21 0
BBX 19 16 1 0
BITMAP
7FFFC0
3E0F80
3E0F80
3E0F80
3E0F80
3E0F80
3E0F80
3E0F80
3E0F80
3E0F80
3E0F80
3E0F80
3E0F80
3E0F80
3E0F80
FFBFE0
ENDCHAR
STARTCHAR 0440
ENCODING 1088
SWIDTH 553 0
DWIDTH 20 0
BBX 18 25 1 -8
BITMAP
007800
FEFE00
3F1F00
3E1F00
3E0F80
3E0F80
3E0F80
3E0F80
3E0FC0
3E0FC0
3E0F80
3E0F80
3E0F80
3E0F80
3E0F00
3F9E00
3EFC00
3E0000
3E0000
3E0000
3E0000
3E0000
3E0000
7E0000
FF8000
ENDCHAR
STARTCHAR 0441
ENCODING 1089
SWIDTH 443 0
DWIDTH 16 0
BBX 14 17 1 0
BITMAP
07E0
0EF0
1C78
387C
787C
7838
7800
F800
F800
FC00
FC00
7C00
7E00
7E04
3F98
1FF0
0FE0
ENDCHAR
STARTCHAR 0442
ENCODING 1090
SWIDTH 498 0
DWIDTH 18 0
BBX 16 16 1 0
BITMAP
FFFF
87C1
87C1
07C1
07C0
07C0
07C0
07C0
07C0
07C0
07C0
07C0
07C0
07C0
07E0
0FF0
ENDCHAR
STARTCHAR 0443
ENCODING 1091
SWIDTH 498 0
DWIDTH 18 0
BBX 16 24 1 -8
BITMAP
FF0F
7E06
3E04
3E04
3F0C
1F08
1F88
0F98
0F90
07D0
07E0
03E0
03E0
03C0
01C0
0180
0080
0180
0100
F100
F200
F200
FC00
3800
ENDCHAR
STARTCHAR 0444
ENCODING 1092
SWIDTH 692 0
DWIDTH 25 0
BBX 23 32 1 -8
BITMAP
01FC00
007C00
007C00
007C00
007C00
007C00
007C00
0F7DE0
1FFFF0
3E7CF8
3C7C7C
7C7C7C
7C7C7C
7C7C3C
787C3E
F87C3E
F87C3E
787C3C
7C7C3C
7C7C7C
7C7C7C
3C7C78
3FFFF8
1FFFF0
007C00
007C00
007C00
007C00
007C00
007C00
007C00
01FF00
ENDCHAR
STARTCHAR 0445
ENCODING 1093
SWIDTH 498 0
DWIDTH 18 0
BBX 16 16 1 0
BITMAP
FF3E
3F18
1F10
1FB0
0FA0
0FC0
07C0
07E0
03E0
03F0
07F0
05F8
08FC
187C
387E
FDFF
ENDCHAR
STARTCHAR 0446
ENCODING 1094
SWIDTH 581 0
DWIDTH 21 0
BBX 19 20 1 -4
BITMAP
7F1FC0
3E0F80
3E0F80
3E0F80
3E0F80
3E0F80
3E0F80
3E0F80
3E0F80
3E0F80
3E0F80
3E0F80
3E0F80
3E0F80
3F1F80
FFFFE0
0001E0
000060
000060
000020
ENDCHAR
STARTCHAR 0447
ENCODING 1095
SWIDTH 553 0
DWIDTH 20 0
BBX 18 16 1 0
BITMAP
FF3F80
3E1F00
3E1F00
3E1F00
3E1F00
3E1F00
3E1F00
3E3F00
1FFF00
001F00
001F00
001F00
001F00
001F00
001F80
003FC0
ENDCHAR
STARTCHAR 0448
ENCODING 1096
SWIDTH 830 0
DWIDTH 30 0
BBX 28 16 1 0
BITMAP
7F1FCFF0
3E0F87C0
3E0F87C0
3E0F87C0
3E0F87C0
3E0F87C0
3E0F87C0
3E0F87C0
3E0F87C0
3E0F87C0
3E0F87C0
3E0F87C0
3E0F87C0
3E0F87C0
3E0F87E0
FFFFFFF0
ENDCHAR
STARTCHAR 0449
ENCODING 1097
SWIDTH 830 0
DWIDTH 30 0
BBX 28 20 1 -4
BITMAP
7F1FCFF0
3E0F87C0
3E0F87C0
3E0F87C0
3E0F87C0
3E0F87C0
3E0F87C0
3E0F87C0
3E0F87C0
3E0F87C0
3E0F87C0
3E0F87C0
3E0F87C0
3E0F87C0
3E0F87E0
FFFFFFF0
00000070
00000030
00000010
00000010
ENDCHAR
STARTCHAR 044A
ENCODING 1098
SWIDTH 581 0
DWIDTH 21 0
BBX 19 16 1 0
BITMAP
FFC000
8F8000
8F8000
0F8000
0F8000
0F8000
0F8000
0FFE00
0F8F80
0F87C0
0F83E0
0F83E0
0F83E0
0F87C0
0F8F80
3FFE00
ENDCHAR
STARTCHAR 044B
ENCODING 1099
SWIDTH 775 0
DWIDTH 28 0
BBX 26 16 1 0
BITMAP
7F003F80
3E001F00
3E001F00
3E001F00
3E001F00
3E001F00
3E001F00
3FF81F00
3E3E1F00
3E1F1F00
3E0F9F00
3E0F9F00
3E0F9F00
3E1F1F00
3E3E1F00
FFF87FC0
ENDCHAR
STARTCHAR 044C
ENCODING 1100
SWIDTH 526 0
DWIDTH 19 0
BBX 17 16 1 0
BITMAP
7F0000
3E0000
3E0000
3E0000
3E0000
3E0000
3E0000
3FF800
3E3E00
3E1F00
3E0F80
3E0F80
3E0F80
3E1F00
3E3E00
FFF800
ENDCHAR
STARTCHAR 044D
ENCODING 1101
SWIDTH 443 0
DWIDTH 16 0
BBX 13 17 1 0
BITMAP
9F00
FFC0
C1E0
C0F0
80F0
00F8
00F8
00F8
0FF8
00F8
00F8
00F8
00F8
00F0
81F0
41E0
3FC0
ENDCHAR
STARTCHAR 044E
ENCODING 1102
SWIDTH 775 0
DWIDTH 28 0
BBX 25 17 1 0
BITMAP
0001F000
7F07BC00
3E0F1E00
3E1E0F00
3E1E0F80
3E3E0F80
3E3E0F80
3E3E0F80
3FFE0F80
3E3E0F80
3E3E0F80
3E3E0F80
3E3E0F80
3E1E0F00
3E0F0F00
3E0F1E00
FF83F800
ENDCHAR
STARTCHAR 044F
ENCODING 1103
SWIDTH 553 0
DWIDTH 20 0
BBX 17 16 1 0
BITMAP
3FFF80
7E3F00
7C3E00
7C3E00
7C3E00
7C3E00
3E3E00
1FFE00
0FFE00
0FBE00
1F3E00
1F3E00
1E3E00
3E3F00
3E3F00
FC7F80
ENDCHAR
STARTCHAR 0451
ENCODING 1105
SWIDTH 443 0
DWIDTH 16 0
BBX 14 24 1 0
BITMAP
1C70
3C78
3EF8
3C78
0820
0000
0000
07C0
0E70
1C78
3838
783C
783C
783C
FFFC
F800
F800
FC00
7C00
7C04
7E04
3F18
1FF0
0FE0
ENDCHAR
STARTCHAR 0452
ENCODING 1106
SWIDTH 526 0
DWIDTH 19 0
BBX 17 32 1 -8
BITMAP
FE0000
3E0000
3E0000
FFFC00
3E0000
3E0000
3E0000
3E7800
3EFE00
3F1E00
3E1F00
3E1F00
3E1F00
3E1F00
3E1F80
3E1F80
3E1F80
3E1F80
3E1F80
3E1F80
3E1F00
3E1F00
3E1F00
FF9F00
001F00
001E00
001E00
001C00
003800
003000
006000
008000
ENDCHAR
STARTCHAR 0453
ENCODING 1107
SWIDTH 443 0
DWIDTH 16 0
BBX 15 25 1 0
BITMAP
01F0
01E0
03C0
0380
0380
0700
0000
0000
0000
7FFE
3E06
3E02
3E02
3E00
3E00
3E00
3E00
3E00
3E00
3E00
3E00
3E00
3E00
3E00
FF80
ENDCHAR
STARTCHAR 0454
ENCODING 1108
SWIDTH 443 0
DWIDTH 16 0
BBX 14 17 1 0
BITMAP
07C8
0F78
3C18
3C08
7C04
7C00
7C00
FC00
FF80
FC00
FC00
7C00
7C00
7C00
3C04
1E18
0FF0
ENDCHAR
STARTCHAR 0455
ENCODING 1109
SWIDTH 387 0
DWIDTH 14 0
BBX 12 17 1 0
BITMAP
1F20
39E0
70E0
7060
F820
FC20
7F00
7F80
3FC0
1FE0
0FF0
03F0
41F0
40F0
60E0
70E0
7FC0
ENDCHAR
STARTCHAR 0456
ENCODING 1110
SWIDTH 276 0
DWIDTH 10 0
BBX 9 24 1 0
BITMAP
3C00
3E00
7E00
3E00
1C00
0000
0000
0000
FE00
3E00
3E00
3E00
3E00
3E00
3E00
3E00
3E00
3E00
3E00
3E00
3E00
3E00
3E00
FF80
ENDCHAR
STARTCHAR 0457
ENCODING 1111
SWIDTH 276 0
DWIDTH 10 0
BBX 12 24 -1 0
BITMAP
70E0
79F0
F9F0
79E0
2040
0000
0000
0000
3F80
0F80
0F80
0F80
0F80
0F80
0F80
0F80
0F80
0F80
0F80
0F80
0F80
0F80
0F80
3FE0
ENDCHAR
STARTCHAR 0458
ENCODING 1112
SWIDTH 332 0
DWIDTH 12 0
BBX 10 32 -1 -8
BITMAP
0780
07C0
07C0
07C0
0380
0000
0000
0000
1FC0
07C0
07C0
07C0
07C0
07C0
07C0
07C0
07C0
07C0
07C0
07C0
07C0
07C0
07C0
07C0
07C0
07C0
07C0
E7C0
E780
E780
7700
3C00
ENDCHAR
STARTCHAR 0459
ENCODING 1113
SWIDTH 775 0
DWIDTH 28 0
BBX 27 16 0 0
BITMAP
07FFC000
030F8000
030F8000
030F8000
030F8000
030F8000
030F8000
030FFE00
030F8F80
030F87C0
030F83E0
720F83E0
F20F83E0
F20F87C0
FE0F8F80
7C3FFE00
ENDCHAR
STARTCHAR 045A
ENCODING 1114
SWIDTH 803 0
DWIDTH 29 0
BBX 27 16 1 0
BITMAP
7F1FC000
3E0F8000
3E0F8000
3E0F8000
3E0F8000
3E0F8000
3E0F8000
3FFFFE00
3E0F8F80
3E0F87C0
3E0F87E0
3E0F87E0
3E0F87E0
3E0F87C0
3E0F8F80
FFBFFE00
ENDCHAR
STARTCHAR 045B
ENCODING 1115
SWIDTH 553 0
DWIDTH 20 0
BBX 18 24 1 0
BITMAP
FE0000
3E0000
3E0000
FFFC00
3E0000
3E0000
3E0000
3E3C00
3EFE00
3FBF00
3F1F00
3E1F00
3E1F00
3E1F00
3E1F00
3E1F00
3E1F00
3E1F00
3E1F00
3E1F00
3E1F00
3E1F00
3E1F80
FFBFC0
ENDCHAR
STARTCHAR 045C
ENCODING 1116
SWIDTH 581 0
DWIDTH 21 0
BBX 19 25 1 0
BITMAP
007E00
007C00
007800
00F000
00E000
00C000
000000
000000
000380
7F07E0
3E09E0
3E09E0
3E11E0
3E1000
3E3000
3E6000
3FF000
3EFC00
3E7C00
3E3E00
3E3F00
3E1F00
3E1F80
3E0FC0
FF87E0
ENDCHAR
STARTCHAR 045D
ENCODING 1117
SWIDTH 581 0
DWIDTH 21 0
BBX 19 25 1 0
BITMAP
0F8000
078000
03C000
01C000
00C000
00E000
000000
000000
000000
7F1FC0
3E0F80
3E0F80
3E1F80
3E1F80
3E2F80
3E6F80
3E4F80
3ECF80
3E8F80
3F0F80
3F0F80
3E0F80
3E0F80
3E0F80
FFBFE0
ENDCHAR
STARTCHAR 045E
ENCODING 1118
SWIDTH 498 0
DWIDTH 18 0
BBX 16 32 1 -8
BITMAP
180C
3C1E
3C1C
1E3C
07F0
0000
0000
0000
FF0F
7E06
3E04
3E04
3F0C
1F08
1F88
0F98
0F90
07D0
07E0
03E0
03E0
03C0
01C0
0180
0080
0180
0100
F100
F200
F200
FC00
3800
ENDCHAR
STARTCHAR 045F
ENCODING 1119
SWIDTH 581 0
DWIDTH 21 0
BBX 19 20 1 -4
BITMAP
7F1FC0
3E0F80
3E0F80
3E0F80
3E0F80
3E0F80
3E0F80
3E0F80
3E0F80
3E0F80
3E0F80
3E0F80
3E0F80
3E0F80
3E1F80
FFFFE0
01F000
00C000
004000
004000
ENDCHAR
STARTCHAR 0490
ENCODING 1168
SWIDTH 526 0
DWIDTH 19 0
BBX 17 29 1 0
BITMAP
000080
000080
000080
000180
000380
FFFF80
1FFF80
1F8000
1F8000
1F8000
1F8000
1F8000
1F8000
1F8000
1F8000
1F8000
1F8000
1F8000
1F8000
1F8000
1F8000
1F8000
1F8000
1F8000
1F8000
1F8000
1F8000
1F8000
FFF000
ENDCHAR
STARTCHAR 0491
ENCODING 1169
SWIDTH 387 0
DWIDTH 14 0
BBX 12 19 1 1
BITMAP
0010
0010
00F0
7FF0
3E00
3E00
3E00
3E00
3E00
3E00
3E00
3E00
3E00
3E00
3E00
3E00
3E00
3E00
FF80
ENDCHAR
STARTCHAR 0492
ENCODING 1170
SWIDTH 636 0
DWIDTH 23 0
BBX 21 24 1 0
BITMAP
FFFFF8
1FFFF8
1F8038
1F8018
1F8008
1F8008
1F8008
1F8000
1F8000
1F8000
1F8000
FFFC00
1F8000
1F8000
1F8000
1F8000
1F8000
1F8000
1F8000
1F8000
1F8000
1F8000
1F8000
FFF000
ENDCHAR
STARTCHAR 0493
ENCODING 1171
SWIDTH 443 0
DWIDTH 16 0
BBX 15 16 1 0
BITMAP
7FFE
3E06
3E02
3E02
3E00
3E00
FFE0
FFE0
3E00
3E00
3E00
3E00
3E00
3E00
3E00
FF80
ENDCHAR
STARTCHAR 0496
ENCODING 1174
SWIDTH 996 0
DWIDTH 36 0
BBX 34 31 1 -7
BITMAP
7C1FFE0F80
FE03F03FC0
F303F037C0
F103F067C0
F183F063C0
0183F04000
0083F0C000
00C3F0C000
00C3F08000
0043F18000
0073F30000
003FFF0000
00FFFFC000
01F3F7E000
03F3F3E000
03E3F3F000
07E3F1F000
07C3F1F800
0FC3F0F800
0F83F0FC00
1F83F07E00
1F03F07E00
3F03F03F00
FE1FFE3FC0
00000007C0
00000001C0
00000000C0
00000000C0
0000000040
0000000040
0000000040
ENDCHAR
STARTCHAR 0497
ENCODING 1175
SWIDTH 720 0
DWIDTH 26 0
BBX 26 21 0 -4
BITMAP
38000700
7C7F8F80
761F0B80
721F1380
721F1380
011F3000
011F2000
019F6000
03FFF000
07DFF800
0F9F7C00
0F9F7C00
1F1F3E00
1F1F3E00
3E1F1F00
3E3F1F00
FC7F8FC0
000001C0
000000C0
00000040
00000040
ENDCHAR
STARTCHAR 049A
ENCODING 1178
SWIDTH 720 0
DWIDTH 26 0
BBX 25 31 1 -7
BITMAP
FFF03E00
1F807F00
1F80CF00
1F808F00
1F818F00
1F818000
1F810000
1F830000
1F830000
1F820000
1F860000
1FFC0000
1FFF0000
1F9F8000
1F8FC000
1F8FC000
1F87E000
1F87E000
1F83F000
1F83F000
1F81F800
1F81F800
1F80FC00
FFF0FF80
00001F80
00000780
00000380
00000180
00000180
00000080
00000080
ENDCHAR
STARTCHAR 049B
ENCODING 1179
SWIDTH 581 0
DWIDTH 21 0
BBX 19 21 1 -4
BITMAP
000380
7F07E0
3E09E0
3E09E0
3E11E0
3E1000
3E3000
3E6000
3FF000
3EFC00
3E7C00
3E3E00
3E3F00
3E1F00
3E1F80
3E0FC0
FF87E0
0000E0
000060
000020
000020
ENDCHAR
STARTCHAR 049C
ENCODING 1180
SWIDTH 720 0
DWIDTH 26 0
BBX 25 24 1 0
BITMAP
FFF03E00
1F807F00
1F80CF00
1F808F00
1F998F00
1F998000
1F990000
1F9B0000
1F9B0000
1F9A0000
1F9E0000
1FFC0000
1FFF0000
1F9F8000
1F9FC000
1F9FC000
1F9FE000
1F9FE000
1F9BF000
1F9BF000
1F99F800
1F81F800
1F80FC00
FFF0FF80
ENDCHAR
STARTCHAR 049D
ENCODING 1181
SWIDTH 581 0
DWIDTH 21 0
BBX 19 17 1 0
BITMAP
000380
7F07E0
3E09E0
3E09E0
3ED1E0
3ED000
3EF000
3EE000
3FF000
3EFC00
3EFC00
3EFE00
3EFF00
3EDF00
3E1F80
3E0FC0
FF87E0
ENDCHAR
STARTCHAR 04A2
ENCODING 1186
SWIDTH 775 0
DWIDTH 28 0
BBX 26 31 1 -7
BITMAP
FFF3FFC0
1F807F00
1F807E00
1F807E00
1F807E00
1F807E00
1F807E00
1F807E00
1F807E00
1F807E00
1F807E00
1FFFFE00
1F807E00
1F807E00
1F807E00
1F807E00
1F807E00
1F807E00
1F807E00
1F807E00
1F807E00
1F807E00
1F807F00
FFF3FFC0
000007C0
000001C0
000000C0
00000040
00000040
00000040
00000040
ENDCHAR
STARTCHAR 04A3
ENCODING 1187
SWIDTH 581 0
DWIDTH 21 0
BBX 19 20 1 -4
BITMAP
7F1FC0
3E0F80
3E0F80
3E0F80
3E0F80
3E0F80
3E0F80
3FFF80
3E0F80
3E0F80
3E0F80
3E0F80
3E0F80
3E0F80
3E0F80
FFBFE0
0001E0
000060
000060
000020
ENDCHAR
STARTCHAR 04AE
ENCODING 1198
SWIDTH 720 0
DWIDTH 26 0
BBX 26 24 0 0
BITMAP
FFF03FC0
3F800700
1FC00600
0FC00400
0FE00C00
07E01800
07F01000
03F03000
03F82000
01F86000
00FC4000
00FC8000
007F8000
007F0000
003F0000
003F0000
003F0000
003F0000
003F0000
003F0000
003F0000
003F0000
003F0000
03FFF000
ENDCHAR
STARTCHAR 04AF
ENCODING 1199
SWIDTH 498 0
DWIDTH 18 0
BBX 16 24 1 -8
BITMAP
FF0F
7E06
7E06
3E04
3E0C
1F08
1F08
1F08
0F90
0F90
0F90
07E0
07E0
07E0
03E0
03E0
03E0
03E0
03E0
03E0
03E0
03E0
07E0
0FF8
ENDCHAR
STARTCHAR 04B0
ENCODING 1200
SWIDTH 720 0
DWIDTH 26 0
BBX 26 24 0 0
BITMAP
FFF03FC0
3F800700
1FC00600
0FC00400
0FE00C00
07E01800
07F01000
03F03000
03F82000
01F86000
00FC4000
00FC8000
007F8000
007F0000
003F0000
07FFFC00
07FFFC00
003F0000
003F0000
003F0000
003F0000
003F0000
003F0000
03FFF000
ENDCHAR
STARTCHAR 04B1
ENCODING 1201
SWIDTH 498 0
DWIDTH 18 0
BBX 18 24 0 -8
BITMAP
7F8780
3F0300
3F0300
1F0200
1F0600
0F8400
0F8400
0F8400
07C800
07C800
07C800
03F000
03F000
03F000
01F000
FFFFC0
01F000
01F000
01F000
01F000
01F000
01F000
03F000
07FC00
ENDCHAR
STARTCHAR 04B2
ENCODING 1202
SWIDTH 720 0
DWIDTH 26 0
BBX 26 31 0 -7
BITMAP
7FF8FF80
3FC01E00
1FC01C00
0FE01800
07F03000
07F06000
03F8C000
01FC8000
01FD0000
00FF0000
007F0000
007F0000
003F8000
001FC000
002FC000
006FE000
00C7F000
0183F000
0103F800
0201FC00
0600FC00
0C00FE00
1E00FF00
FF83FFC0
00000FC0
000003C0
000001C0
000000C0
000000C0
00000040
00000040
ENDCHAR
STARTCHAR 04B3
ENCODING 1203
SWIDTH 498 0
DWIDTH 18 0
BBX 16 20 1 -4
BITMAP
FF3E
3F18
1F10
1FB0
0FA0
0FC0
07C0
07E0
03E0
03F0
07F0
05F8
08FC
187C
387E
FDFF
0007
0001
0001
0001
ENDCHAR
STARTCHAR 04B8
ENCODING 1208
SWIDTH 747 0
DWIDTH 27 0
BBX 26 24 0 0
BITMAP
FFF3FFC0
1FC0FE00
1F807C00
1F807C00
1F807C00
1F8C7C00
1F8C7C00
1F8C7C00
1F8C7C00
1F8C7C00
0F8C7C00
0FCC7C00
0FEFFC00
07FF7C00
03FC7C00
000C7C00
000C7C00
000C7C00
000C7C00
00007C00
00007C00
00007E00
0000FE00
0007FFC0
ENDCHAR
STARTCHAR 04B9
ENCODING 1209
SWIDTH 553 0
DWIDTH 20 0
BBX 18 16 1 0
BITMAP
FF3F80
3E1F00
3E1F00
3EDF00
3EDF00
3EDF00
3EDF00
3EFF00
1FFF00
00DF00
00DF00
00DF00
001F00
001F00
001F80
003FC0
ENDCHAR
STARTCHAR 04BA
ENCODING 1210
SWIDTH 747 0
DWIDTH 27 0
BBX 25 24 1 0
BITMAP
FFF00000
1F800000
1F800000
1F800000
1F800000
1F800000
1F800000
1F800000
1F800000
1F87F000
1FBFF800
1FF3FC00
1F80FC00
1F80FC00
1F80FC00
1F80FC00
1F80FC00
1F80FC00
1F80FC00
1F80FC00
1F80FC00
1F80FC00
1F80FE00
FFE3FF80
ENDCHAR
STARTCHAR 04BB
ENCODING 1211
SWIDTH 553 0
DWIDTH 20 0
BBX 18 24 1 0
BITMAP
FE0000
3E0000
3E0000
3E0000
3E0000
3E0000
3E0000
3E3C00
3EFE00
3FBF00
3F1F00
3E1F00
3E1F00
3E1F00
3E1F00
3E1F00
3E1F00
3E1F00
3E1F00
3E1F00
3E1F00
3E1F00
3E1F80
FFBFC0
ENDCHAR
STARTCHAR 04D8
ENCODING 1240
SWIDTH 747 0
DWIDTH 27 0
BBX 24 25 1 -1
BITMAP
10FF80
1F03E0
1E01F0
1C00F8
18007C
10007E
10007E
00003F
00003F
00003F
00003F
FFFFFF
FE003F
FE003F
7E003F
7E003F
7E003F
7E003E
3E007E
3E007C
1F0078
0F00F0
07C1E0
01FF80
001800
ENDCHAR
STARTCHAR 04D9
ENCODING 1241
SWIDTH 443 0
DWIDTH 16 0
BBX 14 17 1 0
BITMAP
0F80
1FE0
3FF0
41F8
80F8
00F8
007C
007C
007C
FFFC
FFFC
F078
F078
7878
7870
38E0
1FC0
ENDCHAR
STARTCHAR 04E8
ENCODING 1256
SWIDTH 775 0
DWIDTH 28 0
BBX 26 25 1 -1
BITMAP
00FFC000
03E0F000
07807C00
0F803E00
1F003F00
3F001F00
3E001F80
7E001F80
7E001F80
7E001FC0
7E001FC0
FFFFFFC0
FE001FC0
FE001FC0
7E001FC0
7E001F80
7E001F80
3E001F80
3F001F00
1F003E00
1F803E00
0F807C00
03C0F000
00FFE000
00040000
ENDCHAR
STARTCHAR 04E9
ENCODING 1257
SWIDTH 498 0
DWIDTH 18 0
BBX 16 17 1 0
BITMAP
07E0
0E78
1C3C
3C3C
7C3E
7C1E
7C1F
FC1F
FFFF
F81F
FC1F
7C1E
7C3E
7C3E
3C3C
1C38
0FF0
ENDCHAR
STARTCHAR 05B0
ENCODING 1456
SWIDTH 332 0
DWIDTH 12 0
BBX 2 7 5 -8
BITMAP
C0
C0
C0
00
C0
C0
C0
ENDCHAR
STARTCHAR 05B1
ENCODING 1457
SWIDTH 332 0
DWIDTH 12 0
BBX 12 7 0 -8
BITMAP
6660
E670
6660
0000
1860
1870
1860
ENDCHAR
STARTCHAR 05B2
ENCODING 1458
SWIDTH 332 0
DWIDTH 12 0
BBX 10 7 1 -8
BITMAP
FCC0
FDC0
00C0
0000
01C0
01C0
00C0
ENDCHAR
STARTCHAR 05B3
ENCODING 1459
SWIDTH 332 0
DWIDTH 12 0
BBX 12 7 0 -8
BITMAP
FE60
FE70
1860
1800
3860
1870
0060
ENDCHAR
STARTCHAR 05B4
ENCODING 1460
SWIDTH 332 0
DWIDTH 12 0
BBX 2 2 5 -6
BITMAP
C0
C0
ENDCHAR
STARTCHAR 05B5
ENCODING 1461
SWIDTH 332 0
DWIDTH 12 0
BBX 6 2 3 -6
BITMAP
CC
CC
ENDCHAR
STARTCHAR 05B6
ENCODING 1462
SWIDTH 332 0
DWIDTH 12 0
BBX 6 7 3 -8
BITMAP
CC
CC
CC
00
30
30
30
ENDCHAR
STARTCHAR 05B7
ENCODING 1463
SWIDTH 332 0
DWIDTH 12 0
BBX 6 2 3 -5
BITMAP
FC
FC
ENDCHAR
STARTCHAR 05B8
ENCODING 1464
SWIDTH 332 0
DWIDTH 12 0
BBX 7 6 3 -8
BITMAP
FE
FE
30
30
30
30
ENDCHAR
STARTCHAR 05B9
ENCODING 1465
SWIDTH 332 0
DWIDTH 12 0
BBX 2 3 5 21
BITMAP
C0
C0
C0
ENDCHAR
STARTCHAR 05BA
ENCODING 1466
SWIDTH 332 0
DWIDTH 12 0
BBX 2 3 5 21
BITMAP
C0
C0
C0
ENDCHAR
STARTCHAR 05BB
ENCODING 1467
SWIDTH 332 0
DWIDTH 12 0
BBX 12 7 0 -8
BITMAP
6000
E000
6600
0600
0660
0070
0060
ENDCHAR
STARTCHAR 05BC
ENCODING 1468
SWIDTH 332 0
DWIDTH 12 0
BBX 2 3 5 8
BITMAP
C0
C0
C0
ENDCHAR
STARTCHAR 05BD
ENCODING 1469
SWIDTH 332 0
DWIDTH 12 0
BBX 2 6 5 -8
BITMAP
C0
C0
C0
C0
C0
C0
ENDCHAR
STARTCHAR 05BE
ENCODING 1470
SWIDTH 360 0
DWIDTH 13 0
BBX 10 6 2 13
BITMAP
FFC0
FFC0
FFC0
FFC0
FFC0
FFC0
ENDCHAR
STARTCHAR 05BF
ENCODING 1471
SWIDTH 332 0
DWIDTH 12 0
BBX 6 1 3 22
BITMAP
FC
ENDCHAR
STARTCHAR 05C0
ENCODING 1472
SWIDTH 332 0
DWIDTH 12 0
BBX 4 22 4 -2
BITMAP
F0
F0
F0
F0
F0
F0
F0
F0
F0
F0
F0
F0
F0
F0
F0
F0
F0
F0
F0
F0
F0
F0
ENDCHAR
STARTCHAR 05C1
ENCODING 1473
SWIDTH 332 0
DWIDTH 12 0
BBX 3 3 12 21
BITMAP
E0
E0
40
ENDCHAR
STARTCHAR 05C2
ENCODING 1474
SWIDTH 332 0
DWIDTH 12 0
BBX 3 3 -3 21
BITMAP
60
E0
60
ENDCHAR
STARTCHAR 05C3
ENCODING 1475
SWIDTH 332 0
DWIDTH 12 0
BBX 6 19 3 0
BITMAP
78
FC
FC
FC
7C
30
00
00
00
00
00
00
00
00
78
FC
FC
FC
78
ENDCHAR
STARTCHAR 05D0
ENCODING 1488
SWIDTH 526 0
DWIDTH 19 0
BBX 17 21 1 -1
BITMAP
202000
603C00
703F00
783F80
7C3F80
7E3F80
7F1F80
3F8C00
1FCC00
1FEC00
37FC00
73FC00
71FE00
78FF00
787F00
7C1F80
7E0F80
7E0780
7E0300
FE0300
000200
ENDCHAR
STARTCHAR 05D1
ENCODING 1489
SWIDTH 470 0
DWIDTH 17 0
BBX 15 20 1 0
BITMAP
4000
7F80
7FF0
FFF0
FFF8
7FF8
7FF8
00F8
0018
0018
0018
0018
0018
0010
7FFE
7FFE
FFFE
FFFC
FFFC
FFFC
ENDCHAR
STARTCHAR 05D2
ENCODING 1490
SWIDTH 360 0
DWIDTH 13 0
BBX 12 20 1 0
BITMAP
2000
3E00
7F80
7F80
7F80
3F80
3F80
0780
0180
0180
0180
0180
01C0
07E0
7EE0
7EF0
FCF0
FC70
FC60
F820
ENDCHAR
STARTCHAR 05D3
ENCODING 1491
SWIDTH 470 0
DWIDTH 17 0
BBX 15 20 1 0
BITMAP
4000
7FF8
FFFC
FFFE
FFFE
FFFE
7FFC
0018
0060
0060
00C0
00C0
00E0
00E0
00E0
00E0
00E0
00E0
00C0
0080
ENDCHAR
STARTCHAR 05D4
ENCODING 1492
SWIDTH 526 0
DWIDTH 19 0
BBX 16 20 1 0
BITMAP
4000
7FFE
7FFF
FFFF
FFFF
7FFF
7FFF
0002
0006
000C
000C
1C0C
380E
780E
780E
780E
780E
700E
700C
E00C
ENDCHAR
STARTCHAR 05D5
ENCODING 1493
SWIDTH 304 0
DWIDTH 11 0
BBX 8 20 1 0
BITMAP
40
F8
FE
FF
FF
FF
7F
0F
07
03
03
03
03
03
03
03
03
03
03
02
ENDCHAR
STARTCHAR 05D6
ENCODING 1494
SWIDTH 304 0
DWIDTH 11 0
BBX 9 20 1 0
BITMAP
4000
FC00
FF00
FF80
FF80
FF80
7F80
0F00
0800
1800
1800
1C00
1C00
1C00
1C00
1E00
1E00
1C00
0C00
1800
ENDCHAR
STARTCHAR 05D7
ENCODING 1495
SWIDTH 498 0
DWIDTH 18 0
BBX 16 20 1 0
BITMAP
4000
7FFE
FFFF
FFFF
FFFF
FFFF
7FFF
0C06
1804
300C
300C
700C
701C
701C
781E
781E
781E
700E
700C
6018
ENDCHAR
STARTCHAR 05D8
ENCODING 1496
SWIDTH 526 0
DWIDTH 19 0
BBX 17 20 1 0
BITMAP
400000
F00C00
FC1E00
FE3F00
FE3F00
FE7F00
7E7F00
186380
104380
304180
300180
300180
300100
300100
3FFF00
3FFF00
3FFF00
3FFF00
1FFE00
1FFE00
ENDCHAR
STARTCHAR 05D9
ENCODING 1497
SWIDTH 304 0
DWIDTH 11 0
BBX 9 13 1 7
BITMAP
4000
FC00
FF00
FF80
FF80
FF80
7F80
0F80
0180
0180
0180
0300
0600
ENDCHAR
STARTCHAR 05DA
ENCODING 1498
SWIDTH 470 0
DWIDTH 17 0
BBX 14 26 1 -6
BITMAP
4000
FFF0
FFFC
FFFC
FFFC
FFFC
7FFC
0018
0018
0018
0018
0018
0018
0018
0018
0018
0018
0018
0018
0018
0018
0018
0018
0018
0018
0010
ENDCHAR
STARTCHAR 05DB
ENCODING 1499
SWIDTH 443 0
DWIDTH 16 0
BBX 14 20 1 0
BITMAP
4000
7F00
7FE0
FFF0
FFF8
7FF8
7FF8
0078
001C
000C
000C
000C
000C
001C
7FF8
7FF8
FFF8
FFF0
FFE0
FFC0
ENDCHAR
STARTCHAR 05DC
ENCODING 1500
SWIDTH 443 0
DWIDTH 16 0
BBX 15 27 -1 0
BITMAP
4000
7000
FC00
7C00
3C00
1800
1800
1800
3FF8
3FFE
3FFE
3FFE
3FFE
1FFE
001E
0006
0006
0006
000E
001C
0038
0070
00E0
00C0
01C0
01C0
01C0
ENDCHAR
STARTCHAR 05DD
ENCODING 1501
SWIDTH 498 0
DWIDTH 18 0
BBX 16 20 1 0
BITMAP
4000
7FF0
7FFC
FFFE
FFFE
7FFE
7FFF
0C1F
1807
3003
7003
6003
6003
6003
7FFF
7FFF
7FFF
7FFF
7FFF
7FFF
ENDCHAR
STARTCHAR 05DE
ENCODING 1502
SWIDTH 526 0
DWIDTH 19 0
BBX 17 20 1 0
BITMAP
400000
F83000
FC3800
FE3C00
FE7E00
FCFF00
7DFF00
0FFF00
060780
0C0380
180180
180180
300180
300180
61FF80
61FF00
61FF00
61FF00
63FF00
63FF00
ENDCHAR
STARTCHAR 05DF
ENCODING 1503
SWIDTH 332 0
DWIDTH 12 0
BBX 9 26 1 -6
BITMAP
4000
FC00
FF00
FF80
FF80
FF80
7F80
0780
0100
0300
0300
0300
0300
0300
0300
0380
0380
0380
0380
0380
0380
0380
0380
0380
0300
0300
ENDCHAR
STARTCHAR 05E0
ENCODING 1504
SWIDTH 304 0
DWIDTH 11 0
BBX 9 19 1 1
BITMAP
7C00
7F00
7F80
7F80
7F80
3F00
0700
0300
0300
0300
0300
0300
0380
7F80
7F80
FF80
FF80
FF80
FF80
ENDCHAR
STARTCHAR 05E1
ENCODING 1505
SWIDTH 470 0
DWIDTH 17 0
BBX 15 20 1 0
BITMAP
4000
7FC0
FFF8
FFF8
FFFC
FFFC
7FFC
307E
300E
6006
6006
6006
7006
700E
7FFC
7FFC
7FFC
3FF8
1FF8
0FF0
ENDCHAR
STARTCHAR 05E2
ENCODING 1506
SWIDTH 498 0
DWIDTH 18 0
BBX 16 21 1 -1
BITMAP
4020
F878
FE7F
FE7F
FF7F
FF3F
7E1F
1006
1806
1C04
1F0C
1F0C
071C
031C
0FFC
7FFC
7FFC
7FF8
FFF8
FFE0
FC00
ENDCHAR
STARTCHAR 05E3
ENCODING 1507
SWIDTH 498 0
DWIDTH 18 0
BBX 15 26 1 -6
BITMAP
4000
7FE0
FFF8
FFFC
FFFC
FFFC
7FFC
107C
300C
300E
3006
7806
7E06
7E06
7E06
7C06
0006
0006
0006
0006
0006
0006
0006
0006
0006
0004
ENDCHAR
STARTCHAR 05E4
ENCODING 1508
SWIDTH 470 0
DWIDTH 17 0
BBX 14 19 1 1
BITMAP
7F80
7FF0
7FF0
FFF8
7FF8
7FFC
203C
200C
7C0C
7E0C
7E0C
000C
001C
7FFC
7FF8
7FF8
FFF8
FFF0
FFC0
ENDCHAR
STARTCHAR 05E5
ENCODING 1509
SWIDTH 553 0
DWIDTH 20 0
BBX 18 26 1 -6
BITMAP
401000
F83E00
FF3F80
FF3FC0
FF3FC0
FF3FC0
7F1FC0
070700
021C00
063800
067000
06E000
07C000
078000
070000
070000
070000
070000
070000
070000
070000
070000
070000
070000
060000
040000
ENDCHAR
STARTCHAR 05E6
ENCODING 1510
SWIDTH 526 0
DWIDTH 19 0
BBX 17 20 1 0
BITMAP
404000
F87C00
FE7F00
FE7F00
FE7F80
FE7F80
7E3F00
020C00
031800
039000
03F000
01F000
00F800
003C00
7FFE00
7FFF00
7FFE00
7FFE00
7FFE00
FFFE00
ENDCHAR
STARTCHAR 05E7
ENCODING 1511
SWIDTH 470 0
DWIDTH 17 0
BBX 15 26 1 -6
BITMAP
4000
7FF0
FFFC
FFFE
FFFE
FFFE
7FFE
001E
0006
0006
2006
600C
6018
6070
60E0
61C0
6380
6380
6380
6380
6000
6000
6000
6000
6000
6000
ENDCHAR
STARTCHAR 05E8
ENCODING 1512
SWIDTH 470 0
DWIDTH 17 0
BBX 14 20 1 0
BITMAP
4000
7FC0
FFF8
FFF8
FFFC
FFFC
7FFC
007C
001C
000C
000C
000C
000C
000C
000C
000C
000C
000C
000C
0008
ENDCHAR
STARTCHAR 05E9
ENCODING 1513
SWIDTH 692 0
DWIDTH 25 0
BBX 23 20 1 0
BITMAP
404060
F8F870
FCFCFC
FEFEFE
FEFEFE
FEFE7E
7E7E7E
18183C
10301C
303018
306030
306030
30C060
38C0E0
3FFFC0
3FFFC0
3FFFC0
1FFFC0
1FFFC0
1FFFC0
ENDCHAR
STARTCHAR 05EA
ENCODING 1514
SWIDTH 526 0
DWIDTH 19 0
BBX 17 20 0 0
BITMAP
100000
1FF800
3FFF00
3FFF00
3FFF80
1FFF80
1FFF80
030F80
030380
060180
060180
0E0180
0E0180
0E0180
3E0180
7E0180
7F0180
7E0180
7E0180
FE0100
ENDCHAR
STARTCHAR 05F0
ENCODING 1520
SWIDTH 609 0
DWIDTH 22 0
BBX 19 20 1 0
BITMAP
400800
F81F00
FE1FC0
FF1FE0
FF1FE0
FF1FE0
7F0FE0
0F01E0
0700E0
030060
030060
030060
030060
030060
030060
030060
030060
030060
030060
020040
ENDCHAR
STARTCHAR 05F1
ENCODING 1521
SWIDTH 609 0
DWIDTH 22 0
BBX 19 20 1 0
BITMAP
400800
FC0F00
FF1FC0
FF9FE0
FF9FE0
FF8FE0
7F8FE0
0F81E0
018060
018060
018060
030060
060060
000060
000060
000060
000060
000060
000060
000060
ENDCHAR
STARTCHAR 05F2
ENCODING 1522
SWIDTH 609 0
DWIDTH 22 0
BBX 20 13 1 7
BITMAP
400800
FC0F80
FF1FE0
FF9FF0
FF9FF0
FF8FF0
7F8FF0
0F81F0
018030
018030
018030
030020
0600C0
ENDCHAR
STARTCHAR 05F3
ENCODING 1523
SWIDTH 249 0
DWIDTH 9 0
BBX 6 11 2 8
BITMAP
38
7C
7C
78
78
70
70
60
60
40
C0
ENDCHAR
STARTCHAR 05F4
ENCODING 1524
SWIDTH 470 0
DWIDTH 17 0
BBX 13 11 2 8
BITMAP
3878
7CF8
7CF8
78F8
78F0
70F0
70E0
60E0
60C0
40C0
C080
ENDCHAR
STARTCHAR 060C
ENCODING 1548
SWIDTH 332 0
DWIDTH 12 0
BBX 6 11 3 5
BITMAP
10
30
60
40
C0
C0
F8
FC
FC
7C
38
ENDCHAR
STARTCHAR 061B
ENCODING 1563
SWIDTH 332 0
DWIDTH 12 0
BBX 6 17 3 5
BITMAP
10
30
60
40
C0
C0
F0
F8
FC
78
78
00
00
30
78
78
30
ENDCHAR
STARTCHAR 061F
ENCODING 1567
SWIDTH 360 0
DWIDTH 13 0
BBX 11 21 1 5
BITMAP
0600
3F80
70C0
70E0
F1E0
F3E0
FBC0
F800
7C00
3C00
1C00
0C00
0400
0400
0400
0000
0000
0E00
1F00
1E00
0E00
ENDCHAR
STARTCHAR 0621
ENCODING 1569
SWIDTH 470 0
DWIDTH 17 0
BBX 13 16 2 2
BITMAP
0F80
1FC0
3FC0
3FC0
7380
7000
F838
FCF8
7FF0
7FF0
3FC0
1F00
3C00
7000
6000
6000
ENDCHAR
STARTCHAR 0622
ENCODING 1570
SWIDTH 249 0
DWIDTH 9 0
BBX 8 26 0 4
BITMAP
70
BF
00
00
08
18
18
18
38
1C
1C
1C
1C
1C
1C
0C
0C
0C
0E
0E
0C
0C
0C
0C
08
08
ENDCHAR
STARTCHAR 0623
ENCODING 1571
SWIDTH 221 0
DWIDTH 8 0
BBX 5 27 2 5
BITMAP
70
80
F0
E0
20
20
60
60
60
E0
70
70
70
70
70
70
30
30
38
38
38
38
30
30
30
20
20
ENDCHAR
STARTCHAR 0624
ENCODING 1572
SWIDTH 443 0
DWIDTH 16 0
BBX 16 27 0 -3
BITMAP
0180
0380
0600
0380
0600
0000
0000
001E
003E
003F
007F
0077
0063
0073
007F
007F
007F
003F
0003
0007
000F
C01E
707E
3FFC
0FF8
07F0
0080
ENDCHAR
STARTCHAR 0625
ENCODING 1573
SWIDTH 221 0
DWIDTH 8 0
BBX 5 29 2 -2
BITMAP
20
60
60
60
E0
70
70
70
70
70
70
30
30
30
38
38
30
30
30
30
20
20
00
00
30
70
C0
70
C0
ENDCHAR
STARTCHAR 0626
ENCODING 1574
SWIDTH 636 0
DWIDTH 23 0
BBX 18 22 3 -2
BITMAP
100000
300000
400000
780100
600780
000FC0
001FC0
003FC0
103880
206000
606000
407F80
C07F80
C07F80
801F80
800180
C00F00
C03F00
FFFE00
FFFC00
7FF000
3F8000
ENDCHAR
STARTCHAR 0627
ENCODING 1575
SWIDTH 221 0
DWIDTH 8 0
BBX 5 22 2 5
BITMAP
20
60
60
60
E0
70
70
70
70
70
70
30
30
30
38
38
30
30
30
30
20
20
ENDCHAR
STARTCHAR 0628
ENCODING 1576
SWIDTH 636 0
DWIDTH 23 0
BBX 22 20 1 -3
BITMAP
200008
200008
60000C
40001C
C0001C
C0000C
E0000C
F00004
FFFFFC
FFFFFC
7FFFFC
3FFFFC
0FFFFC
000000
001000
001C00
003E00
003E00
003E00
000C00
ENDCHAR
STARTCHAR 0629
ENCODING 1577
SWIDTH 332 0
DWIDTH 12 0
BBX 10 22 1 6
BITMAP
0700
6780
7F00
FF00
F000
3000
0000
0000
1000
1C00
1E00
3F00
3F80
3FC0
27C0
63C0
61C0
67C0
7FC0
7F80
7F00
7E00
ENDCHAR
STARTCHAR 062A
ENCODING 1578
SWIDTH 636 0
DWIDTH 23 0
BBX 22 18 1 6
BITMAP
000E00
004F00
00FE00
00FE00
01E000
206008
200008
60000C
40001C
C0001C
C0000C
E0000C
F00004
FFFFFC
FFFFFC
7FFFFC
3FFFFC
0FFFFC
ENDCHAR
STARTCHAR 062B
ENCODING 1579
SWIDTH 636 0
DWIDTH 23 0
BBX 22 23 1 5
BITMAP
004000
007000
00F800
00F000
007000
000E00
004F00
00FE00
00FE00
01E000
206008
200008
60001C
40001C
C0001C
C0000C
E0000C
F00004
FFFFFC
7FFFFC
7FFFFC
3FFFFC
0FFFFC
ENDCHAR
STARTCHAR 062C
ENCODING 1580
SWIDTH 581 0
DWIDTH 21 0
BBX 19 26 1 -7
BITMAP
0FFE00
3FFF80
7FFF80
7FFF80
FFFF00
C7F800
0F8000
1E0000
3C0000
300000
700000
606000
607800
E0F800
C1F800
E07000
E01000
E00000
F00000
780000
7E0000
7FF8E0
3FFFE0
1FFF80
0FFE00
03FC00
ENDCHAR
STARTCHAR 062D
ENCODING 1581
SWIDTH 581 0
DWIDTH 21 0
BBX 19 26 1 -7
BITMAP
0FFE00
3FFF80
7FFF80
7FFF80
FFFF00
C7F800
0F8000
1E0000
3C0000
300000
700000
600000
600000
E00000
C00000
E00000
E00000
E00000
F00000
780000
7E0000
7FF8E0
3FFFE0
1FFF80
0FFE00
03FC00
ENDCHAR
STARTCHAR 062E
ENCODING 1582
SWIDTH 581 0
DWIDTH 21 0
BBX 19 34 1 -7
BITMAP
010000
01C000
03E000
03E000
03C000
00C000
000000
000000
0FFE00
3FFF80
7FFF80
7FFF80
FFFF00
C7F800
0F8000
1E0000
3C0000
300000
700000
600000
600000
E00000
C00000
E00000
E00000
E00000
F00000
780000
7E0000
7FF8E0
3FFFE0
1FFF80
0FFE00
03FC00
ENDCHAR
STARTCHAR 062F
ENCODING 1583
SWIDTH 332 0
DWIDTH 12 0
BBX 10 17 2 5
BITMAP
0200
0300
0380
0780
0780
07C0
03C0
01C0
00C0
00C0
00C0
8040
FFC0
FFC0
FFC0
FFC0
7FC0
ENDCHAR
STARTCHAR 0630
ENCODING 1584
SWIDTH 332 0
DWIDTH 12 0
BBX 10 25 2 6
BITMAP
1800
3E00
3E00
7C00
1C00
0000
0000
0000
0200
0300
0380
0780
0780
07C0
03C0
01C0
00C0
00C0
00C0
8040
FFC0
FFC0
FFC0
FFC0
7FC0
ENDCHAR
STARTCHAR 0631
ENCODING 1585
SWIDTH 443 0
DWIDTH 16 0
BBX 16 19 0 -2
BITMAP
0004
0006
000E
000E
000F
0007
0003
0003
0003
0003
0007
000F
001E
003E
C0FC
7FF8
1FF0
07E0
0180
ENDCHAR
STARTCHAR 0632
ENCODING 1586
SWIDTH 443 0
DWIDTH 16 0
BBX 16 28 0 -3
BITMAP
0030
0038
007E
007C
0038
0018
0000
0000
0000
0004
0006
000E
000E
000F
0007
0003
0003
0003
0003
0007
000F
001E
003E
C0FC
7FF8
1FF0
07E0
0180
ENDCHAR
STARTCHAR 0633
ENCODING 1587
SWIDTH 886 0
DWIDTH 32 0
BBX 31 18 1 -1
BITMAP
00008002
0000C026
0800C066
1801C066
1001E046
3000E0F6
6000FFFE
60007FFE
40007FFE
C0007FFE
C0007F0E
E000E000
F001C000
FC07C000
7FFFC000
7FFF8000
3FFF0000
0FFC0000
ENDCHAR
STARTCHAR 0634
ENCODING 1588
SWIDTH 886 0
DWIDTH 32 0
BBX 31 30 1 -2
BITMAP
00000100
000001C0
000003C0
000003C0
00000190
00000038
0000033C
000003F8
000007B8
00000380
00000100
00000000
00008002
0000C026
0800C066
1801C066
1001E046
3000E0F6
6000FFFE
60007FFE
40007FFE
C0007FFE
C0007F0E
E000E000
F001C000
FC07C000
7FFFC000
7FFF8000
3FFF0000
0FFC0000
ENDCHAR
STARTCHAR 0635
ENCODING 1589
SWIDTH 1052 0
DWIDTH 38 0
BBX 37 20 1 -2
BITMAP
00000001E0
00000007F0
0000800FF8
0000C03FF8
0800C07FF8
1801C1F018
1001C3E018
3000E78038
6000FFFFF8
60007FFFF8
40007FFFF8
C0007FFFF8
C0007FFFF8
E000E00000
F001C00000
FC07C00000
7FFFC00000
7FFF800000
3FFF000000
0FFC000000
ENDCHAR
STARTCHAR 0636
ENCODING 1590
SWIDTH 1052 0
DWIDTH 38 0
BBX 37 28 1 -2
BITMAP
000000C000
000001F000
000001F000
000003E000
000000E000
0000004000
0000000000
0000000000
00000001E0
00000007F0
0000800FF8
0000C03FF8
0800C07FF8
1801C1F018
1001C3E018
3000E78038
6000FFFFF8
60007FFFF8
40007FFFF8
C0007FFFF8
C0007FFFF8
E000E00000
F001C00000
FC07C00000
7FFFC00000
7FFF800000
3FFF000000
0FFC000000
ENDCHAR
STARTCHAR 0637
ENCODING 1591
SWIDTH 526 0
DWIDTH 19 0
BBX 20 24 -1 5
BITMAP
040000
060000
0F8000
0FC000
0F8000
078000
078000
070000
070000
030000
030000
0387C0
039FE0
03BFF0
03FFF0
03FFF0
03E070
078070
1F00F0
FFFFF0
FFFFF0
FFFFF0
FFFFF0
FFFFF0
ENDCHAR
STARTCHAR 0638
ENCODING 1592
SWIDTH 526 0
DWIDTH 19 0
BBX 20 24 -1 5
BITMAP
040000
060000
0F8000
0FC600
0F8F00
078F80
079F00
070F00
070200
030000
030000
0387C0
039FE0
03BFF0
03FFF0
03FFF0
03E070
078070
1F00F0
FFFFF0
FFFFF0
FFFFF0
FFFFF0
FFFFF0
ENDCHAR
STARTCHAR 0639
ENCODING 1593
SWIDTH 553 0
DWIDTH 20 0
BBX 18 28 1 -7
BITMAP
0FE000
1FF800
3FFC00
3C0000
700000
700000
780E00
7C7E00
7FFC00
3FFC00
3FF000
1F8000
3E0000
380000
700000
600000
C00000
C00000
C00000
C00000
E00000
F00000
F80000
FFE000
7FFFC0
3FFF00
1FFE00
0FF800
ENDCHAR
STARTCHAR 063A
ENCODING 1594
SWIDTH 553 0
DWIDTH 20 0
BBX 18 37 1 -7
BITMAP
040000
070000
0FC000
0F8000
0F0000
030000
000000
000000
000000
0FE000
1FF800
3FFC00
3C0000
700000
700000
780E00
7C7E00
7FFC00
3FFC00
3FF000
1F8000
3E0000
380000
700000
600000
C00000
C00000
C00000
C00000
E00000
F00000
F80000
FFE000
7FFFC0
3FFF00
1FFE00
0FF800
ENDCHAR
STARTCHAR 0640
ENCODING 1600
SWIDTH 193 0
DWIDTH 7 0
BBX 8 5 -1 5
BITMAP
FF
FF
FF
FF
FF
ENDCHAR
STARTCHAR 0641
ENCODING 1601
SWIDTH 747 0
DWIDTH 27 0
BBX 26 23 1 5
BITMAP
00000400
00000F00
00001F80
00001F00
00000F00
00000200
00000000
00000000
00000300
00000F80
20000FC0
60001FC0
40003FC0
400039C0
C00039C0
C0003FC0
C0003FC0
E0003FC0
FFFFFFC0
FFFFFFC0
FFFFFFC0
7FFFFFC0
3FFFFFC0
ENDCHAR
STARTCHAR 0642
ENCODING 1602
SWIDTH 609 0
DWIDTH 22 0
BBX 21 29 1 -5
BITMAP
000040
0000E0
0004F0
000FF0
000FE0
000E20
000200
0000C0
0001E0
0003F0
0003F0
0007F8
000678
100638
3007F8
2007F8
6007F8
4007F8
C001F8
C00008
C00008
C00018
E00038
F800F8
FFFFF0
7FFFF0
7FFFC0
1FFF80
00F800
ENDCHAR
STARTCHAR 0643
ENCODING 1603
SWIDTH 553 0
DWIDTH 20 0
BBX 19 23 1 5
BITMAP
000100
000300
000380
0037C0
0067C0
0067C0
00C3C0
00C180
00F180
01F180
00F180
203180
6071C0
47E0C0
C700C0
C000C0
C000C0
E000C0
FFFFE0
FFFFE0
FFFFE0
7FFFE0
1FFFE0
ENDCHAR
STARTCHAR 0644
ENCODING 1604
SWIDTH 443 0
DWIDTH 16 0
BBX 15 28 1 0
BITMAP
0018
001C
003E
003E
003E
001C
0018
001C
000C
000C
000C
000C
000E
100E
3006
6006
4006
C006
C006
C006
C006
C00E
E01E
FFFE
FFFC
FFF8
7FF0
3FC0
ENDCHAR
STARTCHAR 0645
ENCODING 1605
SWIDTH 360 0
DWIDTH 13 0
BBX 12 22 1 -7
BITMAP
0F00
1F80
1FC0
3FE0
23F0
01F0
1FF0
7FF0
7FF0
FFF0
F000
C000
C000
C000
C000
6000
6000
6000
6000
2000
2000
2000
ENDCHAR
STARTCHAR 0646
ENCODING 1606
SWIDTH 553 0
DWIDTH 20 0
BBX 19 24 1 -2
BITMAP
00C000
00F000
01F800
01F000
00E000
002080
000080
0000C0
0801C0
1801C0
3001C0
3000E0
6000E0
6000E0
400060
C00060
C00060
E000E0
F001C0
FC07C0
7FFFC0
7FFF80
3FFF00
0FFC00
ENDCHAR
STARTCHAR 0647
ENCODING 1607
SWIDTH 332 0
DWIDTH 12 0
BBX 9 14 2 5
BITMAP
2000
3800
3C00
7E00
7F00
7F80
4F80
C780
C380
CF80
FF80
FF00
FE00
FC00
ENDCHAR
STARTCHAR 0648
ENCODING 1608
SWIDTH 443 0
DWIDTH 16 0
BBX 16 20 0 -3
BITMAP
001E
003E
003F
007F
0077
0063
0073
007F
007F
007F
003F
0003
0007
000F
C01E
707E
3FFC
0FF8
07F0
0080
ENDCHAR
STARTCHAR 0649
ENCODING 1609
SWIDTH 636 0
DWIDTH 23 0
BBX 18 19 3 -2
BITMAP
000100
000780
000FC0
001FC0
003FC0
103880
206000
606000
407F80
C07F80
C07F80
801F80
800180
C00F00
C03F00
FFFE00
FFFC00
7FF000
3F8000
ENDCHAR
STARTCHAR 064A
ENCODING 1610
SWIDTH 636 0
DWIDTH 23 0
BBX 18 24 3 -7
BITMAP
000100
000780
000FC0
001FC0
003FC0
103880
206000
606000
407F80
C07F80
C07F80
801F80
800180
C00F00
C03F00
FFFE00
FFFC00
7FF000
3F8000
002000
023800
03F800
079000
010000
ENDCHAR
STARTCHAR 064B
ENCODING 1611
SWIDTH 193 0
DWIDTH 7 0
BBX 6 6 1 25
BITMAP
04
18
60
8C
38
C0
ENDCHAR
STARTCHAR 064C
ENCODING 1612
SWIDTH 249 0
DWIDTH 9 0
BBX 8 6 1 25
BITMAP
07
0A
6E
A6
2A
30
ENDCHAR
STARTCHAR 064D
ENCODING 1613
SWIDTH 193 0
DWIDTH 7 0
BBX 6 6 1 -5
BITMAP
0C
30
C4
1C
60
80
ENDCHAR
STARTCHAR 064E
ENCODING 1614
SWIDTH 193 0
DWIDTH 7 0
BBX 6 3 1 25
BITMAP
0C
38
C0
ENDCHAR
STARTCHAR 064F
ENCODING 1615
SWIDTH 221 0
DWIDTH 8 0
BBX 6 7 2 25
BITMAP
18
28
38
38
1C
20
C0
ENDCHAR
STARTCHAR 0650
ENCODING 1616
SWIDTH 193 0
DWIDTH 7 0
BBX 6 3 1 -2
BITMAP
0C
30
C0
ENDCHAR
STARTCHAR 0651
ENCODING 1617
SWIDTH 221 0
DWIDTH 8 0
BBX 7 5 1 25
BITMAP
02
12
9E
FC
E0
ENDCHAR
STARTCHAR 0652
ENCODING 1618
SWIDTH 166 0
DWIDTH 6 0
BBX 5 5 1 25
BITMAP
70
58
88
D8
F0
ENDCHAR
STARTCHAR 0653
ENCODING 1619
SWIDTH 249 0
DWIDTH 9 0
BBX 8 2 0 28
BITMAP
70
BF
ENDCHAR
STARTCHAR 0654
ENCODING 1620
SWIDTH 221 0
DWIDTH 8 0
BBX 4 5 2 27
BITMAP
30
50
C0
70
80
ENDCHAR
STARTCHAR 0655
ENCODING 1621
SWIDTH 221 0
DWIDTH 8 0
BBX 4 5 2 -4
BITMAP
30
70
C0
70
C0
ENDCHAR
STARTCHAR 0660
ENCODING 1632
SWIDTH 553 0
DWIDTH 20 0
BBX 6 8 7 8
BITMAP
60
70
78
FC
FC
F8
78
18
ENDCHAR
STARTCHAR 0661
ENCODING 1633
SWIDTH 553 0
DWIDTH 20 0
BBX 7 21 6 5
BITMAP
20
20
70
78
F8
F8
7C
7C
3C
1E
1E
0E
0E
0E
06
06
06
06
06
04
04
ENDCHAR
STARTCHAR 0662
ENCODING 1634
SWIDTH 553 0
DWIDTH 20 0
BBX 10 21 5 5
BITMAP
4040
4040
E0C0
FFC0
FFC0
FFC0
7FC0
7F80
3F00
3C00
1C00
1E00
0E00
0E00
0E00
0600
0600
0600
0600
0200
0200
ENDCHAR
STARTCHAR 0663
ENCODING 1635
SWIDTH 553 0
DWIDTH 20 0
BBX 14 21 3 5
BITMAP
4004
40C4
60CC
F9FC
FFFC
FFFC
FFFC
7FF8
3F70
3C00
1C00
1C00
1C00
0C00
0C00
0C00
0C00
0C00
0C00
0C00
0800
ENDCHAR
STARTCHAR 0664
ENCODING 1636
SWIDTH 553 0
DWIDTH 20 0
BBX 9 20 5 6
BITMAP
0200
0600
0E00
1E00
3800
7000
7C00
FF00
FF00
7E00
1C00
0800
1800
3800
3F00
7F80
7F80
7F80
3F80
0300
ENDCHAR
STARTCHAR 0665
ENCODING 1637
SWIDTH 553 0
DWIDTH 20 0
BBX 12 15 4 8
BITMAP
0700
0F80
1FE0
3FE0
3FF0
37F0
60F0
6070
6030
FFF0
FFE0
FFE0
FFC0
7F80
1C00
ENDCHAR
STARTCHAR 0666
ENCODING 1638
SWIDTH 553 0
DWIDTH 20 0
BBX 11 20 4 5
BITMAP
8000
8000
FF80
FF00
FF00
FF00
FF00
1100
0100
0100
0180
0180
01C0
01C0
01E0
01E0
01E0
01E0
00E0
0060
ENDCHAR
STARTCHAR 0667
ENCODING 1639
SWIDTH 553 0
DWIDTH 20 0
BBX 13 21 3 5
BITMAP
8000
C008
C018
E018
F038
F038
F838
F870
7870
3C60
1CE0
1CC0
0EC0
0E80
0780
0780
0380
0380
0300
0300
0100
ENDCHAR
STARTCHAR 0668
ENCODING 1640
SWIDTH 553 0
DWIDTH 20 0
BBX 14 20 3 5
BITMAP
0200
0300
0700
0700
0700
0780
0580
0DC0
0DC0
0CE0
18E0
18F0
3878
787C
F07C
F03C
F03C
E01C
E00C
C00C
ENDCHAR
STARTCHAR 0669
ENCODING 1641
SWIDTH 553 0
DWIDTH 20 0
BBX 11 20 4 5
BITMAP
0E00
1F00
3F80
7F80
7F80
6380
E180
FF80
FF80
FF80
7F80
3F80
0180
01C0
01E0
01E0
01E0
00E0
00E0
0040
ENDCHAR
STARTCHAR 066A
ENCODING 1642
SWIDTH 526 0
DWIDTH 19 0
BBX 14 25 2 3
BITMAP
380C
7C0C
7C18
7818
0030
0030
0060
0060
00C0
00C0
0180
0180
0300
0300
0600
0600
0C00
0C00
1800
1800
3010
303C
607C
607C
C038
ENDCHAR
STARTCHAR 066B
ENCODING 1643
SWIDTH 332 0
DWIDTH 12 0
BBX 4 9 4 1
BITMAP
60
F0
F0
F0
F0
30
60
C0
80
ENDCHAR
STARTCHAR 066C
ENCODING 1644
SWIDTH 332 0
DWIDTH 12 0
BBX 6 11 3 5
BITMAP
10
30
60
40
C0
C0
F8
FC
FC
7C
38
ENDCHAR
STARTCHAR 066D
ENCODING 1645
SWIDTH 526 0
DWIDTH 19 0
BBX 12 12 3 15
BITMAP
0600
0600
36E0
3EE0
1B80
E670
FDF0
0F00
1BC0
36E0
3660
0600
ENDCHAR
STARTCHAR 066E
ENCODING 1646
SWIDTH 636 0
DWIDTH 23 0
BBX 22 13 1 5
BITMAP
200008
200008
60000C
40001C
C0001C
C0000C
E0000C
F00004
FFFFFC
FFFFFC
7FFFFC
3FFFFC
0FFFFC
ENDCHAR
STARTCHAR 066F
ENCODING 1647
SWIDTH 609 0
DWIDTH 22 0
BBX 21 22 1 -5
BITMAP
0000C0
0001E0
0003F0
0003F0
0007F8
000678
100638
3007F8
2007F8
6007F8
4007F8
C001F8
C00008
C00008
C00018
E00038
F800F8
FFFFF0
7FFFF0
7FFFC0
1FFF80
00F800
ENDCHAR
STARTCHAR 0670
ENCODING 1648
SWIDTH 0 0
DWIDTH 0 0
BBX 2 10 -1 20
BITMAP
80
80
C0
C0
40
40
40
40
40
40
ENDCHAR
STARTCHAR 0671
ENCODING 1649
SWIDTH 221 0
DWIDTH 8 0
BBX 8 28 0 4
BITMAP
0E
13
26
FE
80
00
08
18
18
18
38
1C
1C
1C
1C
1C
1C
0C
0C
0C
0E
0E
0C
0C
0C
0C
08
08
ENDCHAR
STARTCHAR 0672
ENCODING 1650
SWIDTH 221 0
DWIDTH 8 0
BBX 7 28 0 4
BITMAP
1C
20
30
1C
E0
00
08
18
18
18
38
1C
1C
1C
1C
1C
1C
0C
0C
0C
0E
0E
0C
0C
0C
0C
08
08
ENDCHAR
STARTCHAR 0673
ENCODING 1651
SWIDTH 221 0
DWIDTH 8 0
BBX 6 29 1 -2
BITMAP
10
30
30
30
70
38
38
38
38
38
38
18
18
18
1C
1C
18
18
18
18
10
10
00
00
18
20
20
1C
E0
ENDCHAR
STARTCHAR 0674
ENCODING 1652
SWIDTH 221 0
DWIDTH 8 0
BBX 4 5 2 27
BITMAP
30
50
C0
70
80
ENDCHAR
STARTCHAR 0675
ENCODING 1653
SWIDTH 221 0
DWIDTH 8 0
BBX 8 23 2 4
BITMAP
03
27
64
67
6C
E0
70
70
70
70
70
70
30
30
30
38
38
30
30
30
30
20
20
ENDCHAR
STARTCHAR 0676
ENCODING 1654
SWIDTH 443 0
DWIDTH 16 0
BBX 18 28 0 -3
BITMAP
000180
000280
000200
0003C0
000600
000000
000000
000000
001E00
003E00
003F00
007F00
007700
006300
007300
007F00
007F00
007F00
003F00
000300
000700
000F00
C01E00
707E00
3FFC00
0FF800
07F000
008000
ENDCHAR
STARTCHAR 0677
ENCODING 1655
SWIDTH 443 0
DWIDTH 16 0
BBX 18 29 0 -3
BITMAP
007000
00B180
00D280
006200
0073C0
00C600
018000
020000
000000
001E00
003E00
003F00
007F00
007700
006300
007300
007F00
007F00
007F00
003F00
000300
000700
000F00
C01E00
707E00
3FFC00
0FF800
07F000
008000
ENDCHAR
STARTCHAR 0678
ENCODING 1656
SWIDTH 636 0
DWIDTH 23 0
BBX 20 27 3 -2
BITMAP
000070
0000A0
0000C0
000070
000080
000000
000000
000000
000100
000780
000FC0
001FC0
003FC0
103880
206000
606000
407F80
C07F80
C07F80
801F80
800180
C00F00
C03F00
FFFE00
FFFC00
7FF000
3F8000
ENDCHAR
STARTCHAR 0679
ENCODING 1657
SWIDTH 636 0
DWIDTH 23 0
BBX 22 25 1 5
BITMAP
004000
00E000
006000
004000
006000
006600
003F00
003B00
00E100
03FF00
03FF00
000000
200008
200008
60000C
40001C
C0001C
C0000C
E0000C
F00004
FFFFFC
FFFFFC
7FFFFC
3FFFFC
0FFFFC
ENDCHAR
STARTCHAR 067A
ENCODING 1658
SWIDTH 636 0
DWIDTH 23 0
BBX 22 22 1 6
BITMAP
00E000
00F000
01F000
00E000
003000
001C00
003C00
003C00
001800
200008
200008
60000C
40001C
C0001C
C0000C
E0000C
F00004
FFFFFC
FFFFFC
7FFFFC
3FFFFC
0FFFFC
ENDCHAR
STARTCHAR 067B
ENCODING 1659
SWIDTH 636 0
DWIDTH 23 0
BBX 22 24 1 -6
BITMAP
200008
200008
60000C
40001C
C0001C
C0000C
E0000C
F00004
FFFFFC
FFFFFC
7FFFFC
3FFFFC
0FFFFC
000000
001000
003800
003C00
007800
003800
000400
000F00
000F00
001E00
000600
ENDCHAR
STARTCHAR 067C
ENCODING 1660
SWIDTH 636 0
DWIDTH 23 0
BBX 22 22 1 2
BITMAP
000E00
004F00
00FE00
00FE00
01E000
206008
200008
60000C
40001C
C0001C
C0000C
E0000C
F00004
FFFFFC
FFFFFC
7FFFFC
3FFFFC
0FFFFC
004400
004400
003C00
003800
ENDCHAR
STARTCHAR 067D
ENCODING 1661
SWIDTH 636 0
DWIDTH 23 0
BBX 22 23 1 5
BITMAP
000800
000C00
00DE00
01FE00
01EC00
01C000
00D800
001E00
003C00
003C00
200808
200008
60000C
40001C
C0001C
C0000C
E0000C
F00004
FFFFFC
FFFFFC
7FFFFC
3FFFFC
0FFFFC
ENDCHAR
STARTCHAR 067E
ENCODING 1662
SWIDTH 636 0
DWIDTH 23 0
BBX 22 25 1 -7
BITMAP
200008
200008
60000C
40001C
C0001C
C0000C
E0000C
F00004
FFFFFC
FFFFFC
7FFFFC
3FFFFC
0FFFFC
000000
000400
000F00
006F00
00FF00
00F600
00E000
002C00
001F00
001E00
001E00
000400
ENDCHAR
STARTCHAR 067F
ENCODING 1663
SWIDTH 636 0
DWIDTH 23 0
BBX 22 23 1 5
BITMAP
001800
013C00
03FC00
03F800
078C00
018600
006F80
007F00
00F600
00F000
202008
200008
60000C
40001C
C0001C
C0000C
E0000C
F00004
FFFFFC
FFFFFC
7FFFFC
3FFFFC
0FFFFC
ENDCHAR
STARTCHAR 0680
ENCODING 1664
SWIDTH 636 0
DWIDTH 23 0
BBX 22 25 1 -8
BITMAP
200008
200008
60000C
40001C
C0001C
C0000C
E0000C
F00004
FFFFFC
FFFFFC
7FFFFC
3FFFFC
0FFFFC
000000
000800
001E00
00DE00
01FE00
01EC00
01C300
0063C0
003F80
007F80
007900
003000
ENDCHAR
STARTCHAR 0681
ENCODING 1665
SWIDTH 581 0
DWIDTH 21 0
BBX 19 33 1 -7
BITMAP
007000
008000
00E000
007000
008000
000000
000000
0FFE00
3FFF80
7FFF80
7FFF80
FFFF00
C7F800
0F8000
1E0000
3C0000
300000
700000
600000
600000
E00000
C00000
E00000
E00000
E00000
F00000
780000
7E0000
7FF8E0
3FFFE0
1FFF80
0FFE00
03FC00
ENDCHAR
STARTCHAR 0682
ENCODING 1666
SWIDTH 581 0
DWIDTH 21 0
BBX 19 38 1 -7
BITMAP
020000
038000
07C000
078000
038000
004000
00F000
00F000
01E000
006000
000000
000000
0FFE00
3FFF80
7FFF80
7FFF80
FFFF00
C7F800
0F8000
1E0000
3C0000
300000
700000
600000
600000
E00000
C00000
E00000
E00000
E00000
F00000
780000
7E0000
7FF8E0
3FFFE0
1FFF80
0FFE00
03FC00
ENDCHAR
STARTCHAR 0683
ENCODING 1667
SWIDTH 581 0
DWIDTH 21 0
BBX 19 26 1 -7
BITMAP
0FFE00
3FFF80
7FFF80
7FFF80
FFFF00
C7F800
0F8000
1E0000
3C0000
300000
700800
609E00
61DE00
E1FC00
C3CC00
E1C000
E00000
E00000
F00000
780000
7E0000
7FF8E0
3FFFE0
1FFF80
0FFE00
03FC00
ENDCHAR
STARTCHAR 0684
ENCODING 1668
SWIDTH 581 0
DWIDTH 21 0
BBX 19 26 1 -7
BITMAP
0FFE00
3FFF80
7FFF80
7FFF80
FFFF00
C7F800
0F8000
1E0000
3C0000
300000
70E000
60F000
61E000
E0E000
C01000
E03C00
E03C00
E07800
F01800
780000
7E0000
7FF8E0
3FFFE0
1FFF80
0FFE00
03FC00
ENDCHAR
STARTCHAR 0685
ENCODING 1669
SWIDTH 581 0
DWIDTH 21 0
BBX 19 38 1 -6
BITMAP
01C000
01E000
03C000
01C000
001800
013C00
03FC00
03F800
03C800
018000
000000
000000
0FFE00
3FFF80
7FFF80
7FFF80
FFFF00
C7F800
0F8000
1E0000
3C0000
300000
700000
600000
600000
E00000
C00000
E00000
E00000
E00000
F00000
780000
7E0000
7FF8E0
3FFFE0
1FFF80
0FFE00
03FC00
ENDCHAR
STARTCHAR 0686
ENCODING 1670
SWIDTH 581 0
DWIDTH 21 0
BBX 19 26 1 -7
BITMAP
0FFE00
3FFF80
7FFF80
7FFF80
FFFF00
C7F800
0F8000
1E0000
3C0000
301800
713E00
61FC00
63FC00
E3C800
C1A000
E03800
E03C00
E07800
F03800
780000
7E0000
7FF8E0
3FFFE0
1FFF80
0FFE00
03FC00
ENDCHAR
STARTCHAR 0687
ENCODING 1671
SWIDTH 581 0
DWIDTH 21 0
BBX 19 26 1 -7
BITMAP
0FFE00
3FFF80
7FFF80
7FFF80
FFFF00
C7F800
0F8000
1E0000
3C1000
301C00
71BC00
63FC00
63D800
E3C600
C0A780
E07F80
E07F00
E0F300
F07000
780000
7E0000
7FF8E0
3FFFE0
1FFF80
0FFE00
03FC00
ENDCHAR
STARTCHAR 0688
ENCODING 1672
SWIDTH 332 0
DWIDTH 12 0
BBX 11 27 1 5
BITMAP
1000
3800
1800
1000
1000
1980
0FC0
0EC0
3840
FFC0
FFC0
0000
0100
0180
01C0
03C0
03E0
03E0
00E0
0060
0060
4020
7FE0
7FE0
7FE0
7FE0
3FE0
ENDCHAR
STARTCHAR 0689
ENCODING 1673
SWIDTH 332 0
DWIDTH 12 0
BBX 10 21 2 1
BITMAP
0200
0300
0380
0780
0780
07C0
03C0
01C0
00C0
00C0
00C0
8040
FFC0
FFC0
FFC0
FFC0
7FC0
1300
1100
1E00
0C00
ENDCHAR
STARTCHAR 068A
ENCODING 1674
SWIDTH 332 0
DWIDTH 12 0
BBX 10 24 2 -2
BITMAP
0200
0300
0380
0780
0780
07C0
03C0
01C0
00C0
00C0
00C0
8040
FFC0
FFC0
FFC0
FFC0
7FC0
0000
0800
0E00
1F00
1F00
1E00
0600
ENDCHAR
STARTCHAR 068B
ENCODING 1675
SWIDTH 332 0
DWIDTH 12 0
BBX 11 34 1 -2
BITMAP
1000
3800
1800
1000
1000
1980
0FC0
0EC0
3840
FFC0
FFC0
0000
0100
0180
01C0
03C0
03E0
03E0
00E0
0060
0060
4020
7FE0
7FE0
7FE0
7FE0
3FE0
0000
0400
0700
0F80
0F80
0F00
0300
ENDCHAR
STARTCHAR 068C
ENCODING 1676
SWIDTH 332 0
DWIDTH 12 0
BBX 10 25 2 6
BITMAP
0700
6780
7F00
F700
F000
2000
0000
0000
0200
0300
0380
0780
0780
07C0
03C0
01C0
00C0
00C0
00C0
8040
FFC0
FFC0
FFC0
FFC0
7FC0
ENDCHAR
STARTCHAR 068D
ENCODING 1677
SWIDTH 332 0
DWIDTH 12 0
BBX 10 25 2 -3
BITMAP
0200
0300
0380
0780
0780
07C0
03C0
01C0
00C0
00C0
00C0
8040
FFC0
FFC0
FFC0
FFC0
7FC0
0000
0000
0380
3BC0
3F80
7B80
3800
1000
ENDCHAR
STARTCHAR 068E
ENCODING 1678
SWIDTH 332 0
DWIDTH 12 0
BBX 10 27 2 5
BITMAP
3000
3C00
7800
7800
1200
0780
7780
7F00
FB00
7000
1000
0000
0200
0300
0380
0780
07C0
07C0
01C0
00C0
00C0
8040
FFC0
FFC0
FFC0
FFC0
7FC0
ENDCHAR
STARTCHAR 068F
ENCODING 1679
SWIDTH 332 0
DWIDTH 12 0
BBX 11 27 1 5
BITMAP
0600
0780
7F80
7F00
F200
7000
0E00
0F00
0F00
0E00
0200
0000
0100
0180
01C0
03C0
03E0
03E0
00E0
0060
0060
4020
7FE0
7FE0
7FE0
7FE0
3FE0
ENDCHAR
STARTCHAR 0690
ENCODING 1680
SWIDTH 332 0
DWIDTH 12 0
BBX 11 27 1 5
BITMAP
0600
4700
7F00
FF00
F200
6180
29E0
1FC0
1FC0
3C00
0C00
0000
0100
0180
01C0
03C0
03E0
03E0
00E0
0060
0060
4020
7FE0
7FE0
7FE0
7FE0
3FE0
ENDCHAR
STARTCHAR 0691
ENCODING 1681
SWIDTH 443 0
DWIDTH 16 0
BBX 16 33 0 -3
BITMAP
0080
01C0
00C0
0080
00C0
00CC
007E
0076
01C2
07FE
07FE
0000
0000
0000
0004
0006
000E
000E
000F
0007
0003
0003
0003
0003
0007
000F
001E
003E
C0FC
7FF8
1FF0
07E0
0180
ENDCHAR
STARTCHAR 0692
ENCODING 1682
SWIDTH 443 0
DWIDTH 16 0
BBX 16 26 0 -3
BITMAP
0066
0036
003C
0018
0000
0000
0000
0004
0006
000E
000E
000F
0007
0003
0003
0003
0003
0007
000F
001E
003E
C0FC
7FF8
1FF0
07E0
0180
ENDCHAR
STARTCHAR 0693
ENCODING 1683
SWIDTH 443 0
DWIDTH 16 0
BBX 17 20 0 -3
BITMAP
000400
000600
000E00
000E00
000F00
000700
000300
000300
000300
000300
000700
000F00
001E00
003E00
C0FF00
7FFF00
1FF980
07E900
018F00
000400
ENDCHAR
STARTCHAR 0694
ENCODING 1684
SWIDTH 443 0
DWIDTH 16 0
BBX 18 22 0 -6
BITMAP
000400
000600
000E00
000E00
000F00
000700
000300
000300
000300
000300
000700
000F00
001E00
003E00
C0FC00
7FF800
1FF000
07E300
0187C0
000FC0
000F80
000380
ENDCHAR
STARTCHAR 0695
ENCODING 1685
SWIDTH 443 0
DWIDTH 16 0
BBX 18 23 0 -6
BITMAP
000400
000600
000E00
000E00
000F00
000700
000300
000300
000300
000300
000700
000F00
001E00
003E00
C0FC00
7FF800
1FF000
07E000
018000
000CC0
000D80
000700
000700
ENDCHAR
STARTCHAR 0696
ENCODING 1686
SWIDTH 443 0
DWIDTH 16 0
BBX 18 22 0 -6
BITMAP
000400
000600
000E00
000E00
000F00
010700
018300
03E300
03E300
07E300
01C700
000F00
001E00
003E00
C0FC00
7FF800
1FF000
07E300
0187C0
000FC0
000F80
000380
ENDCHAR
STARTCHAR 0697
ENCODING 1687
SWIDTH 443 0
DWIDTH 16 0
BBX 16 28 0 -3
BITMAP
000C
004F
00FF
00FE
01E6
00E0
0000
0000
0000
0004
0006
000E
000E
000F
0007
0003
0003
0003
0003
0007
000F
001E
003E
C0FC
7FF8
1FF0
07E0
0180
ENDCHAR
STARTCHAR 0698
ENCODING 1688
SWIDTH 443 0
DWIDTH 16 0
BBX 16 32 0 -3
BITMAP
0060
00F8
00F0
00F0
0024
000F
00FF
00FE
01E6
00E0
0000
0000
0000
0004
0006
000E
000E
000F
0007
0003
0003
0003
0003
0007
000F
001E
003E
C0FC
7FF8
1FF0
07E0
0180
ENDCHAR
STARTCHAR 0699
ENCODING 1689
SWIDTH 443 0
DWIDTH 16 0
BBX 16 33 0 -3
BITMAP
0020
0038
03F8
07F8
07B0
038C
014F
00FF
00FE
01E6
00E0
0000
0000
0000
0004
0006
000E
000E
000F
0007
0003
0003
0003
0003
0007
000F
001E
003E
C0FC
7FF8
1FF0
07E0
0180
ENDCHAR
STARTCHAR 069A
ENCODING 1690
SWIDTH 886 0
DWIDTH 32 0
BBX 31 25 1 -2
BITMAP
00000400
00000700
00000F80
00000F80
00000F00
00000300
00000000
00008002
0000C026
0800C066
1801C066
1001E046
3000E0F6
6000FFFE
60007FFE
40007FFE
C0007FFE
C0007F0E
E000E000
F001C080
FC07C1E0
7FFFC1F0
7FFF83F0
3FFF01E0
0FFC0040
ENDCHAR
STARTCHAR 069B
ENCODING 1691
SWIDTH 886 0
DWIDTH 32 0
BBX 31 23 1 -6
BITMAP
00008002
0000C026
0800C066
1801C066
1001E046
3000E0F6
6000FFFE
60007FFE
40007FFE
C0007FFE
C0007F0E
E000E000
F001C020
FC07C038
7FFFC378
7FFF87F8
3FFF07B0
0FFC0700
00000160
00000078
000000F0
000000F0
00000020
ENDCHAR
STARTCHAR 069C
ENCODING 1692
SWIDTH 886 0
DWIDTH 32 0
BBX 31 35 1 -7
BITMAP
00000100
000001C0
000003C0
000003C0
00000190
00000038
0000033C
000003F8
000007B8
00000380
00000100
00000000
00008002
0000C026
0800C066
1801C066
1001E046
3000E0F6
6000FFFE
60007FFE
40007FFE
C0007FFE
C0007F0E
E000E000
F001C020
FC07C038
7FFFC378
7FFF87F8
3FFF07B0
0FFC0700
00000160
00000078
000000F0
000000F0
00000020
ENDCHAR
STARTCHAR 069D
ENCODING 1693
SWIDTH 1052 0
DWIDTH 38 0
BBX 37 21 1 -3
BITMAP
00000001E0
00000007F0
0000800FF8
0000C03FF8
0800C07FF8
1801C1F018
1001C3E018
3000E78038
6000FFFFF8
60007FFFF8
40007FFFF8
C0007FFFF8
C0007FFFF8
E000E00000
F001C00200
FC07C00700
7FFFC07780
7FFF807F00
3FFF00FB00
0FFC007000
0000001000
ENDCHAR
STARTCHAR 069E
ENCODING 1694
SWIDTH 1052 0
DWIDTH 38 0
BBX 37 31 1 -1
BITMAP
0000038000
000003C000
000007C000
000003A000
000000B000
0000027C00
000003F800
000007F000
0000079000
0000030000
0000000000
00000001E0
00000007F0
0000800FF8
0000C03FF8
0800C07FF8
1801C1F018
1001C3E018
3000E78038
6000FFFFF8
60007FFFF8
40007FFFF8
C0007FFFF8
C0007FFFF8
E000E00000
F001C00000
FC07C00000
7FFFC00000
7FFF800000
3FFF000000
0FFC000000
ENDCHAR
STARTCHAR 069F
ENCODING 1695
SWIDTH 526 0
DWIDTH 19 0
BBX 20 26 -1 5
BITMAP
000400
000F00
040F00
061F00
0F8680
0FC0E0
0F8DF0
078FE0
079EC0
070E00
070400
030000
030000
0387C0
039FE0
03BFF0
03FFF0
03FFF0
03E070
078070
1F00F0
FFFFF0
FFFFF0
FFFFF0
FFFFF0
FFFFF0
ENDCHAR
STARTCHAR 06A0
ENCODING 1696
SWIDTH 553 0
DWIDTH 20 0
BBX 18 39 1 -7
BITMAP
100000
3C0000
3C0000
780000
1B0000
238000
3F8000
7F8000
7B0000
300000
000000
0FE000
1FF800
3FFC00
3C0000
700000
700000
780E00
7C7E00
7FFC00
3FFC00
3FF000
1F8000
3E0000
380000
700000
600000
C00000
C00000
C00000
C00000
E00000
F00000
F80000
FFE000
7FFFC0
3FFF00
1FFE00
0FF800
ENDCHAR
STARTCHAR 06A1
ENCODING 1697
SWIDTH 747 0
DWIDTH 27 0
BBX 26 15 1 5
BITMAP
00000300
00000F80
20000FC0
60001FC0
40003FC0
400039C0
C00039C0
C0003FC0
C0003FC0
E0003FC0
FFFFFFC0
FFFFFFC0
FFFFFFC0
7FFFFFC0
3FFFFFC0
ENDCHAR
STARTCHAR 06A2
ENCODING 1698
SWIDTH 747 0
DWIDTH 27 0
BBX 26 22 1 -2
BITMAP
00000300
00000F80
20000FC0
60001FC0
40003FC0
400039C0
C00039C0
C0003FC0
C0003FC0
E0003FC0
FFFFFFC0
FFFFFFC0
FFFFFFC0
7FFFFFC0
3FFFFFC0
00000000
00000400
00000E00
00000F80
00001F00
00001F00
00000600
ENDCHAR
STARTCHAR 06A3
ENCODING 1699
SWIDTH 747 0
DWIDTH 27 0
BBX 26 30 1 -2
BITMAP
00000400
00000F00
00001F80
00001F00
00000F00
00000200
00000000
00000000
00000300
00000F80
20000FC0
60001FC0
40003FC0
400039C0
C00039C0
C0003FC0
C0003FC0
E0003FC0
FFFFFFC0
FFFFFFC0
FFFFFFC0
7FFFFFC0
3FFFFFC0
00000000
00040000
00070000
000FC000
000F8000
000F0000
00030000
ENDCHAR
STARTCHAR 06A4
ENCODING 1700
SWIDTH 747 0
DWIDTH 27 0
BBX 26 26 1 5
BITMAP
00003800
00003C00
00007800
00003800
00000300
00002780
00007F80
00007F00
0000F900
00003000
00000000
00000300
00000F80
20000FC0
60001FC0
40003FC0
400039C0
C00039C0
C0003FC0
C0003FC0
E0003FC0
FFFFFFC0
FFFFFFC0
FFFFFFC0
7FFFFFC0
3FFFFFC0
ENDCHAR
STARTCHAR 06A5
ENCODING 1701
SWIDTH 747 0
DWIDTH 27 0
BBX 26 27 1 -7
BITMAP
00000300
00000F80
20000FC0
60001FC0
40003FC0
400039C0
C00039C0
C0003FC0
C0003FC0
E0003FC0
FFFFFFC0
FFFFFFC0
FFFFFFC0
7FFFFFC0
3FFFFFC0
00000000
00000100
000003C0
00001BC0
00003FC0
00003D80
00003800
00000B00
000003C0
00000780
00000780
00000100
ENDCHAR
STARTCHAR 06A6
ENCODING 1702
SWIDTH 747 0
DWIDTH 27 0
BBX 26 27 1 5
BITMAP
00000800
00001C00
0001DE00
0001FC00
0003CC00
0001C300
00002780
00003F80
00007F80
00007900
00003000
00000000
00000300
00000F80
20000FC0
60001FC0
40003FC0
400039C0
C00039C0
C0003FC0
C0003FC0
E0003FC0
FFFFFFC0
FFFFFFC0
FFFFFFC0
7FFFFFC0
3FFFFFC0
ENDCHAR
STARTCHAR 06A7
ENCODING 1703
SWIDTH 609 0
DWIDTH 22 0
BBX 21 30 1 -5
BITMAP
000200
000300
0007C0
000FC0
000F80
000380
000000
000000
0000C0
0001E0
0003F0
0003F0
0007F8
000678
100638
3007F8
2007F8
6007F8
4007F8
C001F8
C00008
C00008
C00018
E00038
F800F8
FFFFF0
7FFFF0
7FFFC0
1FFF80
00F800
ENDCHAR
STARTCHAR 06A8
ENCODING 1704
SWIDTH 609 0
DWIDTH 22 0
BBX 21 33 1 -5
BITMAP
000400
000F00
000F00
001F00
000680
0000E0
000DF0
000FE0
001EC0
001E00
000400
0000C0
0001E0
0003F0
0003F0
0007F8
000678
100638
3007F8
2007F8
6007F8
4007F8
C001F8
C00008
C00008
C00018
E00038
F800F8
FFFFF0
7FFFF0
7FFFC0
1FFF80
00F800
ENDCHAR
STARTCHAR 06A9
ENCODING 1705
SWIDTH 747 0
DWIDTH 27 0
BBX 26 20 1 6
BITMAP
00000380
00000F80
00003F80
00007F80
0000FC00
0000F000
0001F000
0001F800
2000FC00
6000FC00
40007E00
C0000F00
C0000780
C00003C0
E00001C0
FFFFFFC0
FFFFFFC0
FFFFFFC0
7FFFFFC0
1FFFFFC0
ENDCHAR
STARTCHAR 06AA
ENCODING 1706
SWIDTH 747 0
DWIDTH 27 0
BBX 26 19 1 5
BITMAP
00060000
001E0000
007E0000
00FE0000
01FC0000
03E00000
03E00000
03FE0000
03FFF000
41FFFE00
C07FFF00
C00FFF80
C0007FC0
F00003C0
FFFFFFC0
FFFFFFC0
FFFFFFC0
7FFFFFC0
1FFFFFC0
ENDCHAR
STARTCHAR 06AB
ENCODING 1707
SWIDTH 747 0
DWIDTH 27 0
BBX 26 20 1 6
BITMAP
00000380
00000F80
00003F80
00007FC0
0000FEC0
0000F240
0001F3C0
0001FB80
2000FC00
6000FC00
40007E00
C0000F00
C0000780
C00003C0
E00001C0
FFFFFFC0
FFFFFFC0
FFFFFFC0
7FFFFFC0
1FFFFFC0
ENDCHAR
STARTCHAR 06AC
ENCODING 1708
SWIDTH 553 0
DWIDTH 20 0
BBX 19 27 1 5
BITMAP
018000
01E000
03E000
03E000
01C100
004300
000380
0037C0
0067C0
0067C0
00C3C0
00C180
00F180
01F180
00F180
203180
6071C0
47E0C0
C700C0
C000C0
C000C0
E000C0
FFFFE0
FFFFE0
FFFFE0
7FFFE0
1FFFE0
ENDCHAR
STARTCHAR 06AD
ENCODING 1709
SWIDTH 553 0
DWIDTH 20 0
BBX 19 26 1 5
BITMAP
018000
03B000
027000
030100
010300
000380
0037C0
0067C0
0067C0
00C3C0
00C180
00F180
01F180
00F180
203180
6071C0
47E0C0
C700C0
C000C0
C000C0
E000C0
FFFFE0
FFFFE0
FFFFE0
7FFFE0
1FFFE0
ENDCHAR
STARTCHAR 06AE
ENCODING 1710
SWIDTH 553 0
DWIDTH 20 0
BBX 19 35 1 -7
BITMAP
000100
000300
000380
0037C0
0067C0
0067C0
00C3C0
00C180
00F180
01F180
00F180
203180
6071C0
47E0C0
C700C0
C000C0
C000C0
E000C0
FFFFE0
FFFFE0
FFFFE0
7FFFE0
1FFFE0
000000
001000
001C00
01BC00
03FC00
03D800
038000
00B000
003C00
007800
007800
001000
ENDCHAR
STARTCHAR 06AF
ENCODING 1711
SWIDTH 747 0
DWIDTH 27 0
BBX 26 26 1 5
BITMAP
00000180
00000780
00001F80
00003F80
0000FE00
0001F000
0003C380
00030F80
00003F80
00007F80
0000FC00
0000F000
0001F000
0001F800
2000FC00
6000FC00
40007E00
C0000F00
C0000780
C00003C0
E00001C0
FFFFFFC0
FFFFFFC0
FFFFFFC0
7FFFFFC0
1FFFFFC0
ENDCHAR
STARTCHAR 06B0
ENCODING 1712
SWIDTH 747 0
DWIDTH 27 0
BBX 26 26 1 5
BITMAP
00000180
00000780
00001F80
00003F80
0000FE00
0001F000
0003C380
00030F80
00003F80
00007FC0
0000FEC0
0000F240
0001F3C0
0001FB80
2000FC00
6000FC00
40007E00
C0000F00
C0000780
C00003C0
E00001C0
FFFFFFC0
FFFFFFC0
FFFFFFC0
7FFFFFC0
1FFFFFC0
ENDCHAR
STARTCHAR 06B1
ENCODING 1713
SWIDTH 747 0
DWIDTH 27 0
BBX 26 27 1 5
BITMAP
00001800
00013980
0001C780
00019F80
00003F80
0000FE00
0001F000
0003C380
00030F80
00003F80
00007F80
0000FC00
0000F000
0001F000
0001F800
2000FC00
6000FC00
40007E00
C0000F00
C0000780
C00003C0
E00001C0
FFFFFFC0
FFFFFFC0
FFFFFFC0
7FFFFFC0
1FFFFFC0
ENDCHAR
STARTCHAR 06B2
ENCODING 1714
SWIDTH 747 0
DWIDTH 27 0
BBX 26 34 1 -3
BITMAP
00000180
00000780
00001F80
00003F80
0000FE00
0001F000
0003C380
00030F80
00003F80
00007F80
0000FC00
0000F000
0001F000
0001F800
2000FC00
6000FC00
40007E00
C0000F00
C0000780
C00003C0
E00001C0
FFFFFFC0
FFFFFFC0
FFFFFFC0
7FFFFFC0
1FFFFFC0
00000000
00010000
00038000
003BC000
003F8000
007D8000
00380000
00080000
ENDCHAR
STARTCHAR 06B3
ENCODING 1715
SWIDTH 747 0
DWIDTH 27 0
BBX 26 37 1 -6
BITMAP
00000180
00000780
00001F80
00003F80
0000FE00
0001F000
0003C380
00030F80
00003F80
00007F80
0000FC00
0000F000
0001F000
0001F800
2000FC00
6000FC00
40007E00
C0000F00
C0000780
C00003C0
E00001C0
FFFFFFC0
FFFFFFC0
FFFFFFC0
7FFFFFC0
1FFFFFC0
00000000
00100000
001C0000
001E0000
003C0000
001C0000
00020000
00078000
00078000
000F0000
00030000
ENDCHAR
STARTCHAR 06B4
ENCODING 1716
SWIDTH 747 0
DWIDTH 27 0
BBX 26 27 1 5
BITMAP
00018000
0003B180
00023780
00031F80
00003F80
0000FE00
0001F000
0003C380
00030F80
00003F80
00007F80
0000FC00
0000F000
0001F000
0001F800
2000FC00
6000FC00
40007E00
C0000F00
C0000780
C00003C0
E00001C0
FFFFFFC0
FFFFFFC0
FFFFFFC0
7FFFFFC0
1FFFFFC0
ENDCHAR
STARTCHAR 06B5
ENCODING 1717
SWIDTH 443 0
DWIDTH 16 0
BBX 15 33 1 -1
BITMAP
00D8
00D8
0070
0060
0000
0018
001C
003E
003E
003E
001C
0018
001C
000C
000C
000C
000C
000E
100E
3006
6006
4006
C006
C006
C006
C006
C00E
E01E
FFFE
FFFC
FFF8
7FF0
3FC0
ENDCHAR
STARTCHAR 06B6
ENCODING 1718
SWIDTH 443 0
DWIDTH 16 0
BBX 15 33 1 -1
BITMAP
0180
01E0
03E0
03E0
01C0
0058
001C
003E
003E
003E
001C
0018
001C
000C
000C
000C
000C
000E
100E
3006
6006
4006
C006
C006
C006
C006
C00E
E01E
FFFE
FFFC
FFF8
7FF0
3FC0
ENDCHAR
STARTCHAR 06B7
ENCODING 1719
SWIDTH 443 0
DWIDTH 16 0
BBX 15 33 1 -1
BITMAP
0060
00EC
008C
00C0
0000
0018
001C
003E
003E
003E
001C
0018
001C
000C
000C
000C
000C
000E
100E
3006
6006
4006
C006
C006
C006
C006
C00E
E01E
FFFE
FFFC
FFF8
7FF0
3FC0
ENDCHAR
STARTCHAR 06B8
ENCODING 1720
SWIDTH 443 0
DWIDTH 16 0
BBX 15 33 1 -5
BITMAP
0018
001C
003E
003E
003E
001C
0018
001C
000C
000C
000C
000C
000E
100E
3006
6006
4006
C006
C006
C006
C006
C00E
E01E
FFFE
FFFC
FFF8
7FF0
3FC0
0000
0000
00C0
0700
0180
ENDCHAR
STARTCHAR 06B9
ENCODING 1721
SWIDTH 553 0
DWIDTH 20 0
BBX 19 30 1 -8
BITMAP
00C000
00F000
01F800
01F000
00E000
002080
000080
0000C0
0801C0
1801C0
3001C0
3000E0
6000E0
6000E0
400060
C00060
C00060
E000E0
F001C0
FC07C0
7FFFC0
7FFF80
3FFF00
0FFC00
00C000
01F000
01F000
03F000
00E000
002000
ENDCHAR
STARTCHAR 06BA
ENCODING 1722
SWIDTH 553 0
DWIDTH 20 0
BBX 19 19 1 -2
BITMAP
000080
000080
0000C0
0801C0
1801C0
3001C0
3000E0
6000E0
6000E0
400060
C00060
C00060
E000E0
F001C0
FC07C0
7FFFC0
7FFF80
3FFF00
0FFC00
ENDCHAR
STARTCHAR 06BB
ENCODING 1723
SWIDTH 553 0
DWIDTH 20 0
BBX 19 31 1 -2
BITMAP
010000
018000
018000
018000
008000
008000
00BC00
00FC00
01C400
07FC00
07FC00
07FC00
000080
000080
0000C0
0801C0
1801C0
3001C0
3000E0
6000E0
6000E0
400060
C00060
C00060
E000E0
F001C0
FC07C0
7FFFC0
7FFF80
3FFF00
0FFC00
ENDCHAR
STARTCHAR 06BC
ENCODING 1724
SWIDTH 553 0
DWIDTH 20 0
BBX 19 28 1 -6
BITMAP
00C000
00F000
01F800
01F000
00E000
002080
000080
0000C0
0801C0
1801C0
3001C0
3000E0
6000E0
6000E0
400060
C00060
C00060
E000E0
F001C0
FC07C0
7FFFC0
7FFF80
3FFF00
0FFC00
016000
022000
036000
03C000
ENDCHAR
STARTCHAR 06BD
ENCODING 1725
SWIDTH 553 0
DWIDTH 20 0
BBX 19 29 1 -2
BITMAP
010000
01C000
03C000
03C000
018000
003800
033C00
03F800
07B800
078000
010080
000080
0000C0
0801C0
1801C0
3001C0
3000E0
6000E0
6000E0
400060
C00060
C00060
E000E0
F001C0
FC07C0
7FFFC0
7FFF80
3FFF00
0FFC00
ENDCHAR
STARTCHAR 06BE
ENCODING 1726
SWIDTH 470 0
DWIDTH 17 0
BBX 15 18 -1 5
BITMAP
0300
0380
07C0
07E0
03F0
07F0
0FF8
0CFC
0CFC
0CEE
1FCE
1FC6
FFFE
FFFE
FFFE
FCFE
F03E
000C
ENDCHAR
STARTCHAR 06BF
ENCODING 1727
SWIDTH 581 0
DWIDTH 21 0
BBX 19 34 1 -7
BITMAP
010000
01C000
03E000
03E000
03C000
00C000
000000
000000
0FFE00
3FFF80
7FFF80
7FFF80
FFFF00
C7F800
0F8000
1E0000
3C0000
301800
713E00
61FC00
63FC00
E3C800
C1A000
E03800
E03C00
E07800
F03800
780000
7E0000
7FF8E0
3FFFE0
1FFF80
0FFE00
03FC00
ENDCHAR
STARTCHAR 06C0
ENCODING 1728
SWIDTH 332 0
DWIDTH 12 0
BBX 9 20 2 5
BITMAP
1800
2800
6000
3800
4000
0000
2000
3800
3C00
7E00
7F00
7F80
4F80
C780
C380
CF80
FF80
FF00
FE00
FC00
ENDCHAR
STARTCHAR 06C1
ENCODING 1729
SWIDTH 387 0
DWIDTH 14 0
BBX 13 11 1 2
BITMAP
0200
0780
0FC0
1FE0
3FF8
31F8
60F8
6078
C038
8000
8000
ENDCHAR
STARTCHAR 06C2
ENCODING 1730
SWIDTH 387 0
DWIDTH 14 0
BBX 13 19 1 2
BITMAP
0200
0600
0800
0F00
0C00
0000
0000
0000
0200
0780
0FC0
1FE0
3FF8
31F8
60F8
6078
C038
8000
8000
ENDCHAR
STARTCHAR 06C3
ENCODING 1731
SWIDTH 387 0
DWIDTH 14 0
BBX 13 20 1 2
BITMAP
0100
03C0
1BC0
3F80
7D80
3800
0800
0000
0000
0200
0780
0FC0
1FE0
3FF8
31F8
60F8
6078
C038
8000
8000
ENDCHAR
STARTCHAR 06C4
ENCODING 1732
SWIDTH 443 0
DWIDTH 16 0
BBX 16 20 0 -3
BITMAP
001E
003E
003F
007F
0077
0063
0073
007F
007F
007F
003F
0003
01C7
026F
C23E
73FE
3FFC
0FF8
07F0
0080
ENDCHAR
STARTCHAR 06C5
ENCODING 1733
SWIDTH 443 0
DWIDTH 16 0
BBX 16 20 0 -3
BITMAP
001E
003E
003F
007F
0077
0063
0073
007F
007F
007F
003F
0003
07CF
00FF
C01E
707E
3FFC
0FF8
07F0
0080
ENDCHAR
STARTCHAR 06C6
ENCODING 1734
SWIDTH 443 0
DWIDTH 16 0
BBX 16 27 0 -3
BITMAP
0066
003C
003C
0018
0000
0000
0000
001E
003E
003F
007F
0077
0063
0073
007F
007F
007F
003F
0003
0007
000F
C01E
707E
3FFC
0FF8
07F0
0080
ENDCHAR
STARTCHAR 06C7
ENCODING 1735
SWIDTH 443 0
DWIDTH 16 0
BBX 16 31 0 -3
BITMAP
000C
001C
0014
001C
000E
001A
0030
00C0
0000
0000
0000
001E
003E
003F
007F
0077
0063
0073
007F
007F
007F
003F
0003
0007
000F
C01E
707E
3FFC
0FF8
07F0
0080
ENDCHAR
STARTCHAR 06C8
ENCODING 1736
SWIDTH 443 0
DWIDTH 16 0
BBX 16 32 0 -2
BITMAP
0010
0030
0030
0010
0010
0010
0010
0010
0010
0010
0000
0000
001E
003E
003F
007F
0077
0063
0073
007F
007F
007F
003F
0003
0007
000F
C01E
707E
3FFC
0FF8
07F0
0080
ENDCHAR
STARTCHAR 06C9
ENCODING 1737
SWIDTH 443 0
DWIDTH 16 0
BBX 16 27 0 -3
BITMAP
0018
003C
003C
0066
0000
0000
0000
001E
003E
003F
007F
0077
0063
0073
007F
007F
007F
003F
0003
0007
000F
C01E
707E
3FFC
0FF8
07F0
0080
ENDCHAR
STARTCHAR 06CA
ENCODING 1738
SWIDTH 443 0
DWIDTH 16 0
BBX 16 28 0 -3
BITMAP
000C
008F
00FE
01FE
01E4
00C0
0000
0000
001E
003E
003F
007F
0077
0063
0073
007F
007F
007F
003F
0003
0007
000F
C01E
707E
3FFC
0FF8
07F0
0080
ENDCHAR
STARTCHAR 06CB
ENCODING 1739
SWIDTH 443 0
DWIDTH 16 0
BBX 16 32 0 -3
BITMAP
0060
00F0
00F0
00E0
002C
008F
00FE
01FE
01E4
00C0
0000
0000
001E
003E
003F
007F
0077
0063
0073
007F
007F
007F
003F
0003
0007
000F
C01E
707E
3FFC
0FF8
07F0
0080
ENDCHAR
STARTCHAR 06CC
ENCODING 1740
SWIDTH 636 0
DWIDTH 23 0
BBX 18 19 3 -2
BITMAP
000100
000780
000FC0
001FC0
003FC0
103880
206000
606000
407F80
C07F80
C07F80
801F80
800180
C00F00
C03F00
FFFE00
FFFC00
7FF000
3F8000
ENDCHAR
STARTCHAR 06CD
ENCODING 1741
SWIDTH 636 0
DWIDTH 23 0
BBX 20 19 1 -2
BITMAP
000060
0001F0
0003F0
0007F0
000FF0
0C0E20
381800
D81800
101FE0
101FE0
301FE0
2007E0
200060
3003C0
300FC0
3FFF80
3FFF00
1FFC00
0FE000
ENDCHAR
STARTCHAR 06CE
ENCODING 1742
SWIDTH 636 0
DWIDTH 23 0
BBX 18 21 3 -2
BITMAP
198000
0D8000
0F0100
070780
000FC0
001FC0
003FC0
103880
206000
606000
407F80
C07F80
C07F80
801F80
800180
C00F00
C03F00
FFFE00
FFFC00
7FF000
3F8000
ENDCHAR
STARTCHAR 06CF
ENCODING 1743
SWIDTH 443 0
DWIDTH 16 0
BBX 16 29 0 -3
BITMAP
0020
0078
00FC
00F8
0078
0010
0000
0000
0000
001E
003E
003F
007F
0077
0063
0073
007F
007F
007F
003F
0003
0007
000F
C01E
707E
3FFC
0FF8
07F0
0080
ENDCHAR
STARTCHAR 06D0
ENCODING 1744
SWIDTH 636 0
DWIDTH 23 0
BBX 18 24 3 -7
BITMAP
000100
000780
000FC0
001FC0
003FC0
103880
206000
606000
407F80
C07F80
C07F80
801F80
800180
C00F00
C03F00
FFFE00
FFFC00
7FF000
3F8000
000000
010000
030000
018000
010000
ENDCHAR
STARTCHAR 06D1
ENCODING 1745
SWIDTH 636 0
DWIDTH 23 0
BBX 18 23 3 -6
BITMAP
000100
000780
000FC0
001FC0
003FC0
103880
206000
606000
407F80
C07F80
C07F80
801F80
800180
C00F00
C03F00
FFFE00
FFFC00
7FF000
3F8000
000000
00C000
060000
018000
ENDCHAR
STARTCHAR 06D2
ENCODING 1746
SWIDTH 803 0
DWIDTH 29 0
BBX 28 18 1 -1
BITMAP
000C0000
001E0000
003E0000
003E0000
007E0000
01E20000
07C20000
1FC00000
3F800000
7F000000
7C000000
70000000
60000000
7FFFFFF0
FFFFFFE0
FFFFFFC0
FFFFFF80
7FFFFF00
ENDCHAR
STARTCHAR 06D3
ENCODING 1747
SWIDTH 803 0
DWIDTH 29 0
BBX 28 22 1 0
BITMAP
01800000
02000000
03C00000
03800000
000C0000
001E0000
003E0000
003E0000
007E0000
01E20000
07C20000
1FC00000
3F800000
7F000000
7C000000
70000000
60000000
7FFFFFF0
FFFFFFE0
FFFFFFC0
FFFFFF80
7FFFFF00
ENDCHAR
STARTCHAR 06D4
ENCODING 1748
SWIDTH 193 0
DWIDTH 7 0
BBX 6 5 1 5
BITMAP
FC
FC
FC
FC
FC
ENDCHAR
STARTCHAR 06D5
ENCODING 1749
SWIDTH 332 0
DWIDTH 12 0
BBX 9 14 2 5
BITMAP
2000
3800
3C00
7E00
7F00
7F80
4F80
C780
C380
CF80
FF80
FF00
FE00
FC00
ENDCHAR
STARTCHAR 06D6
ENCODING 1750
SWIDTH 0 0
DWIDTH 0 0
BBX 16 12 -8 20
BITMAP
0C00
0C00
0C02
040F
0519
05A1
1FFF
3FFF
6000
C000
FFF8
FFF8
ENDCHAR
STARTCHAR 06D7
ENCODING 1751
SWIDTH 0 0
DWIDTH 0 0
BBX 13 13 -6 19
BITMAP
0040
1D00
0C80
09C0
0D60
05E0
0420
1FE0
3FE0
4000
8000
FFF8
FFF8
ENDCHAR
STARTCHAR 06D8
ENCODING 1752
SWIDTH 0 0
DWIDTH 0 0
BBX 8 5 -4 19
BITMAP
06
0E
1B
FF
F7
ENDCHAR
STARTCHAR 06D9
ENCODING 1753
SWIDTH 0 0
DWIDTH 0 0
BBX 8 11 -4 19
BITMAP
04
C3
E3
F2
52
0A
0C
0C
1A
1E
1E
ENDCHAR
STARTCHAR 06DA
ENCODING 1754
SWIDTH 0 0
DWIDTH 0 0
BBX 9 12 -5 19
BITMAP
7F80
7F00
9C00
2000
4000
4400
4E00
4400
4000
7000
7F80
1F00
ENDCHAR
STARTCHAR 06DB
ENCODING 1755
SWIDTH 0 0
DWIDTH 0 0
BBX 4 5 -2 19
BITMAP
40
C0
40
F0
D0
ENDCHAR
STARTCHAR 06DC
ENCODING 1756
SWIDTH 0 0
DWIDTH 0 0
BBX 14 8 -7 20
BITMAP
0114
4114
81FC
81FC
80E4
8100
FF00
FE00
ENDCHAR
STARTCHAR 06DD
ENCODING 1757
SWIDTH 1135 0
DWIDTH 41 0
BBX 39 39 1 -7
BITMAP
0001FF0000
000FFFE000
01FE00FE00
0130003100
013FFFF100
03FFFFFB80
07000005C0
0E000000E0
1C00000060
1800000030
3000000038
3000000018
6000000018
600000000C
600000000C
C00000000C
C000000006
C000000006
C000000006
C000000006
C000000006
C000000006
C000000004
C00000000C
600000000C
600000000C
6000000018
3000000018
3000000030
1800000030
1C00000060
0E000000C0
07C00007C0
033FFFFB80
013FFFF100
0138003900
00FF03FE00
000FFFC000
0000FE0000
ENDCHAR
STARTCHAR 06DE
ENCODING 1758
SWIDTH 1080 0
DWIDTH 39 0
BBX 37 37 1 -5
BITMAP
0000200000
0000700000
0000D80000
00018C0000
0003060000
0006030000
07FFFFFF00
061800C300
0630006300
0660003300
06C0001B00
0780000F00
0700000700
0600000300
0E00000380
1E007803C0
3600CC0360
6601040330
C601040318
4601040318
26018C0330
1600F80360
0E002003C0
0600000380
0600000300
0700000700
0680000F00
0640001B00
0620003300
0610006300
060800C300
07FFFFFF00
0002030000
0001060000
00008C0000
0000580000
0000300000
ENDCHAR
STARTCHAR 06DF
ENCODING 1759
SWIDTH 0 0
DWIDTH 0 0
BBX 2 2 -1 19
BITMAP
C0
C0
ENDCHAR
STARTCHAR 06E0
ENCODING 1760
SWIDTH 0 0
DWIDTH 0 0
BBX 2 2 -1 19
BITMAP
C0
C0
ENDCHAR
STARTCHAR 06E1
ENCODING 1761
SWIDTH 0 0
DWIDTH 0 0
BBX 10 6 -5 19
BITMAP
1800
3E00
0F00
0380
FFC0
FFC0
ENDCHAR
STARTCHAR 06E2
ENCODING 1762
SWIDTH 0 0
DWIDTH 0 0
BBX 6 11 -3 19
BITMAP
30
38
5C
3C
7C
C0
80
80
40
40
40
ENDCHAR
STARTCHAR 06E3
ENCODING 1763
SWIDTH 0 0
DWIDTH 0 0
BBX 14 9 -7 -8
BITMAP
0104
4114
813C
81FC
80FC
8100
FF00
FE00
1000
ENDCHAR
STARTCHAR 06E4
ENCODING 1764
SWIDTH 0 0
DWIDTH 0 0
BBX 4 1 -2 19
BITMAP
F0
ENDCHAR
STARTCHAR 06E5
ENCODING 1765
SWIDTH 221 0
DWIDTH 8 0
BBX 8 9 0 19
BITMAP
06
0F
0B
0F
0F
03
06
FE
3C
ENDCHAR
STARTCHAR 06E6
ENCODING 1766
SWIDTH 360 0
DWIDTH 13 0
BBX 13 8 0 19
BITMAP
0600
0E00
1A00
7000
E000
8000
FFF8
FFF0
ENDCHAR
STARTCHAR 06E7
ENCODING 1767
SWIDTH 0 0
DWIDTH 0 0
BBX 13 8 -7 19
BITMAP
0200
0600
1800
7800
7000
4000
FFF8
FFF0
ENDCHAR
STARTCHAR 06E8
ENCODING 1768
SWIDTH 0 0
DWIDTH 0 0
BBX 8 11 -4 19
BITMAP
18
18
09
01
41
81
81
81
81
FF
7E
ENDCHAR
STARTCHAR 06E9
ENCODING 1769
SWIDTH 609 0
DWIDTH 22 0
BBX 20 29 1 1
BITMAP
006000
00B000
011800
026C00
04B600
091B00
126D80
2496C0
490B60
9205B0
490B60
251640
131480
1B1500
0B1500
0B1500
0B1500
0B1500
0B1500
0B1500
0B1500
0B1500
0B1500
0B1500
0AE500
120580
23FCC0
600040
FFFFE0
ENDCHAR
STARTCHAR 06EA
ENCODING 1770
SWIDTH 0 0
DWIDTH 0 0
BBX 4 4 -2 -5
BITMAP
60
90
90
60
ENDCHAR
STARTCHAR 06EB
ENCODING 1771
SWIDTH 0 0
DWIDTH 0 0
BBX 6 5 -3 20
BITMAP
30
48
84
48
30
ENDCHAR
STARTCHAR 06EC
ENCODING 1772
SWIDTH 0 0
DWIDTH 0 0
BBX 2 2 -1 19
BITMAP
C0
C0
ENDCHAR
STARTCHAR 06ED
ENCODING 1773
SWIDTH 0 0
DWIDTH 0 0
BBX 6 10 -3 -8
BITMAP
38
5C
1C
7C
F0
80
80
40
40
40
ENDCHAR
STARTCHAR 06F0
ENCODING 1776
SWIDTH 553 0
DWIDTH 20 0
BBX 6 8 7 8
BITMAP
60
70
78
FC
FC
F8
78
18
ENDCHAR
STARTCHAR 06F1
ENCODING 1777
SWIDTH 553 0
DWIDTH 20 0
BBX 7 21 6 5
BITMAP
20
20
70
78
F8
F8
7C
7C
3C
1E
1E
0E
0E
0E
06
06
06
06
06
04
04
ENDCHAR
STARTCHAR 06F2
ENCODING 1778
SWIDTH 553 0
DWIDTH 20 0
BBX 10 21 5 5
BITMAP
4040
4040
E0C0
FFC0
FFC0
FFC0
7FC0
7F80
3F00
3C00
1C00
1E00
0E00
0E00
0E00
0600
0600
0600
0600
0200
0200
ENDCHAR
STARTCHAR 06F3
ENCODING 1779
SWIDTH 553 0
DWIDTH 20 0
BBX 14 21 3 5
BITMAP
4004
40C4
60CC
F9FC
FFFC
FFFC
FFFC
7FF8
3F70
3C00
1C00
1C00
1C00
0C00
0C00
0C00
0C00
0C00
0C00
0C00
0800
ENDCHAR
STARTCHAR 06F4
ENCODING 1780
SWIDTH 553 0
DWIDTH 20 0
BBX 14 22 3 5
BITMAP
0040
01F0
63F8
7380
7A00
FE04
FFFC
7FF8
3FF8
3FF0
1FE0
1F00
0E00
0E00
0E00
0600
0600
0600
0600
0600
0400
0400
ENDCHAR
STARTCHAR 06F5
ENCODING 1781
SWIDTH 553 0
DWIDTH 20 0
BBX 14 20 3 6
BITMAP
0200
0700
0780
07C0
07E0
03E0
07F0
0CF0
1878
1838
3038
301C
700C
708C
F9FC
FFF8
FFF8
7FF0
7FE0
1C00
ENDCHAR
STARTCHAR 06F6
ENCODING 1782
SWIDTH 553 0
DWIDTH 20 0
BBX 12 21 4 5
BITMAP
0780
1FC0
1FE0
3020
6000
6010
FFF0
FFF0
FFE0
FFE0
3F80
0F00
0E00
1C00
1C00
1800
1800
1800
1000
1000
1000
ENDCHAR
STARTCHAR 06F7
ENCODING 1783
SWIDTH 553 0
DWIDTH 20 0
BBX 13 21 3 5
BITMAP
8000
C008
C018
E018
F038
F038
F838
F870
7870
3C60
1CE0
1CC0
0EC0
0E80
0780
0780
0380
0380
0300
0300
0100
ENDCHAR
STARTCHAR 06F8
ENCODING 1784
SWIDTH 553 0
DWIDTH 20 0
BBX 14 20 3 5
BITMAP
0200
0300
0700
0700
0700
0780
0580
0DC0
0DC0
0CE0
18E0
18F0
3878
787C
F07C
F03C
F03C
E01C
E00C
C00C
ENDCHAR
STARTCHAR 06F9
ENCODING 1785
SWIDTH 553 0
DWIDTH 20 0
BBX 11 20 4 5
BITMAP
0E00
1F00
3F80
7F80
7F80
6380
E180
FF80
FF80
FF80
7F80
3F80
0180
01C0
01E0
01E0
01E0
00E0
00E0
0040
ENDCHAR
STARTCHAR 06FA
ENCODING 1786
SWIDTH 886 0
DWIDTH 32 0
BBX 31 30 1 -2
BITMAP
00000100
000001C0
000003C0
000003C0
00000190
00000038
0000033C
000003F8
000007B8
00000380
00000100
00000000
00008002
0000C026
0800C066
1801C066
1001E046
3000E0F6
6000FFFE
60007FFE
40007FFE
C0007FFE
C0007F0E
E000E000
F001C080
FC07C1E0
7FFFC1F0
7FFF83F0
3FFF01E0
0FFC0040
ENDCHAR
STARTCHAR 06FB
ENCODING 1787
SWIDTH 1052 0
DWIDTH 38 0
BBX 37 28 1 -2
BITMAP
000000C000
000001F000
000001F000
000003E000
000000E000
0000004000
0000000000
0000000000
00000001E0
00000007F0
0000800FF8
0000C03FF8
0800C07FF8
1801C1F018
1001C3E018
3000E78038
6000FFFFF8
60007FFFF8
40007FFFF8
C0007FFFF8
C0007FFFF8
E000E00000
F001C01000
FC07C03C00
7FFFC03E00
7FFF807C00
3FFF003C00
0FFC001800
ENDCHAR
STARTCHAR 06FC
ENCODING 1788
SWIDTH 553 0
DWIDTH 20 0
BBX 18 37 1 -7
BITMAP
040000
070000
0FC000
0F8000
0F0000
030000
000000
000000
000000
0FE000
1FF800
3FFC00
3C0000
700000
700000
780E00
7C7E00
7FFC00
3FFC00
3FF000
1F8000
3E0000
380000
700000
607000
C07C00
C0FC00
C0F800
C03800
E00000
F00000
F80000
FFE000
7FFFC0
3FFF00
1FFE00
0FF800
ENDCHAR
STARTCHAR 06FD
ENCODING 1789
SWIDTH 470 0
DWIDTH 17 0
BBX 13 23 2 -5
BITMAP
0F80
1FC0
3FC0
3FC0
7380
7000
F838
FCF8
7FF0
7FF0
3FC0
1F00
3C00
7000
6000
6000
0CE0
0CE0
0CE0
0CE0
0CE0
0CE0
0CE0
ENDCHAR
STARTCHAR 06FE
ENCODING 1790
SWIDTH 360 0
DWIDTH 13 0
BBX 12 22 1 -7
BITMAP
0F00
1F80
1FC0
3FE0
23F0
01F0
1FF0
7FF0
7FF0
FFF0
F000
C000
C000
C660
C660
6660
6660
6660
6660
2660
2000
2000
ENDCHAR
STARTCHAR 1E80
ENCODING 7808
SWIDTH 996 0
DWIDTH 36 0
BBX 36 33 0 -1
BITMAP
0007C00000
0001E00000
0001E00000
0000E00000
0000700000
0000300000
0000000000
0000000000
FFE7FF83F0
3F81FC00C0
3F80FC00C0
1F80FC0080
1F807E0080
0FC07E0100
0FC03F0100
07E03F0300
07E07F0200
07E05F8200
03F05F8600
03F0CFC400
01F88FCC00
01F98FC800
01F907E800
00FD07F800
00FF07F000
007E03F000
007E03F000
007C01E000
003C01E000
003801C000
001800C000
001800C000
0010000000
ENDCHAR
STARTCHAR 1E81
ENCODING 7809
SWIDTH 720 0
DWIDTH 26 0
BBX 24 25 1 0
BITMAP
01F000
00F000
007800
003800
001800
000C00
000000
000000
000000
FE3F8F
7C1F06
7E1F86
3E1F84
3E1F84
1F3FC8
1F27C8
1F27D8
0FE3F0
0FC3F0
0FC3F0
0781E0
0781E0
0381E0
0300C0
0300C0
ENDCHAR
STARTCHAR 1E82
ENCODING 7810
SWIDTH 996 0
DWIDTH 36 0
BBX 36 33 0 -1
BITMAP
00003E0000
00007C0000
0000780000
0000700000
0000E00000
0000C00000
0000000000
0000000000
FFE7FF83F0
3F81FC00C0
3F80FC00C0
1F80FC0080
1F807E0080
0FC07E0100
0FC03F0100
07E03F0300
07E07F0200
07E05F8200
03F05F8600
03F0CFC400
01F88FCC00
01F98FC800
01F907E800
00FD07F800
00FF07F000
007E03F000
007E03F000
007C01E000
003C01E000
003801C000
001800C000
001800C000
0010000000
ENDCHAR
STARTCHAR 1E83
ENCODING 7811
SWIDTH 720 0
DWIDTH 26 0
BBX 24 25 1 0
BITMAP
000F80
000F00
001E00
001C00
001800
003000
000000
000000
000000
FE3F8F
7C1F06
7E1F86
3E1F84
3E1F84
1F3FC8
1F27C8
1F27D8
0FE3F0
0FC3F0
0FC3F0
0781E0
0781E0
0381E0
0300C0
0300C0
ENDCHAR
STARTCHAR 1E84
ENCODING 7812
SWIDTH 996 0
DWIDTH 36 0
BBX 36 32 0 -1
BITMAP
0003860000
00078F0000
0007CF0000
00078F0000
0003060000
0000000000
0000000000
FFE7FF83F0
3F81FC00C0
3F80FC00C0
1F80FC0080
1F807E0080
0FC07E0100
0FC03F0100
07E03F0300
07E07F0200
07E05F8200
03F05F8600
03F0CFC400
01F88FCC00
01F98FC800
01F907E800
00FD07F800
00FF07F000
007E03F000
007E03F000
007C01E000
003C01E000
003801C000
001800C000
001800C000
0010000000
ENDCHAR
STARTCHAR 1E85
ENCODING 7813
SWIDTH 720 0
DWIDTH 26 0
BBX 24 24 1 0
BITMAP
01C380
01E7C0
03E7C0
01E780
008100
000000
000000
000000
FE3F8F
7C1F06
7E1F86
3E1F84
3E1F84
1F3FC8
1F27C8
1F27D8
0FE3F0
0FC3F0
0FC3F0
0781E0
0781E0
0381E0
0300C0
0300C0
ENDCHAR
STARTCHAR 1EA0
ENCODING 7840
SWIDTH 720 0
DWIDTH 26 0
BBX 26 32 0 -8
BITMAP
00040000
000C0000
000E0000
001E0000
001E0000
003F0000
003F0000
007F8000
005F8000
004FC000
00CFC000
0087E000
0187E000
0107E000
0303F000
0203F000
07FFF800
0401F800
0400FC00
0C00FC00
0800FE00
18007E00
38007F00
FF03FFC0
00000000
00000000
003C0000
007E0000
007E0000
007E0000
003C0000
00180000
ENDCHAR
STARTCHAR 1EA1
ENCODING 7841
SWIDTH 498 0
DWIDTH 18 0
BBX 15 25 2 -8
BITMAP
0FC0
39F0
70F8
F0F8
F8F8
F8F8
70F8
03F8
06F8
1CF8
78F8
F8F8
F0F8
F8F8
FFF8
FE7E
7C7C
0000
0000
0780
0F80
0FC0
0FC0
0F80
0300
ENDCHAR
STARTCHAR 1EA2
ENCODING 7842
SWIDTH 720 0
DWIDTH 26 0
BBX 26 32 0 0
BITMAP
003F8000
0031C000
00018000
00030000
00040000
00040000
00000000
00000000
00040000
000C0000
000E0000
001E0000
001E0000
003F0000
003F0000
007F8000
005F8000
004FC000
00CFC000
0087E000
0187E000
0107E000
0303F000
0203F000
07FFF800
0401F800
0400FC00
0C00FC00
0800FE00
18007E00
38007F00
FF03FFC0
ENDCHAR
STARTCHAR 1EA3
ENCODING 7843
SWIDTH 498 0
DWIDTH 18 0
BBX 15 25 2 0
BITMAP
0380
0CE0
0C60
00E0
0180
0100
0000
0000
0FC0
39F0
70F8
F0F8
F8F8
F8F8
70F8
03F8
06F8
1CF8
78F8
F8F8
F0F8
F8F8
FFF8
FE7E
7C7C
ENDCHAR
STARTCHAR 1EA4
ENCODING 7844
SWIDTH 720 0
DWIDTH 26 0
BBX 26 32 0 0
BITMAP
00078000
000E0000
000C0000
000E0000
003F0000
00618000
00000000
00000000
00040000
000C0000
000E0000
001E0000
001E0000
003F0000
003F0000
007F8000
005F8000
004FC000
00CFC000
0087E000
0187E000
0107E000
0303F000
0203F000
07FFF800
0401F800
0400FC00
0C00FC00
0800FE00
18007E00
38007F00
FF03FFC0
ENDCHAR
STARTCHAR 1EA5
ENCODING 7845
SWIDTH 498 0
DWIDTH 18 0
BBX 15 32 2 0
BITMAP
01F0
01E0
03C0
0380
0300
0600
0000
0780
0FC0
0FC0
1CE0
3870
3030
0018
0000
0FC0
39F0
70F8
F0F8
F8F8
F8F8
70F8
03F8
06F8
1CF8
78F8
F8F8
F0F8
F8F8
FFF8
FE7E
7C7C
ENDCHAR
STARTCHAR 1EA6
ENCODING 7846
SWIDTH 720 0
DWIDTH 26 0
BBX 26 32 0 0
BITMAP
007C0000
001C0000
00040000
000E0000
003F0000
00618000
00000000
00000000
00040000
000C0000
000E0000
001E0000
001E0000
003F0000
003F0000
007F8000
005F8000
004FC000
00CFC000
0087E000
0187E000
0107E000
0303F000
0203F000
07FFF800
0401F800
0400FC00
0C00FC00
0800FE00
18007E00
38007F00
FF03FFC0
ENDCHAR
STARTCHAR 1EA7
ENCODING 7847
SWIDTH 498 0
DWIDTH 18 0
BBX 15 32 2 0
BITMAP
3E00
1F00
0F00
0700
0380
0180
0000
0780
0FC0
0FC0
1CE0
3870
3030
0018
0000
0FC0
39F0
70F8
F0F8
F8F8
F8F8
70F8
03F8
06F8
1CF8
78F8
F8F8
F0F8
F8F8
FFF8
FE7E
7C7C
ENDCHAR
STARTCHAR 1EA8
ENCODING 7848
SWIDTH 720 0
DWIDTH 26 0
BBX 26 32 0 0
BITMAP
003F8000
00030000
00040000
000E0000
003F0000
00618000
00000000
00000000
00040000
000C0000
000E0000
001E0000
001E0000
003F0000
003F0000
007F8000
005F8000
004FC000
00CFC000
0087E000
0187E000
0107E000
0303F000
0203F000
07FFF800
0401F800
0400FC00
0C00FC00
0800FE00
18007E00
38007F00
FF03FFC0
ENDCHAR
STARTCHAR 1EA9
ENCODING 7849
SWIDTH 498 0
DWIDTH 18 0
BBX 15 32 2 0
BITMAP
0FE0
0C70
0060
00C0
0180
0100
0000
0780
0FC0
0FC0
1CE0
3870
3030
0018
0000
0FC0
39F0
70F8
F0F8
F8F8
F8F8
70F8
03F8
06F8
1CF8
78F8
F8F8
F0F8
F8F8
FFF8
FE7E
7C7C
ENDCHAR
STARTCHAR 1EAA
ENCODING 7850
SWIDTH 720 0
DWIDTH 26 0
BBX 26 32 0 0
BITMAP
007C4000
00DFC000
00810000
000E0000
003F0000
00618000
00000000
00000000
00040000
000C0000
000E0000
001E0000
001E0000
003F0000
003F0000
007F8000
005F8000
004FC000
00CFC000
0087E000
0187E000
0107E000
0303F000
0203F000
07FFF800
0401F800
0400FC00
0C00FC00
0800FE00
18007E00
38007F00
FF03FFC0
ENDCHAR
STARTCHAR 1EAB
ENCODING 7851
SWIDTH 498 0
DWIDTH 18 0
BBX 15 31 2 0
BITMAP
1E08
3FF8
3FF0
67F0
41C0
0000
0780
0FC0
0FC0
1CE0
3870
3030
0018
0000
0FC0
39F0
70F8
F0F8
F8F8
F8F8
70F8
03F8
06F8
1CF8
78F8
F8F8
F0F8
F8F8
FFF8
FE7E
7C7C
ENDCHAR
STARTCHAR 1EAC
ENCODING 7852
SWIDTH 720 0
DWIDTH 26 0
BBX 26 37 0 -8
BITMAP
000E0000
003F0000
00618000
00000000
00000000
00040000
000C0000
000E0000
001E0000
001E0000
003F0000
003F0000
007F8000
005F8000
004FC000
00CFC000
0087E000
0187E000
0107E000
0303F000
0203F000
07FFF800
0401F800
0400FC00
0C00FC00
0800FE00
18007E00
38007F00
FF03FFC0
00000000
00000000
003C0000
007E0000
007E0000
007E0000
003C0000
00180000
ENDCHAR
STARTCHAR 1EAD
ENCODING 7853
SWIDTH 498 0
DWIDTH 18 0
BBX 15 33 2 -8
BITMAP
0780
0FC0
0FC0
1CE0
3870
3030
0018
0000
0FC0
39F0
70F8
F0F8
F8F8
F8F8
70F8
03F8
06F8
1CF8
78F8
F8F8
F0F8
F8F8
FFF8
FE7E
7C7C
0000
0000
0780
0F80
0FC0
0FC0
0F80
0300
ENDCHAR
STARTCHAR 1EAE
ENCODING 7854
SWIDTH 720 0
DWIDTH 26 0
BBX 26 32 0 0
BITMAP
000F8000
000E0000
00080000
00004000
00738000
001F0000
00000000
00000000
00040000
000C0000
000E0000
001E0000
001E0000
003F0000
003F0000
007F8000
005F8000
004FC000
00CFC000
0087E000
0187E000
0107E000
0303F000
0203F000
07FFF800
0401F800
0400FC00
0C00FC00
0800FE00
18007E00
38007F00
FF03FFC0
ENDCHAR
STARTCHAR 1EAF
ENCODING 7855
SWIDTH 498 0
DWIDTH 18 0
BBX 15 32 2 0
BITMAP
01F0
01E0
03C0
0380
0300
0600
0000
0000
3010
3870
1FF0
1FE0
07C0
0000
0000
0FC0
39F0
70F8
F0F8
F8F8
F8F8
70F8
03F8
06F8
1CF8
78F8
F8F8
F0F8
F8F8
FFF8
FE7E
7C7C
ENDCHAR
STARTCHAR 1EB0
ENCODING 7856
SWIDTH 720 0
DWIDTH 26 0
BBX 26 32 0 0
BITMAP
007C0000
001C0000
00060000
00004000
00738000
001F0000
00000000
00000000
00040000
000C0000
000E0000
001E0000
001E0000
003F0000
003F0000
007F8000
005F8000
004FC000
00CFC000
0087E000
0187E000
0107E000
0303F000
0203F000
07FFF800
0401F800
0400FC00
0C00FC00
0800FE00
18007E00
38007F00
FF03FFC0
ENDCHAR
STARTCHAR 1EB1
ENCODING 7857
SWIDTH 498 0
DWIDTH 18 0
BBX 15 32 2 0
BITMAP
3E00
1F00
0F00
0700
0380
0180
0000
0000
3010
3870
1FF0
1FE0
07C0
0000
0000
0FC0
39F0
70F8
F0F8
F8F8
F8F8
70F8
03F8
06F8
1CF8
78F8
F8F8
F0F8
F8F8
FFF8
FE7E
7C7C
ENDCHAR
ENDFONT
